G75*
%MOIN*%
%OFA0B0*%
%FSLAX25Y25*%
%IPPOS*%
%LPD*%
%AMOC8*
5,1,8,0,0,1.08239X$1,22.5*
%
%ADD10C,0.00600*%
%ADD11C,0.00400*%
%ADD12C,0.00300*%
%ADD13C,0.00800*%
%ADD14C,0.00500*%
D10*
X0145821Y0049750D02*
X0145821Y0050884D01*
X0145821Y0050317D02*
X0149224Y0050317D01*
X0149224Y0049750D02*
X0149224Y0050884D01*
X0148656Y0052205D02*
X0149224Y0052773D01*
X0149224Y0053907D01*
X0148656Y0054474D01*
X0146388Y0054474D01*
X0145821Y0053907D01*
X0145821Y0052773D01*
X0146388Y0052205D01*
X0148656Y0052205D01*
X0148089Y0055889D02*
X0148089Y0057590D01*
X0147522Y0058157D01*
X0146388Y0058157D01*
X0145821Y0057590D01*
X0145821Y0055889D01*
X0149224Y0055889D01*
X0148089Y0057023D02*
X0149224Y0058157D01*
X0149224Y0059572D02*
X0149224Y0061840D01*
X0149224Y0063255D02*
X0145821Y0063255D01*
X0145821Y0065523D01*
X0147522Y0064389D02*
X0147522Y0063255D01*
X0145821Y0061840D02*
X0145821Y0059572D01*
X0149224Y0059572D01*
X0147522Y0059572D02*
X0147522Y0060706D01*
X0155821Y0059385D02*
X0155821Y0057116D01*
X0155821Y0058251D02*
X0159224Y0058251D01*
X0158656Y0055702D02*
X0159224Y0055135D01*
X0159224Y0054000D01*
X0158656Y0053433D01*
X0157522Y0054000D02*
X0157522Y0055135D01*
X0158089Y0055702D01*
X0158656Y0055702D01*
X0157522Y0054000D02*
X0156955Y0053433D01*
X0156388Y0053433D01*
X0155821Y0054000D01*
X0155821Y0055135D01*
X0156388Y0055702D01*
X0156388Y0052019D02*
X0155821Y0051451D01*
X0155821Y0049750D01*
X0159224Y0049750D01*
X0158089Y0049750D02*
X0158089Y0051451D01*
X0157522Y0052019D01*
X0156388Y0052019D01*
X0158089Y0050884D02*
X0159224Y0052019D01*
X0165821Y0054000D02*
X0165821Y0055135D01*
X0166388Y0055702D01*
X0166955Y0055702D01*
X0167522Y0055135D01*
X0168089Y0055702D01*
X0168656Y0055702D01*
X0169224Y0055135D01*
X0169224Y0054000D01*
X0168656Y0053433D01*
X0167522Y0054567D02*
X0167522Y0055135D01*
X0165821Y0054000D02*
X0166388Y0053433D01*
X0167522Y0052019D02*
X0167522Y0049750D01*
X0166388Y0050884D02*
X0168656Y0050884D01*
X0168656Y0057116D02*
X0168656Y0057683D01*
X0169224Y0057683D01*
X0169224Y0057116D01*
X0168656Y0057116D01*
X0168656Y0058958D02*
X0169224Y0059525D01*
X0169224Y0060659D01*
X0168656Y0061226D01*
X0168089Y0061226D01*
X0167522Y0060659D01*
X0167522Y0060092D01*
X0167522Y0060659D02*
X0166955Y0061226D01*
X0166388Y0061226D01*
X0165821Y0060659D01*
X0165821Y0059525D01*
X0166388Y0058958D01*
X0165821Y0062641D02*
X0168089Y0062641D01*
X0169224Y0063775D01*
X0168089Y0064910D01*
X0165821Y0064910D01*
X0175821Y0059385D02*
X0178089Y0059385D01*
X0179224Y0058251D01*
X0178089Y0057116D01*
X0175821Y0057116D01*
X0175821Y0055702D02*
X0175821Y0053433D01*
X0177522Y0053433D01*
X0176955Y0054567D01*
X0176955Y0055135D01*
X0177522Y0055702D01*
X0178656Y0055702D01*
X0179224Y0055135D01*
X0179224Y0054000D01*
X0178656Y0053433D01*
X0177522Y0052019D02*
X0177522Y0049750D01*
X0176388Y0050884D02*
X0178656Y0050884D01*
X0185821Y0050317D02*
X0186388Y0049750D01*
X0188656Y0049750D01*
X0189224Y0050317D01*
X0189224Y0051451D01*
X0188656Y0052019D01*
X0187522Y0052019D01*
X0187522Y0050884D01*
X0186388Y0052019D02*
X0185821Y0051451D01*
X0185821Y0050317D01*
X0185821Y0053433D02*
X0189224Y0055702D01*
X0185821Y0055702D01*
X0185821Y0057116D02*
X0185821Y0058818D01*
X0186388Y0059385D01*
X0188656Y0059385D01*
X0189224Y0058818D01*
X0189224Y0057116D01*
X0185821Y0057116D01*
X0185821Y0053433D02*
X0189224Y0053433D01*
X0195821Y0053433D02*
X0199224Y0055702D01*
X0195821Y0055702D01*
X0195821Y0057116D02*
X0195821Y0058818D01*
X0196388Y0059385D01*
X0198656Y0059385D01*
X0199224Y0058818D01*
X0199224Y0057116D01*
X0195821Y0057116D01*
X0195821Y0053433D02*
X0199224Y0053433D01*
X0198656Y0052019D02*
X0197522Y0052019D01*
X0197522Y0050884D01*
X0196388Y0049750D02*
X0198656Y0049750D01*
X0199224Y0050317D01*
X0199224Y0051451D01*
X0198656Y0052019D01*
X0196388Y0052019D02*
X0195821Y0051451D01*
X0195821Y0050317D01*
X0196388Y0049750D01*
X0205821Y0049750D02*
X0208089Y0049750D01*
X0209224Y0050884D01*
X0208089Y0052019D01*
X0205821Y0052019D01*
X0205821Y0053433D02*
X0205821Y0054567D01*
X0205821Y0054000D02*
X0209224Y0054000D01*
X0209224Y0053433D02*
X0209224Y0054567D01*
X0209224Y0055889D02*
X0205821Y0055889D01*
X0209224Y0058157D01*
X0205821Y0058157D01*
X0225821Y0051451D02*
X0226388Y0052019D01*
X0228656Y0049750D01*
X0229224Y0050317D01*
X0229224Y0051451D01*
X0228656Y0052019D01*
X0226388Y0052019D01*
X0225821Y0051451D02*
X0225821Y0050317D01*
X0226388Y0049750D01*
X0228656Y0049750D01*
X0235821Y0050884D02*
X0236955Y0049750D01*
X0235821Y0050884D02*
X0239224Y0050884D01*
X0239224Y0049750D02*
X0239224Y0052019D01*
X0239899Y0055750D02*
X0239899Y0058019D01*
X0238765Y0059153D01*
X0237631Y0058019D01*
X0237631Y0055750D01*
X0237631Y0057451D02*
X0239899Y0057451D01*
X0241314Y0058019D02*
X0243015Y0058019D01*
X0243582Y0057451D01*
X0243582Y0055750D01*
X0244997Y0056317D02*
X0245564Y0056884D01*
X0247266Y0056884D01*
X0247266Y0057451D02*
X0247266Y0055750D01*
X0245564Y0055750D01*
X0244997Y0056317D01*
X0245564Y0058019D02*
X0246698Y0058019D01*
X0247266Y0057451D01*
X0248680Y0055750D02*
X0249814Y0055750D01*
X0249247Y0055750D02*
X0249247Y0059153D01*
X0248680Y0059153D01*
X0251136Y0057451D02*
X0251136Y0056317D01*
X0251703Y0055750D01*
X0252837Y0055750D01*
X0253404Y0056317D01*
X0253404Y0057451D01*
X0252837Y0058019D01*
X0251703Y0058019D01*
X0251136Y0057451D01*
X0254819Y0057451D02*
X0254819Y0056317D01*
X0255386Y0055750D01*
X0257087Y0055750D01*
X0257087Y0055183D02*
X0257087Y0058019D01*
X0255386Y0058019D01*
X0254819Y0057451D01*
X0257087Y0055183D02*
X0256520Y0054616D01*
X0255953Y0054616D01*
X0256388Y0052019D02*
X0256955Y0052019D01*
X0257522Y0051451D01*
X0258089Y0052019D01*
X0258656Y0052019D01*
X0259224Y0051451D01*
X0259224Y0050317D01*
X0258656Y0049750D01*
X0257522Y0050884D02*
X0257522Y0051451D01*
X0256388Y0052019D02*
X0255821Y0051451D01*
X0255821Y0050317D01*
X0256388Y0049750D01*
X0249224Y0049750D02*
X0246955Y0052019D01*
X0246388Y0052019D01*
X0245821Y0051451D01*
X0245821Y0050317D01*
X0246388Y0049750D01*
X0249224Y0049750D02*
X0249224Y0052019D01*
X0241314Y0055750D02*
X0241314Y0058019D01*
X0262185Y0059153D02*
X0263319Y0059153D01*
X0262752Y0059153D02*
X0262752Y0055750D01*
X0262185Y0055750D02*
X0263319Y0055750D01*
X0264640Y0055750D02*
X0264640Y0058019D01*
X0266342Y0058019D01*
X0266909Y0057451D01*
X0266909Y0055750D01*
X0267522Y0052019D02*
X0267522Y0049750D01*
X0265821Y0051451D01*
X0269224Y0051451D01*
X0275821Y0052019D02*
X0275821Y0049750D01*
X0277522Y0049750D01*
X0276955Y0050884D01*
X0276955Y0051451D01*
X0277522Y0052019D01*
X0278656Y0052019D01*
X0279224Y0051451D01*
X0279224Y0050317D01*
X0278656Y0049750D01*
X0124224Y0214567D02*
X0121955Y0214567D01*
X0120821Y0215702D01*
X0121955Y0216836D01*
X0124224Y0216836D01*
X0124224Y0218251D02*
X0120821Y0218251D01*
X0120821Y0219952D01*
X0121388Y0220519D01*
X0122522Y0220519D01*
X0123089Y0219952D01*
X0123089Y0218251D01*
X0123089Y0219385D02*
X0124224Y0220519D01*
X0124224Y0221934D02*
X0120821Y0221934D01*
X0120821Y0224202D01*
X0120821Y0225617D02*
X0120821Y0227885D01*
X0122522Y0226751D02*
X0122522Y0225617D01*
X0120821Y0225617D02*
X0124224Y0225617D01*
X0124224Y0224202D02*
X0124224Y0221934D01*
X0122522Y0221934D02*
X0122522Y0223068D01*
X0122522Y0216836D02*
X0122522Y0214567D01*
X0114224Y0218818D02*
X0114224Y0219952D01*
X0113656Y0220519D01*
X0113089Y0220519D01*
X0112522Y0219952D01*
X0112522Y0218818D01*
X0111955Y0218251D01*
X0111388Y0218251D01*
X0110821Y0218818D01*
X0110821Y0219952D01*
X0111388Y0220519D01*
X0110821Y0221934D02*
X0110821Y0223635D01*
X0111388Y0224202D01*
X0113656Y0224202D01*
X0114224Y0223635D01*
X0114224Y0221934D01*
X0110821Y0221934D01*
X0111955Y0225617D02*
X0110821Y0226751D01*
X0111955Y0227885D01*
X0114224Y0227885D01*
X0112522Y0227885D02*
X0112522Y0225617D01*
X0111955Y0225617D02*
X0114224Y0225617D01*
X0104224Y0225617D02*
X0104224Y0227885D01*
X0104224Y0225617D02*
X0100821Y0225617D01*
X0101388Y0224202D02*
X0100821Y0223635D01*
X0100821Y0222501D01*
X0101388Y0221934D01*
X0103656Y0221934D01*
X0104224Y0222501D01*
X0104224Y0223635D01*
X0103656Y0224202D01*
X0103656Y0220519D02*
X0104224Y0219952D01*
X0104224Y0218818D01*
X0103656Y0218251D01*
X0102522Y0218818D02*
X0102522Y0219952D01*
X0103089Y0220519D01*
X0103656Y0220519D01*
X0102522Y0218818D02*
X0101955Y0218251D01*
X0101388Y0218251D01*
X0100821Y0218818D01*
X0100821Y0219952D01*
X0101388Y0220519D01*
X0113656Y0218251D02*
X0114224Y0218818D01*
X0130821Y0218818D02*
X0131388Y0218251D01*
X0133656Y0218251D01*
X0134224Y0218818D01*
X0134224Y0219952D01*
X0133656Y0220519D01*
X0132522Y0220519D01*
X0132522Y0219385D01*
X0131388Y0220519D02*
X0130821Y0219952D01*
X0130821Y0218818D01*
X0130821Y0221934D02*
X0134224Y0224202D01*
X0130821Y0224202D01*
X0130821Y0225617D02*
X0130821Y0227318D01*
X0131388Y0227885D01*
X0133656Y0227885D01*
X0134224Y0227318D01*
X0134224Y0225617D01*
X0130821Y0225617D01*
X0130821Y0221934D02*
X0134224Y0221934D01*
X0140821Y0223068D02*
X0144224Y0223068D01*
X0144224Y0221934D02*
X0144224Y0224202D01*
X0143656Y0225617D02*
X0144224Y0226184D01*
X0144224Y0227318D01*
X0143656Y0227885D01*
X0143089Y0227885D01*
X0142522Y0227318D01*
X0142522Y0226751D01*
X0142522Y0227318D02*
X0141955Y0227885D01*
X0141388Y0227885D01*
X0140821Y0227318D01*
X0140821Y0226184D01*
X0141388Y0225617D01*
X0140821Y0223068D02*
X0141955Y0221934D01*
X0150821Y0223068D02*
X0154224Y0223068D01*
X0154224Y0221934D02*
X0154224Y0224202D01*
X0154224Y0225617D02*
X0151955Y0227885D01*
X0151388Y0227885D01*
X0150821Y0227318D01*
X0150821Y0226184D01*
X0151388Y0225617D01*
X0150821Y0223068D02*
X0151955Y0221934D01*
X0154224Y0225617D02*
X0154224Y0227885D01*
X0160821Y0226751D02*
X0161955Y0225617D01*
X0160821Y0226751D02*
X0164224Y0226751D01*
X0164224Y0225617D02*
X0164224Y0227885D01*
X0164224Y0224202D02*
X0164224Y0221934D01*
X0164224Y0223068D02*
X0160821Y0223068D01*
X0161955Y0221934D01*
X0170821Y0223068D02*
X0174224Y0223068D01*
X0174224Y0221934D02*
X0174224Y0224202D01*
X0173656Y0225617D02*
X0171388Y0227885D01*
X0173656Y0227885D01*
X0174224Y0227318D01*
X0174224Y0226184D01*
X0173656Y0225617D01*
X0171388Y0225617D01*
X0170821Y0226184D01*
X0170821Y0227318D01*
X0171388Y0227885D01*
X0172487Y0229368D02*
X0173555Y0228300D01*
X0175690Y0228300D01*
X0176757Y0229368D01*
X0176757Y0233638D01*
X0175690Y0234705D01*
X0173555Y0234705D01*
X0172487Y0233638D01*
X0172487Y0229368D01*
X0178933Y0228300D02*
X0178933Y0234705D01*
X0183203Y0234705D01*
X0185378Y0234705D02*
X0189648Y0234705D01*
X0185378Y0234705D02*
X0185378Y0228300D01*
X0184224Y0227318D02*
X0183656Y0227885D01*
X0181388Y0227885D01*
X0180821Y0227318D01*
X0180821Y0226184D01*
X0181388Y0225617D01*
X0181955Y0225617D01*
X0182522Y0226184D01*
X0182522Y0227885D01*
X0184224Y0227318D02*
X0184224Y0226184D01*
X0183656Y0225617D01*
X0185378Y0231503D02*
X0187513Y0231503D01*
X0191388Y0227885D02*
X0191955Y0227885D01*
X0192522Y0227318D01*
X0192522Y0226184D01*
X0191955Y0225617D01*
X0191388Y0225617D01*
X0190821Y0226184D01*
X0190821Y0227318D01*
X0191388Y0227885D01*
X0192522Y0227318D02*
X0193089Y0227885D01*
X0193656Y0227885D01*
X0194224Y0227318D01*
X0194224Y0226184D01*
X0193656Y0225617D01*
X0193089Y0225617D01*
X0192522Y0226184D01*
X0181068Y0231503D02*
X0178933Y0231503D01*
X0170821Y0223068D02*
X0171955Y0221934D01*
X0205821Y0225617D02*
X0205821Y0227885D01*
X0206388Y0227885D01*
X0208656Y0225617D01*
X0209224Y0225617D01*
X0215821Y0227885D02*
X0216388Y0226751D01*
X0217522Y0225617D01*
X0217522Y0227318D01*
X0218089Y0227885D01*
X0218656Y0227885D01*
X0219224Y0227318D01*
X0219224Y0226184D01*
X0218656Y0225617D01*
X0217522Y0225617D01*
X0225821Y0225617D02*
X0227522Y0225617D01*
X0226955Y0226751D01*
X0226955Y0227318D01*
X0227522Y0227885D01*
X0228656Y0227885D01*
X0229224Y0227318D01*
X0229224Y0226184D01*
X0228656Y0225617D01*
X0225821Y0225617D02*
X0225821Y0227885D01*
X0235821Y0227318D02*
X0237522Y0225617D01*
X0237522Y0227885D01*
X0239224Y0227318D02*
X0235821Y0227318D01*
X0245821Y0227318D02*
X0245821Y0226184D01*
X0246388Y0225617D01*
X0247522Y0226751D02*
X0247522Y0227318D01*
X0248089Y0227885D01*
X0248656Y0227885D01*
X0249224Y0227318D01*
X0249224Y0226184D01*
X0248656Y0225617D01*
X0247522Y0227318D02*
X0246955Y0227885D01*
X0246388Y0227885D01*
X0245821Y0227318D01*
X0255821Y0227318D02*
X0255821Y0226184D01*
X0256388Y0225617D01*
X0255821Y0227318D02*
X0256388Y0227885D01*
X0256955Y0227885D01*
X0259224Y0225617D01*
X0259224Y0227885D01*
X0265821Y0227885D02*
X0269224Y0225617D01*
X0269224Y0227885D02*
X0265821Y0225617D01*
X0265821Y0224202D02*
X0265821Y0221934D01*
X0265821Y0223068D02*
X0269224Y0223068D01*
X0275821Y0223635D02*
X0276388Y0224202D01*
X0277522Y0224202D01*
X0278089Y0223635D01*
X0278089Y0221934D01*
X0278089Y0223068D02*
X0279224Y0224202D01*
X0279224Y0225617D02*
X0275821Y0227885D01*
X0275821Y0225617D02*
X0279224Y0227885D01*
X0275821Y0223635D02*
X0275821Y0221934D01*
X0279224Y0221934D01*
D11*
X0246824Y0189898D02*
X0246056Y0190665D01*
X0242987Y0190665D01*
X0242220Y0189898D01*
X0242220Y0187596D01*
X0246824Y0187596D01*
X0246824Y0189898D01*
X0246824Y0186061D02*
X0242220Y0186061D01*
X0242220Y0182992D02*
X0246824Y0186061D01*
X0246824Y0182992D02*
X0242220Y0182992D01*
X0242987Y0181457D02*
X0242220Y0180690D01*
X0242220Y0179156D01*
X0242987Y0178388D01*
X0246056Y0178388D01*
X0246824Y0179156D01*
X0246824Y0180690D01*
X0246056Y0181457D01*
X0244522Y0181457D01*
X0244522Y0179923D01*
X0236824Y0178388D02*
X0232220Y0178388D01*
X0232220Y0181457D01*
X0232220Y0182992D02*
X0236824Y0182992D01*
X0236824Y0186061D01*
X0236824Y0189131D02*
X0232220Y0189131D01*
X0232220Y0190665D02*
X0232220Y0187596D01*
X0231424Y0192000D02*
X0231424Y0178188D01*
X0234522Y0178388D02*
X0234522Y0179923D01*
X0226824Y0182992D02*
X0223754Y0182992D01*
X0222220Y0184527D01*
X0223754Y0186061D01*
X0226824Y0186061D01*
X0226824Y0187596D02*
X0223754Y0190665D01*
X0222987Y0190665D01*
X0222220Y0189898D01*
X0222220Y0188363D01*
X0222987Y0187596D01*
X0224522Y0186061D02*
X0224522Y0182992D01*
X0226824Y0187596D02*
X0226824Y0190665D01*
X0216824Y0190665D02*
X0216824Y0187596D01*
X0216824Y0186061D02*
X0213754Y0186061D01*
X0212220Y0184527D01*
X0213754Y0182992D01*
X0216824Y0182992D01*
X0214522Y0182992D02*
X0214522Y0186061D01*
X0213754Y0187596D02*
X0212220Y0189131D01*
X0216824Y0189131D01*
X0206824Y0189131D02*
X0202220Y0189131D01*
X0203754Y0187596D01*
X0203754Y0186061D02*
X0204522Y0185294D01*
X0204522Y0182992D01*
X0206824Y0182992D02*
X0202220Y0182992D01*
X0202220Y0185294D01*
X0202987Y0186061D01*
X0203754Y0186061D01*
X0204522Y0185294D02*
X0205289Y0186061D01*
X0206056Y0186061D01*
X0206824Y0185294D01*
X0206824Y0182992D01*
X0206824Y0187596D02*
X0206824Y0190665D01*
X0196824Y0190665D02*
X0196824Y0187596D01*
X0193754Y0190665D01*
X0192987Y0190665D01*
X0192220Y0189898D01*
X0192220Y0188363D01*
X0192987Y0187596D01*
X0192987Y0186061D02*
X0193754Y0186061D01*
X0194522Y0185294D01*
X0194522Y0182992D01*
X0196824Y0182992D02*
X0196824Y0185294D01*
X0196056Y0186061D01*
X0195289Y0186061D01*
X0194522Y0185294D01*
X0192987Y0186061D02*
X0192220Y0185294D01*
X0192220Y0182992D01*
X0196824Y0182992D01*
X0186824Y0182992D02*
X0182220Y0182992D01*
X0186824Y0186061D01*
X0182220Y0186061D01*
X0182220Y0187596D02*
X0182220Y0189898D01*
X0182987Y0190665D01*
X0186056Y0190665D01*
X0186824Y0189898D01*
X0186824Y0187596D01*
X0182220Y0187596D01*
X0176824Y0189131D02*
X0172220Y0189131D01*
X0172220Y0190665D02*
X0172220Y0187596D01*
X0172987Y0186061D02*
X0172220Y0185294D01*
X0172220Y0183759D01*
X0172987Y0182992D01*
X0176056Y0182992D01*
X0176824Y0183759D01*
X0176824Y0185294D01*
X0176056Y0186061D01*
X0172987Y0186061D01*
X0172220Y0181457D02*
X0176824Y0181457D01*
X0176824Y0178388D02*
X0172220Y0178388D01*
X0173754Y0179923D01*
X0172220Y0181457D01*
X0172220Y0176854D02*
X0175289Y0176854D01*
X0176824Y0175319D01*
X0175289Y0173784D01*
X0172220Y0173784D01*
X0182220Y0179156D02*
X0182987Y0178388D01*
X0186056Y0178388D01*
X0186824Y0179156D01*
X0186824Y0180690D01*
X0186056Y0181457D01*
X0184522Y0181457D01*
X0184522Y0179923D01*
X0182987Y0181457D02*
X0182220Y0180690D01*
X0182220Y0179156D01*
X0186824Y0164477D02*
X0186824Y0161408D01*
X0186824Y0162942D02*
X0182220Y0162942D01*
X0183754Y0161408D01*
X0182987Y0159873D02*
X0182220Y0159106D01*
X0182220Y0157571D01*
X0182987Y0156804D01*
X0183754Y0156804D01*
X0184522Y0157571D01*
X0184522Y0159106D01*
X0185289Y0159873D01*
X0186056Y0159873D01*
X0186824Y0159106D01*
X0186824Y0157571D01*
X0186056Y0156804D01*
X0186824Y0155269D02*
X0182220Y0155269D01*
X0183754Y0153735D01*
X0182220Y0152200D01*
X0186824Y0152200D01*
X0192220Y0152200D02*
X0193754Y0153735D01*
X0192220Y0155269D01*
X0196824Y0155269D01*
X0196056Y0156804D02*
X0196824Y0157571D01*
X0196824Y0159106D01*
X0196056Y0159873D01*
X0195289Y0159873D01*
X0194522Y0159106D01*
X0194522Y0157571D01*
X0193754Y0156804D01*
X0192987Y0156804D01*
X0192220Y0157571D01*
X0192220Y0159106D01*
X0192987Y0159873D01*
X0192987Y0161408D02*
X0192220Y0162175D01*
X0192220Y0163710D01*
X0192987Y0164477D01*
X0193754Y0164477D01*
X0196824Y0161408D01*
X0196824Y0164477D01*
X0206824Y0158339D02*
X0206824Y0155269D01*
X0206824Y0153735D02*
X0206824Y0152200D01*
X0206824Y0152967D02*
X0202220Y0152967D01*
X0202220Y0152200D02*
X0202220Y0153735D01*
X0203754Y0155269D02*
X0202220Y0156804D01*
X0206824Y0156804D01*
X0212220Y0157571D02*
X0212220Y0156037D01*
X0212987Y0155269D01*
X0212220Y0153735D02*
X0212220Y0152200D01*
X0212220Y0152967D02*
X0216824Y0152967D01*
X0216824Y0152200D02*
X0216824Y0153735D01*
X0216824Y0155269D02*
X0213754Y0158339D01*
X0212987Y0158339D01*
X0212220Y0157571D01*
X0216824Y0158339D02*
X0216824Y0155269D01*
X0222220Y0154502D02*
X0222220Y0152967D01*
X0222987Y0152200D01*
X0223754Y0152200D01*
X0224522Y0152967D01*
X0224522Y0154502D01*
X0225289Y0155269D01*
X0226056Y0155269D01*
X0226824Y0154502D01*
X0226824Y0152967D01*
X0226056Y0152200D01*
X0222987Y0155269D02*
X0222220Y0154502D01*
X0222220Y0156804D02*
X0226824Y0156804D01*
X0226824Y0159873D01*
X0226824Y0161408D02*
X0222220Y0161408D01*
X0222220Y0163710D01*
X0222987Y0164477D01*
X0224522Y0164477D01*
X0225289Y0163710D01*
X0225289Y0161408D01*
X0221424Y0165812D02*
X0221424Y0152000D01*
X0232220Y0152967D02*
X0232987Y0152200D01*
X0233754Y0152200D01*
X0234522Y0152967D01*
X0234522Y0154502D01*
X0235289Y0155269D01*
X0236056Y0155269D01*
X0236824Y0154502D01*
X0236824Y0152967D01*
X0236056Y0152200D01*
X0232220Y0152967D02*
X0232220Y0154502D01*
X0232987Y0155269D01*
X0232220Y0156804D02*
X0232220Y0159873D01*
X0232220Y0158339D02*
X0236824Y0158339D01*
X0236824Y0161408D02*
X0232220Y0161408D01*
X0232220Y0164477D01*
X0232220Y0166012D02*
X0232220Y0168314D01*
X0232987Y0169081D01*
X0234522Y0169081D01*
X0235289Y0168314D01*
X0235289Y0166012D01*
X0236824Y0166012D02*
X0232220Y0166012D01*
X0234522Y0162942D02*
X0234522Y0161408D01*
X0236824Y0161408D02*
X0236824Y0164477D01*
X0242220Y0162175D02*
X0242220Y0159873D01*
X0246824Y0159873D01*
X0246824Y0158339D02*
X0246824Y0156804D01*
X0246824Y0157571D02*
X0242220Y0157571D01*
X0242220Y0156804D02*
X0242220Y0158339D01*
X0242987Y0155269D02*
X0242220Y0154502D01*
X0242220Y0152200D01*
X0246824Y0152200D01*
X0246824Y0154502D01*
X0246056Y0155269D01*
X0242987Y0155269D01*
X0245289Y0159873D02*
X0245289Y0162175D01*
X0244522Y0162942D01*
X0242987Y0162942D01*
X0242220Y0162175D01*
X0245289Y0161408D02*
X0246824Y0162942D01*
X0252720Y0163571D02*
X0252720Y0165106D01*
X0253487Y0165873D01*
X0256556Y0165873D01*
X0257324Y0165106D01*
X0257324Y0163571D01*
X0256556Y0162804D01*
X0253487Y0162804D01*
X0252720Y0163571D01*
X0252720Y0161269D02*
X0257324Y0161269D01*
X0257324Y0158200D02*
X0252720Y0158200D01*
X0254254Y0159735D01*
X0252720Y0161269D01*
X0252720Y0167408D02*
X0252720Y0170477D01*
X0252720Y0168942D02*
X0257324Y0168942D01*
X0256556Y0172012D02*
X0257324Y0172779D01*
X0257324Y0174314D01*
X0256556Y0175081D01*
X0253487Y0175081D01*
X0252720Y0174314D01*
X0252720Y0172779D01*
X0253487Y0172012D01*
X0256556Y0172012D01*
X0255789Y0176616D02*
X0255789Y0178918D01*
X0255022Y0179685D01*
X0253487Y0179685D01*
X0252720Y0178918D01*
X0252720Y0176616D01*
X0257324Y0176616D01*
X0255789Y0178150D02*
X0257324Y0179685D01*
X0257324Y0181220D02*
X0254254Y0184289D01*
X0253487Y0184289D01*
X0252720Y0183522D01*
X0252720Y0181987D01*
X0253487Y0181220D01*
X0257324Y0181220D02*
X0257324Y0184289D01*
X0196824Y0152200D02*
X0192220Y0152200D01*
X0176824Y0152200D02*
X0176824Y0155269D01*
X0176824Y0156804D02*
X0172220Y0156804D01*
X0176824Y0159873D01*
X0172220Y0159873D01*
X0171424Y0161208D02*
X0171424Y0152000D01*
X0172220Y0152200D02*
X0176824Y0152200D01*
X0174522Y0152200D02*
X0174522Y0153735D01*
X0172220Y0155269D02*
X0172220Y0152200D01*
X0125324Y0184200D02*
X0122254Y0184200D01*
X0120720Y0185735D01*
X0122254Y0187269D01*
X0125324Y0187269D01*
X0124556Y0188804D02*
X0121487Y0191873D01*
X0124556Y0191873D01*
X0125324Y0191106D01*
X0125324Y0189571D01*
X0124556Y0188804D01*
X0121487Y0188804D01*
X0120720Y0189571D01*
X0120720Y0191106D01*
X0121487Y0191873D01*
X0123022Y0187269D02*
X0123022Y0184200D01*
X0115324Y0185571D02*
X0115324Y0187873D01*
X0114556Y0189408D02*
X0115324Y0190175D01*
X0115324Y0192477D01*
X0112254Y0192477D02*
X0112254Y0190175D01*
X0113022Y0189408D01*
X0114556Y0189408D01*
X0112254Y0187873D02*
X0112254Y0185571D01*
X0113022Y0184804D01*
X0114556Y0184804D01*
X0115324Y0185571D01*
X0113789Y0183269D02*
X0110720Y0183269D01*
X0113789Y0183269D02*
X0115324Y0181735D01*
X0113789Y0180200D01*
X0110720Y0180200D01*
X0103324Y0180502D02*
X0103324Y0178967D01*
X0102556Y0178200D01*
X0099487Y0178200D01*
X0098720Y0178967D01*
X0098720Y0180502D01*
X0099487Y0181269D01*
X0101022Y0181269D02*
X0101022Y0179735D01*
X0101022Y0181269D02*
X0102556Y0181269D01*
X0103324Y0180502D01*
X0103324Y0182804D02*
X0098720Y0182804D01*
X0103324Y0185873D01*
X0098720Y0185873D01*
X0098720Y0187408D02*
X0098720Y0189710D01*
X0099487Y0190477D01*
X0102556Y0190477D01*
X0103324Y0189710D01*
X0103324Y0187408D01*
X0098720Y0187408D01*
X0098487Y0164665D02*
X0097720Y0163898D01*
X0097720Y0161596D01*
X0102324Y0161596D01*
X0102324Y0163898D01*
X0101556Y0164665D01*
X0098487Y0164665D01*
X0097720Y0160061D02*
X0102324Y0160061D01*
X0097720Y0156992D01*
X0102324Y0156992D01*
X0101556Y0155457D02*
X0100022Y0155457D01*
X0100022Y0153923D01*
X0101556Y0155457D02*
X0102324Y0154690D01*
X0102324Y0153156D01*
X0101556Y0152388D01*
X0098487Y0152388D01*
X0097720Y0153156D01*
X0097720Y0154690D01*
X0098487Y0155457D01*
X0080324Y0141363D02*
X0077254Y0141363D01*
X0077254Y0142898D02*
X0077254Y0143665D01*
X0077254Y0142898D02*
X0078789Y0141363D01*
X0078789Y0139829D02*
X0078789Y0136759D01*
X0079556Y0136759D02*
X0078022Y0136759D01*
X0077254Y0137527D01*
X0077254Y0139061D01*
X0078022Y0139829D01*
X0078789Y0139829D01*
X0080324Y0139061D02*
X0080324Y0137527D01*
X0079556Y0136759D01*
X0079556Y0135225D02*
X0077254Y0135225D01*
X0079556Y0135225D02*
X0080324Y0134457D01*
X0079556Y0133690D01*
X0080324Y0132923D01*
X0079556Y0132155D01*
X0077254Y0132155D01*
X0078022Y0130621D02*
X0077254Y0129854D01*
X0077254Y0128319D01*
X0078022Y0127552D01*
X0079556Y0127552D01*
X0080324Y0128319D01*
X0080324Y0129854D01*
X0079556Y0130621D01*
X0078022Y0130621D01*
X0078022Y0126017D02*
X0079556Y0126017D01*
X0080324Y0125250D01*
X0080324Y0122948D01*
X0081858Y0122948D02*
X0077254Y0122948D01*
X0077254Y0125250D01*
X0078022Y0126017D01*
X0078789Y0121413D02*
X0075720Y0121413D01*
X0078789Y0121413D02*
X0080324Y0119878D01*
X0078789Y0118344D01*
X0075720Y0118344D01*
X0096220Y0115665D02*
X0096220Y0112596D01*
X0096220Y0114131D02*
X0100824Y0114131D01*
X0100056Y0111061D02*
X0096987Y0111061D01*
X0096220Y0110294D01*
X0096220Y0108759D01*
X0096987Y0107992D01*
X0100056Y0107992D01*
X0100824Y0108759D01*
X0100824Y0110294D01*
X0100056Y0111061D01*
X0100824Y0106457D02*
X0096220Y0106457D01*
X0097754Y0104923D01*
X0096220Y0103388D01*
X0100824Y0103388D01*
X0099289Y0101854D02*
X0096220Y0101854D01*
X0099289Y0101854D02*
X0100824Y0100319D01*
X0099289Y0098784D01*
X0096220Y0098784D01*
X0106220Y0104156D02*
X0106220Y0105690D01*
X0106987Y0106457D01*
X0108522Y0106457D02*
X0108522Y0104923D01*
X0108522Y0106457D02*
X0110056Y0106457D01*
X0110824Y0105690D01*
X0110824Y0104156D01*
X0110056Y0103388D01*
X0106987Y0103388D01*
X0106220Y0104156D01*
X0106220Y0107992D02*
X0110824Y0111061D01*
X0106220Y0111061D01*
X0106220Y0112596D02*
X0106220Y0114898D01*
X0106987Y0115665D01*
X0110056Y0115665D01*
X0110824Y0114898D01*
X0110824Y0112596D01*
X0106220Y0112596D01*
X0106220Y0107992D02*
X0110824Y0107992D01*
X0116220Y0107992D02*
X0116220Y0110294D01*
X0116987Y0111061D01*
X0117754Y0111061D01*
X0118522Y0110294D01*
X0118522Y0107992D01*
X0120824Y0107992D02*
X0116220Y0107992D01*
X0118522Y0110294D02*
X0119289Y0111061D01*
X0120056Y0111061D01*
X0120824Y0110294D01*
X0120824Y0107992D01*
X0126220Y0107992D02*
X0126220Y0110294D01*
X0126987Y0111061D01*
X0127754Y0111061D01*
X0128522Y0110294D01*
X0128522Y0107992D01*
X0130824Y0107992D02*
X0130824Y0110294D01*
X0130056Y0111061D01*
X0129289Y0111061D01*
X0128522Y0110294D01*
X0127754Y0112596D02*
X0126220Y0114131D01*
X0130824Y0114131D01*
X0130824Y0115665D02*
X0130824Y0112596D01*
X0136220Y0114131D02*
X0140824Y0114131D01*
X0140824Y0115665D02*
X0140824Y0112596D01*
X0140824Y0111061D02*
X0137754Y0111061D01*
X0136220Y0109527D01*
X0137754Y0107992D01*
X0140824Y0107992D01*
X0138522Y0107992D02*
X0138522Y0111061D01*
X0137754Y0112596D02*
X0136220Y0114131D01*
X0130824Y0107992D02*
X0126220Y0107992D01*
X0126471Y0103804D02*
X0127239Y0103037D01*
X0127239Y0101502D01*
X0126471Y0100735D01*
X0124169Y0100735D01*
X0124169Y0099200D02*
X0124169Y0103804D01*
X0126471Y0103804D01*
X0128773Y0101502D02*
X0128773Y0099967D01*
X0129541Y0099200D01*
X0131075Y0099200D01*
X0131843Y0099967D01*
X0131843Y0101502D01*
X0131075Y0102269D01*
X0129541Y0102269D01*
X0128773Y0101502D01*
X0133377Y0103804D02*
X0134144Y0103804D01*
X0134144Y0099200D01*
X0133377Y0099200D02*
X0134912Y0099200D01*
X0136446Y0099967D02*
X0137214Y0099200D01*
X0138748Y0099200D01*
X0139516Y0099967D01*
X0139516Y0101502D01*
X0138748Y0102269D01*
X0137214Y0102269D01*
X0136446Y0101502D01*
X0136446Y0099967D01*
X0141050Y0099200D02*
X0142585Y0099200D01*
X0141818Y0099200D02*
X0141818Y0103804D01*
X0141050Y0103804D01*
X0144120Y0102269D02*
X0144120Y0099967D01*
X0144887Y0099200D01*
X0147189Y0099200D01*
X0147189Y0102269D01*
X0147754Y0107992D02*
X0146220Y0109527D01*
X0147754Y0111061D01*
X0150824Y0111061D01*
X0150824Y0112596D02*
X0147754Y0115665D01*
X0146987Y0115665D01*
X0146220Y0114898D01*
X0146220Y0113363D01*
X0146987Y0112596D01*
X0148522Y0111061D02*
X0148522Y0107992D01*
X0147754Y0107992D02*
X0150824Y0107992D01*
X0156220Y0107992D02*
X0160824Y0107992D01*
X0160824Y0111061D01*
X0160824Y0114131D02*
X0156220Y0114131D01*
X0156220Y0115665D02*
X0156220Y0112596D01*
X0155424Y0117000D02*
X0155424Y0103188D01*
X0156220Y0103388D02*
X0156220Y0106457D01*
X0158522Y0104923D02*
X0158522Y0103388D01*
X0160824Y0103388D02*
X0156220Y0103388D01*
X0166220Y0104156D02*
X0166987Y0103388D01*
X0170056Y0103388D01*
X0170824Y0104156D01*
X0170824Y0105690D01*
X0170056Y0106457D01*
X0168522Y0106457D01*
X0168522Y0104923D01*
X0166987Y0106457D02*
X0166220Y0105690D01*
X0166220Y0104156D01*
X0166220Y0107992D02*
X0170824Y0111061D01*
X0166220Y0111061D01*
X0166220Y0112596D02*
X0166220Y0114898D01*
X0166987Y0115665D01*
X0170056Y0115665D01*
X0170824Y0114898D01*
X0170824Y0112596D01*
X0166220Y0112596D01*
X0166220Y0107992D02*
X0170824Y0107992D01*
X0177720Y0105131D02*
X0182324Y0105131D01*
X0182324Y0106665D02*
X0182324Y0103596D01*
X0182324Y0102061D02*
X0180789Y0100527D01*
X0180789Y0101294D02*
X0180789Y0098992D01*
X0182324Y0098992D02*
X0177720Y0098992D01*
X0177720Y0101294D01*
X0178487Y0102061D01*
X0180022Y0102061D01*
X0180789Y0101294D01*
X0179254Y0103596D02*
X0177720Y0105131D01*
X0178487Y0097457D02*
X0177720Y0096690D01*
X0177720Y0095155D01*
X0178487Y0094388D01*
X0181556Y0094388D01*
X0182324Y0095155D01*
X0182324Y0096690D01*
X0181556Y0097457D01*
X0178487Y0097457D01*
X0177720Y0092854D02*
X0177720Y0089784D01*
X0177720Y0091319D02*
X0182324Y0091319D01*
X0181556Y0088250D02*
X0178487Y0088250D01*
X0177720Y0087482D01*
X0177720Y0085948D01*
X0178487Y0085180D01*
X0181556Y0085180D01*
X0182324Y0085948D01*
X0182324Y0087482D01*
X0181556Y0088250D01*
X0182324Y0083646D02*
X0177720Y0083646D01*
X0179254Y0082111D01*
X0177720Y0080576D01*
X0182324Y0080576D01*
X0170824Y0079502D02*
X0170056Y0080269D01*
X0166987Y0080269D01*
X0166220Y0079502D01*
X0166220Y0077200D01*
X0170824Y0077200D01*
X0170824Y0079502D01*
X0170824Y0081804D02*
X0170824Y0083339D01*
X0170824Y0082571D02*
X0166220Y0082571D01*
X0166220Y0081804D02*
X0166220Y0083339D01*
X0166220Y0084873D02*
X0166220Y0087175D01*
X0166987Y0087942D01*
X0168522Y0087942D01*
X0169289Y0087175D01*
X0169289Y0084873D01*
X0170824Y0084873D02*
X0166220Y0084873D01*
X0169289Y0086408D02*
X0170824Y0087942D01*
X0160824Y0086408D02*
X0160824Y0089477D01*
X0160824Y0091012D02*
X0156220Y0091012D01*
X0156220Y0093314D01*
X0156987Y0094081D01*
X0158522Y0094081D01*
X0159289Y0093314D01*
X0159289Y0091012D01*
X0158522Y0087942D02*
X0158522Y0086408D01*
X0156220Y0086408D02*
X0160824Y0086408D01*
X0160824Y0083339D02*
X0156220Y0083339D01*
X0156220Y0084873D02*
X0156220Y0081804D01*
X0156987Y0080269D02*
X0156220Y0079502D01*
X0156220Y0077967D01*
X0156987Y0077200D01*
X0157754Y0077200D01*
X0158522Y0077967D01*
X0158522Y0079502D01*
X0159289Y0080269D01*
X0160056Y0080269D01*
X0160824Y0079502D01*
X0160824Y0077967D01*
X0160056Y0077200D01*
X0150824Y0077967D02*
X0150056Y0077200D01*
X0150824Y0077967D02*
X0150824Y0079502D01*
X0150056Y0080269D01*
X0149289Y0080269D01*
X0148522Y0079502D01*
X0148522Y0077967D01*
X0147754Y0077200D01*
X0146987Y0077200D01*
X0146220Y0077967D01*
X0146220Y0079502D01*
X0146987Y0080269D01*
X0146220Y0081804D02*
X0150824Y0081804D01*
X0150824Y0084873D01*
X0150824Y0086408D02*
X0146220Y0086408D01*
X0146220Y0088710D01*
X0146987Y0089477D01*
X0148522Y0089477D01*
X0149289Y0088710D01*
X0149289Y0086408D01*
X0156220Y0086408D02*
X0156220Y0089477D01*
X0145424Y0090812D02*
X0145424Y0077000D01*
X0140824Y0077200D02*
X0140824Y0078735D01*
X0140824Y0077967D02*
X0136220Y0077967D01*
X0136220Y0077200D02*
X0136220Y0078735D01*
X0136987Y0080269D02*
X0136220Y0081037D01*
X0136220Y0082571D01*
X0136987Y0083339D01*
X0137754Y0083339D01*
X0140824Y0080269D01*
X0140824Y0083339D01*
X0130824Y0083339D02*
X0130824Y0080269D01*
X0130824Y0078735D02*
X0130824Y0077200D01*
X0130824Y0077967D02*
X0126220Y0077967D01*
X0126220Y0077200D02*
X0126220Y0078735D01*
X0127754Y0080269D02*
X0126220Y0081804D01*
X0130824Y0081804D01*
X0120824Y0082571D02*
X0120056Y0081804D01*
X0120824Y0082571D02*
X0120824Y0084106D01*
X0120056Y0084873D01*
X0119289Y0084873D01*
X0118522Y0084106D01*
X0118522Y0082571D01*
X0117754Y0081804D01*
X0116987Y0081804D01*
X0116220Y0082571D01*
X0116220Y0084106D01*
X0116987Y0084873D01*
X0116987Y0086408D02*
X0116220Y0087175D01*
X0116220Y0088710D01*
X0116987Y0089477D01*
X0117754Y0089477D01*
X0120824Y0086408D01*
X0120824Y0089477D01*
X0124169Y0091700D02*
X0127239Y0094769D01*
X0127239Y0095537D01*
X0126471Y0096304D01*
X0124937Y0096304D01*
X0124169Y0095537D01*
X0128773Y0095537D02*
X0128773Y0094769D01*
X0129541Y0094002D01*
X0131843Y0094002D01*
X0133377Y0094002D02*
X0135679Y0094002D01*
X0136446Y0093235D01*
X0136446Y0092467D01*
X0135679Y0091700D01*
X0134144Y0091700D01*
X0133377Y0092467D01*
X0133377Y0094002D01*
X0134912Y0095537D01*
X0136446Y0096304D01*
X0137981Y0094002D02*
X0140283Y0094002D01*
X0141050Y0093235D01*
X0141050Y0092467D01*
X0140283Y0091700D01*
X0138748Y0091700D01*
X0137981Y0092467D01*
X0137981Y0094002D01*
X0139516Y0095537D01*
X0141050Y0096304D01*
X0131843Y0095537D02*
X0131843Y0092467D01*
X0131075Y0091700D01*
X0129541Y0091700D01*
X0128773Y0092467D01*
X0127239Y0091700D02*
X0124169Y0091700D01*
X0128773Y0095537D02*
X0129541Y0096304D01*
X0131075Y0096304D01*
X0131843Y0095537D01*
X0120824Y0080269D02*
X0116220Y0080269D01*
X0117754Y0078735D01*
X0116220Y0077200D01*
X0120824Y0077200D01*
X0110824Y0077200D02*
X0106220Y0077200D01*
X0107754Y0078735D01*
X0106220Y0080269D01*
X0110824Y0080269D01*
X0110056Y0081804D02*
X0110824Y0082571D01*
X0110824Y0084106D01*
X0110056Y0084873D01*
X0109289Y0084873D01*
X0108522Y0084106D01*
X0108522Y0082571D01*
X0107754Y0081804D01*
X0106987Y0081804D01*
X0106220Y0082571D01*
X0106220Y0084106D01*
X0106987Y0084873D01*
X0107754Y0086408D02*
X0106220Y0087942D01*
X0110824Y0087942D01*
X0110824Y0086408D02*
X0110824Y0089477D01*
X0100824Y0084873D02*
X0096220Y0084873D01*
X0095424Y0086208D02*
X0095424Y0077000D01*
X0096220Y0077200D02*
X0100824Y0077200D01*
X0100824Y0080269D01*
X0100824Y0081804D02*
X0096220Y0081804D01*
X0100824Y0084873D01*
X0096220Y0080269D02*
X0096220Y0077200D01*
X0098522Y0077200D02*
X0098522Y0078735D01*
X0116987Y0112596D02*
X0116220Y0113363D01*
X0116220Y0114898D01*
X0116987Y0115665D01*
X0117754Y0115665D01*
X0120824Y0112596D01*
X0120824Y0115665D01*
X0150824Y0115665D02*
X0150824Y0112596D01*
X0219424Y0079208D02*
X0219424Y0070000D01*
X0220220Y0070200D02*
X0220220Y0073269D01*
X0220220Y0074804D02*
X0224824Y0077873D01*
X0220220Y0077873D01*
X0220220Y0074804D02*
X0224824Y0074804D01*
X0224824Y0073269D02*
X0224824Y0070200D01*
X0220220Y0070200D01*
X0222522Y0070200D02*
X0222522Y0071735D01*
X0230220Y0073269D02*
X0234824Y0073269D01*
X0234056Y0074804D02*
X0234824Y0075571D01*
X0234824Y0077106D01*
X0234056Y0077873D01*
X0233289Y0077873D01*
X0232522Y0077106D01*
X0232522Y0075571D01*
X0231754Y0074804D01*
X0230987Y0074804D01*
X0230220Y0075571D01*
X0230220Y0077106D01*
X0230987Y0077873D01*
X0231754Y0079408D02*
X0230220Y0080942D01*
X0234824Y0080942D01*
X0234824Y0079408D02*
X0234824Y0082477D01*
X0240220Y0081710D02*
X0240220Y0080175D01*
X0240987Y0079408D01*
X0240987Y0077873D02*
X0240220Y0077106D01*
X0240220Y0075571D01*
X0240987Y0074804D01*
X0241754Y0074804D01*
X0242522Y0075571D01*
X0242522Y0077106D01*
X0243289Y0077873D01*
X0244056Y0077873D01*
X0244824Y0077106D01*
X0244824Y0075571D01*
X0244056Y0074804D01*
X0244824Y0073269D02*
X0240220Y0073269D01*
X0241754Y0071735D01*
X0240220Y0070200D01*
X0244824Y0070200D01*
X0250220Y0070200D02*
X0250220Y0071735D01*
X0250220Y0070967D02*
X0254824Y0070967D01*
X0254824Y0070200D02*
X0254824Y0071735D01*
X0254824Y0073269D02*
X0254824Y0076339D01*
X0254824Y0074804D02*
X0250220Y0074804D01*
X0251754Y0073269D01*
X0260220Y0074037D02*
X0260987Y0073269D01*
X0260220Y0074037D02*
X0260220Y0075571D01*
X0260987Y0076339D01*
X0261754Y0076339D01*
X0264824Y0073269D01*
X0264824Y0076339D01*
X0270220Y0074804D02*
X0274824Y0074804D01*
X0274824Y0077873D01*
X0274824Y0079408D02*
X0270220Y0079408D01*
X0270220Y0081710D01*
X0270987Y0082477D01*
X0272522Y0082477D01*
X0273289Y0081710D01*
X0273289Y0079408D01*
X0269424Y0083812D02*
X0269424Y0070000D01*
X0270220Y0070967D02*
X0270987Y0070200D01*
X0271754Y0070200D01*
X0272522Y0070967D01*
X0272522Y0072502D01*
X0273289Y0073269D01*
X0274056Y0073269D01*
X0274824Y0072502D01*
X0274824Y0070967D01*
X0274056Y0070200D01*
X0270220Y0070967D02*
X0270220Y0072502D01*
X0270987Y0073269D01*
X0264824Y0071735D02*
X0264824Y0070200D01*
X0264824Y0070967D02*
X0260220Y0070967D01*
X0260220Y0070200D02*
X0260220Y0071735D01*
X0244824Y0079408D02*
X0241754Y0082477D01*
X0240987Y0082477D01*
X0240220Y0081710D01*
X0244824Y0082477D02*
X0244824Y0079408D01*
X0234824Y0070200D02*
X0230220Y0070200D01*
X0231754Y0071735D01*
X0230220Y0073269D01*
X0223289Y0091784D02*
X0220220Y0091784D01*
X0223289Y0091784D02*
X0224824Y0093319D01*
X0223289Y0094854D01*
X0220220Y0094854D01*
X0220220Y0096388D02*
X0221754Y0097923D01*
X0220220Y0099457D01*
X0224824Y0099457D01*
X0224056Y0100992D02*
X0220987Y0100992D01*
X0220220Y0101759D01*
X0220220Y0103294D01*
X0220987Y0104061D01*
X0224056Y0104061D01*
X0224824Y0103294D01*
X0224824Y0101759D01*
X0224056Y0100992D01*
X0230220Y0100992D02*
X0234824Y0104061D01*
X0230220Y0104061D01*
X0230220Y0105596D02*
X0230220Y0107898D01*
X0230987Y0108665D01*
X0234056Y0108665D01*
X0234824Y0107898D01*
X0234824Y0105596D01*
X0230220Y0105596D01*
X0224824Y0107131D02*
X0220220Y0107131D01*
X0220220Y0108665D02*
X0220220Y0105596D01*
X0230220Y0100992D02*
X0234824Y0100992D01*
X0234056Y0099457D02*
X0232522Y0099457D01*
X0232522Y0097923D01*
X0234056Y0099457D02*
X0234824Y0098690D01*
X0234824Y0097156D01*
X0234056Y0096388D01*
X0230987Y0096388D01*
X0230220Y0097156D01*
X0230220Y0098690D01*
X0230987Y0099457D01*
X0224824Y0096388D02*
X0220220Y0096388D01*
X0240220Y0100992D02*
X0240220Y0103294D01*
X0240987Y0104061D01*
X0241754Y0104061D01*
X0242522Y0103294D01*
X0242522Y0100992D01*
X0244824Y0100992D02*
X0244824Y0103294D01*
X0244056Y0104061D01*
X0243289Y0104061D01*
X0242522Y0103294D01*
X0240987Y0105596D02*
X0240220Y0106363D01*
X0240220Y0107898D01*
X0240987Y0108665D01*
X0241754Y0108665D01*
X0244824Y0105596D01*
X0244824Y0108665D01*
X0250220Y0107131D02*
X0251754Y0105596D01*
X0251754Y0104061D02*
X0252522Y0103294D01*
X0252522Y0100992D01*
X0254824Y0100992D02*
X0250220Y0100992D01*
X0250220Y0103294D01*
X0250987Y0104061D01*
X0251754Y0104061D01*
X0252522Y0103294D02*
X0253289Y0104061D01*
X0254056Y0104061D01*
X0254824Y0103294D01*
X0254824Y0100992D01*
X0260220Y0102527D02*
X0261754Y0104061D01*
X0264824Y0104061D01*
X0264824Y0105596D02*
X0264824Y0108665D01*
X0264824Y0107131D02*
X0260220Y0107131D01*
X0261754Y0105596D01*
X0262522Y0104061D02*
X0262522Y0100992D01*
X0261754Y0100992D02*
X0260220Y0102527D01*
X0261754Y0100992D02*
X0264824Y0100992D01*
X0270220Y0102527D02*
X0271754Y0104061D01*
X0274824Y0104061D01*
X0274824Y0105596D02*
X0271754Y0108665D01*
X0270987Y0108665D01*
X0270220Y0107898D01*
X0270220Y0106363D01*
X0270987Y0105596D01*
X0272522Y0104061D02*
X0272522Y0100992D01*
X0271754Y0100992D02*
X0270220Y0102527D01*
X0271754Y0100992D02*
X0274824Y0100992D01*
X0274824Y0105596D02*
X0274824Y0108665D01*
X0279424Y0110000D02*
X0279424Y0096188D01*
X0280220Y0096388D02*
X0280220Y0099457D01*
X0280220Y0100992D02*
X0284824Y0100992D01*
X0284824Y0104061D01*
X0280220Y0105596D02*
X0280220Y0108665D01*
X0280220Y0107131D02*
X0284824Y0107131D01*
X0290220Y0107898D02*
X0290220Y0105596D01*
X0294824Y0105596D01*
X0294824Y0107898D01*
X0294056Y0108665D01*
X0290987Y0108665D01*
X0290220Y0107898D01*
X0290220Y0104061D02*
X0294824Y0104061D01*
X0290220Y0100992D01*
X0294824Y0100992D01*
X0294056Y0099457D02*
X0292522Y0099457D01*
X0292522Y0097923D01*
X0294056Y0099457D02*
X0294824Y0098690D01*
X0294824Y0097156D01*
X0294056Y0096388D01*
X0290987Y0096388D01*
X0290220Y0097156D01*
X0290220Y0098690D01*
X0290987Y0099457D01*
X0284824Y0096388D02*
X0280220Y0096388D01*
X0282522Y0096388D02*
X0282522Y0097923D01*
X0282522Y0087081D02*
X0283289Y0086314D01*
X0283289Y0084012D01*
X0284824Y0084012D02*
X0280220Y0084012D01*
X0280220Y0086314D01*
X0280987Y0087081D01*
X0282522Y0087081D01*
X0284824Y0082477D02*
X0284824Y0079408D01*
X0280220Y0079408D01*
X0280220Y0082477D01*
X0282522Y0080942D02*
X0282522Y0079408D01*
X0280220Y0077873D02*
X0280220Y0074804D01*
X0280220Y0076339D02*
X0284824Y0076339D01*
X0284056Y0073269D02*
X0284824Y0072502D01*
X0284824Y0070967D01*
X0284056Y0070200D01*
X0282522Y0070967D02*
X0282522Y0072502D01*
X0283289Y0073269D01*
X0284056Y0073269D01*
X0282522Y0070967D02*
X0281754Y0070200D01*
X0280987Y0070200D01*
X0280220Y0070967D01*
X0280220Y0072502D01*
X0280987Y0073269D01*
X0290220Y0072502D02*
X0290220Y0070200D01*
X0294824Y0070200D01*
X0294824Y0072502D01*
X0294056Y0073269D01*
X0290987Y0073269D01*
X0290220Y0072502D01*
X0290220Y0074804D02*
X0290220Y0076339D01*
X0290220Y0075571D02*
X0294824Y0075571D01*
X0294824Y0074804D02*
X0294824Y0076339D01*
X0294824Y0077873D02*
X0290220Y0077873D01*
X0290220Y0080175D01*
X0290987Y0080942D01*
X0292522Y0080942D01*
X0293289Y0080175D01*
X0293289Y0077873D01*
X0293289Y0079408D02*
X0294824Y0080942D01*
X0298720Y0081646D02*
X0303324Y0081646D01*
X0302556Y0083180D02*
X0299487Y0083180D01*
X0298720Y0083948D01*
X0298720Y0085482D01*
X0299487Y0086250D01*
X0302556Y0086250D01*
X0303324Y0085482D01*
X0303324Y0083948D01*
X0302556Y0083180D01*
X0300254Y0080111D02*
X0298720Y0081646D01*
X0300254Y0080111D02*
X0298720Y0078576D01*
X0303324Y0078576D01*
X0298720Y0087784D02*
X0298720Y0090854D01*
X0298720Y0089319D02*
X0303324Y0089319D01*
X0302556Y0092388D02*
X0299487Y0092388D01*
X0298720Y0093155D01*
X0298720Y0094690D01*
X0299487Y0095457D01*
X0302556Y0095457D01*
X0303324Y0094690D01*
X0303324Y0093155D01*
X0302556Y0092388D01*
X0301789Y0096992D02*
X0301789Y0099294D01*
X0301022Y0100061D01*
X0299487Y0100061D01*
X0298720Y0099294D01*
X0298720Y0096992D01*
X0303324Y0096992D01*
X0301789Y0098527D02*
X0303324Y0100061D01*
X0302556Y0101596D02*
X0303324Y0102363D01*
X0303324Y0103898D01*
X0302556Y0104665D01*
X0301789Y0104665D01*
X0301022Y0103898D01*
X0301022Y0103131D01*
X0301022Y0103898D02*
X0300254Y0104665D01*
X0299487Y0104665D01*
X0298720Y0103898D01*
X0298720Y0102363D01*
X0299487Y0101596D01*
X0334720Y0120200D02*
X0336254Y0121735D01*
X0334720Y0123269D01*
X0339324Y0123269D01*
X0338556Y0124804D02*
X0339324Y0125571D01*
X0339324Y0127106D01*
X0338556Y0127873D01*
X0335487Y0127873D01*
X0334720Y0127106D01*
X0334720Y0125571D01*
X0335487Y0124804D01*
X0338556Y0124804D01*
X0334720Y0129408D02*
X0334720Y0132477D01*
X0334720Y0130942D02*
X0339324Y0130942D01*
X0338556Y0134012D02*
X0339324Y0134779D01*
X0339324Y0136314D01*
X0338556Y0137081D01*
X0335487Y0137081D01*
X0334720Y0136314D01*
X0334720Y0134779D01*
X0335487Y0134012D01*
X0338556Y0134012D01*
X0337789Y0138616D02*
X0337789Y0140918D01*
X0337022Y0141685D01*
X0335487Y0141685D01*
X0334720Y0140918D01*
X0334720Y0138616D01*
X0339324Y0138616D01*
X0337789Y0140150D02*
X0339324Y0141685D01*
X0339324Y0143220D02*
X0336254Y0146289D01*
X0335487Y0146289D01*
X0334720Y0145522D01*
X0334720Y0143987D01*
X0335487Y0143220D01*
X0339324Y0143220D02*
X0339324Y0146289D01*
X0339324Y0120200D02*
X0334720Y0120200D01*
X0339487Y0092665D02*
X0340254Y0092665D01*
X0341022Y0091898D01*
X0341789Y0092665D01*
X0342556Y0092665D01*
X0343324Y0091898D01*
X0343324Y0090363D01*
X0342556Y0089596D01*
X0343324Y0088061D02*
X0341789Y0086527D01*
X0341789Y0087294D02*
X0341789Y0084992D01*
X0343324Y0084992D02*
X0338720Y0084992D01*
X0338720Y0087294D01*
X0339487Y0088061D01*
X0341022Y0088061D01*
X0341789Y0087294D01*
X0339487Y0089596D02*
X0338720Y0090363D01*
X0338720Y0091898D01*
X0339487Y0092665D01*
X0341022Y0091898D02*
X0341022Y0091131D01*
X0342556Y0083457D02*
X0339487Y0083457D01*
X0338720Y0082690D01*
X0338720Y0081155D01*
X0339487Y0080388D01*
X0342556Y0080388D01*
X0343324Y0081155D01*
X0343324Y0082690D01*
X0342556Y0083457D01*
X0338720Y0078854D02*
X0338720Y0075784D01*
X0338720Y0077319D02*
X0343324Y0077319D01*
X0342556Y0074250D02*
X0339487Y0074250D01*
X0338720Y0073482D01*
X0338720Y0071948D01*
X0339487Y0071180D01*
X0342556Y0071180D01*
X0343324Y0071948D01*
X0343324Y0073482D01*
X0342556Y0074250D01*
X0343324Y0069646D02*
X0338720Y0069646D01*
X0340254Y0068111D01*
X0338720Y0066576D01*
X0343324Y0066576D01*
X0336624Y0056804D02*
X0336624Y0052200D01*
X0334322Y0052200D01*
X0333555Y0052967D01*
X0333555Y0054502D01*
X0334322Y0055269D01*
X0336624Y0055269D01*
X0332020Y0054502D02*
X0332020Y0053735D01*
X0328951Y0053735D01*
X0328951Y0054502D02*
X0329718Y0055269D01*
X0331253Y0055269D01*
X0332020Y0054502D01*
X0331253Y0052200D02*
X0329718Y0052200D01*
X0328951Y0052967D01*
X0328951Y0054502D01*
X0327416Y0055269D02*
X0325882Y0052200D01*
X0324347Y0055269D01*
X0322813Y0054502D02*
X0322045Y0055269D01*
X0320511Y0055269D01*
X0319743Y0054502D01*
X0319743Y0052967D01*
X0320511Y0052200D01*
X0322045Y0052200D01*
X0322813Y0052967D01*
X0322813Y0054502D01*
X0318209Y0054502D02*
X0318209Y0052200D01*
X0316674Y0052200D02*
X0316674Y0054502D01*
X0317441Y0055269D01*
X0318209Y0054502D01*
X0316674Y0054502D02*
X0315907Y0055269D01*
X0315139Y0055269D01*
X0315139Y0052200D01*
X0318976Y0049304D02*
X0320511Y0047769D01*
X0320511Y0044700D01*
X0322045Y0045467D02*
X0322813Y0044700D01*
X0324347Y0044700D01*
X0325114Y0045467D01*
X0325114Y0048537D01*
X0322045Y0045467D01*
X0322045Y0048537D01*
X0322813Y0049304D01*
X0324347Y0049304D01*
X0325114Y0048537D01*
X0320511Y0047002D02*
X0317441Y0047002D01*
X0317441Y0047769D02*
X0317441Y0044700D01*
X0317441Y0040269D02*
X0318976Y0037200D01*
X0320511Y0040269D01*
X0322045Y0041037D02*
X0322813Y0041804D01*
X0324347Y0041804D01*
X0325114Y0041037D01*
X0325114Y0040269D01*
X0322045Y0037200D01*
X0325114Y0037200D01*
X0324088Y0033804D02*
X0322554Y0033804D01*
X0321786Y0033037D01*
X0321786Y0029967D01*
X0324856Y0033037D01*
X0324856Y0029967D01*
X0324088Y0029200D01*
X0322554Y0029200D01*
X0321786Y0029967D01*
X0320252Y0029200D02*
X0317183Y0029200D01*
X0320252Y0032269D01*
X0320252Y0033037D01*
X0319484Y0033804D01*
X0317950Y0033804D01*
X0317183Y0033037D01*
X0311044Y0032269D02*
X0311044Y0028433D01*
X0310277Y0027665D01*
X0309509Y0027665D01*
X0308742Y0029200D02*
X0311044Y0029200D01*
X0308742Y0029200D02*
X0307975Y0029967D01*
X0307975Y0032269D01*
X0306440Y0032269D02*
X0305673Y0032269D01*
X0304138Y0030735D01*
X0304138Y0032269D02*
X0304138Y0029200D01*
X0302603Y0029200D02*
X0300301Y0029200D01*
X0299534Y0029967D01*
X0300301Y0030735D01*
X0302603Y0030735D01*
X0302603Y0031502D02*
X0302603Y0029200D01*
X0302603Y0031502D02*
X0301836Y0032269D01*
X0300301Y0032269D01*
X0298000Y0032269D02*
X0298000Y0029200D01*
X0295698Y0029200D01*
X0294930Y0029967D01*
X0294930Y0032269D01*
X0293396Y0031502D02*
X0293396Y0029200D01*
X0293396Y0031502D02*
X0292628Y0032269D01*
X0290326Y0032269D01*
X0290326Y0029200D01*
X0288792Y0029200D02*
X0288792Y0031502D01*
X0288024Y0032269D01*
X0286490Y0032269D01*
X0286490Y0030735D02*
X0288792Y0030735D01*
X0288792Y0029200D02*
X0286490Y0029200D01*
X0285722Y0029967D01*
X0286490Y0030735D01*
X0284188Y0032269D02*
X0284188Y0028433D01*
X0283420Y0027665D01*
X0282653Y0027665D01*
X0276515Y0029967D02*
X0275747Y0029200D01*
X0274213Y0029200D01*
X0273445Y0029967D01*
X0274980Y0031502D02*
X0275747Y0031502D01*
X0276515Y0030735D01*
X0276515Y0029967D01*
X0275747Y0031502D02*
X0276515Y0032269D01*
X0276515Y0033037D01*
X0275747Y0033804D01*
X0274213Y0033804D01*
X0273445Y0033037D01*
X0271911Y0032269D02*
X0270376Y0029200D01*
X0268841Y0032269D01*
X0267307Y0031502D02*
X0264237Y0031502D01*
X0262703Y0032269D02*
X0261935Y0032269D01*
X0260401Y0030735D01*
X0260401Y0032269D02*
X0260401Y0029200D01*
X0258866Y0030735D02*
X0255797Y0030735D01*
X0255797Y0031502D02*
X0256564Y0032269D01*
X0258099Y0032269D01*
X0258866Y0031502D01*
X0258866Y0030735D01*
X0258099Y0029200D02*
X0256564Y0029200D01*
X0255797Y0029967D01*
X0255797Y0031502D01*
X0254262Y0031502D02*
X0254262Y0029967D01*
X0253495Y0029200D01*
X0251193Y0029200D01*
X0251193Y0027665D02*
X0251193Y0032269D01*
X0253495Y0032269D01*
X0254262Y0031502D01*
X0249658Y0031502D02*
X0249658Y0029967D01*
X0248891Y0029200D01*
X0246589Y0029200D01*
X0246589Y0027665D02*
X0246589Y0032269D01*
X0248891Y0032269D01*
X0249658Y0031502D01*
X0245054Y0031502D02*
X0245054Y0030735D01*
X0241985Y0030735D01*
X0241985Y0031502D02*
X0242752Y0032269D01*
X0244287Y0032269D01*
X0245054Y0031502D01*
X0244287Y0029200D02*
X0242752Y0029200D01*
X0241985Y0029967D01*
X0241985Y0031502D01*
X0240450Y0032269D02*
X0238916Y0032269D01*
X0239683Y0033037D02*
X0239683Y0029967D01*
X0240450Y0029200D01*
X0237381Y0029967D02*
X0236614Y0030735D01*
X0235079Y0030735D01*
X0234312Y0031502D01*
X0235079Y0032269D01*
X0237381Y0032269D01*
X0237381Y0029967D02*
X0236614Y0029200D01*
X0234312Y0029200D01*
X0232777Y0031502D02*
X0229708Y0031502D01*
X0228173Y0032269D02*
X0225104Y0029200D01*
X0228173Y0029200D01*
X0228173Y0032269D02*
X0225104Y0032269D01*
X0223569Y0032269D02*
X0223569Y0028433D01*
X0222802Y0027665D01*
X0222035Y0027665D01*
X0221267Y0029200D02*
X0223569Y0029200D01*
X0221267Y0029200D02*
X0220500Y0029967D01*
X0220500Y0032269D01*
X0218965Y0032269D02*
X0215896Y0029200D01*
X0214362Y0031502D02*
X0211292Y0031502D01*
X0209758Y0031502D02*
X0208990Y0032269D01*
X0207456Y0032269D01*
X0206688Y0031502D01*
X0206688Y0029967D01*
X0207456Y0029200D01*
X0208990Y0029200D01*
X0209758Y0029967D01*
X0209758Y0031502D01*
X0205154Y0031502D02*
X0205154Y0029200D01*
X0205154Y0031502D02*
X0204386Y0032269D01*
X0202084Y0032269D01*
X0202084Y0029200D01*
X0200550Y0029200D02*
X0199015Y0029200D01*
X0199782Y0029200D02*
X0199782Y0032269D01*
X0199015Y0032269D01*
X0197481Y0032269D02*
X0197481Y0029200D01*
X0195179Y0029200D01*
X0194411Y0029967D01*
X0194411Y0032269D01*
X0192877Y0032269D02*
X0190575Y0032269D01*
X0189807Y0031502D01*
X0189807Y0029967D01*
X0190575Y0029200D01*
X0192877Y0029200D01*
X0192877Y0033804D01*
X0188273Y0032269D02*
X0187505Y0032269D01*
X0185971Y0030735D01*
X0185971Y0032269D02*
X0185971Y0029200D01*
X0184436Y0029200D02*
X0182134Y0029200D01*
X0181367Y0029967D01*
X0182134Y0030735D01*
X0184436Y0030735D01*
X0184436Y0031502D02*
X0184436Y0029200D01*
X0184436Y0031502D02*
X0183669Y0032269D01*
X0182134Y0032269D01*
X0179832Y0031502D02*
X0176763Y0031502D01*
X0175228Y0031502D02*
X0175228Y0029967D01*
X0174461Y0029200D01*
X0172926Y0029200D01*
X0172159Y0029967D01*
X0172159Y0031502D02*
X0173694Y0032269D01*
X0174461Y0032269D01*
X0175228Y0031502D01*
X0175228Y0033804D02*
X0172159Y0033804D01*
X0172159Y0031502D01*
X0170624Y0032269D02*
X0169090Y0032269D01*
X0169857Y0033037D02*
X0169857Y0029967D01*
X0170624Y0029200D01*
X0167555Y0029967D02*
X0167555Y0031502D01*
X0166788Y0032269D01*
X0165253Y0032269D01*
X0164486Y0031502D01*
X0164486Y0029967D01*
X0165253Y0029200D01*
X0166788Y0029200D01*
X0167555Y0029967D01*
X0162951Y0029967D02*
X0162184Y0029200D01*
X0159882Y0029200D01*
X0159882Y0033804D01*
X0159882Y0032269D02*
X0162184Y0032269D01*
X0162951Y0031502D01*
X0162951Y0029967D01*
X0158347Y0029967D02*
X0157580Y0029200D01*
X0156045Y0029200D01*
X0155278Y0029967D01*
X0155278Y0031502D01*
X0156045Y0032269D01*
X0157580Y0032269D01*
X0158347Y0031502D01*
X0158347Y0029967D01*
X0153743Y0032269D02*
X0152976Y0032269D01*
X0151441Y0030735D01*
X0151441Y0032269D02*
X0151441Y0029200D01*
X0149907Y0029200D02*
X0149907Y0031502D01*
X0149139Y0032269D01*
X0147605Y0032269D01*
X0146837Y0031502D01*
X0145303Y0032269D02*
X0143001Y0032269D01*
X0142233Y0031502D01*
X0143001Y0030735D01*
X0144535Y0030735D01*
X0145303Y0029967D01*
X0144535Y0029200D01*
X0142233Y0029200D01*
X0140699Y0029200D02*
X0140699Y0031502D01*
X0139931Y0032269D01*
X0138397Y0032269D01*
X0138397Y0030735D02*
X0140699Y0030735D01*
X0140699Y0029200D02*
X0138397Y0029200D01*
X0137630Y0029967D01*
X0138397Y0030735D01*
X0136095Y0032269D02*
X0135328Y0032269D01*
X0133793Y0030735D01*
X0133793Y0032269D02*
X0133793Y0029200D01*
X0132258Y0029200D02*
X0131491Y0029967D01*
X0131491Y0033037D01*
X0130724Y0032269D02*
X0132258Y0032269D01*
X0146837Y0033804D02*
X0146837Y0029200D01*
X0199782Y0033804D02*
X0199782Y0034571D01*
X0215896Y0032269D02*
X0218965Y0029200D01*
X0284188Y0033804D02*
X0284188Y0034571D01*
X0296724Y0039502D02*
X0298258Y0039502D01*
X0297491Y0041037D02*
X0297491Y0037200D01*
X0299793Y0037200D02*
X0299793Y0040269D01*
X0299793Y0038735D02*
X0301328Y0040269D01*
X0302095Y0040269D01*
X0303630Y0039502D02*
X0304397Y0040269D01*
X0305931Y0040269D01*
X0306699Y0039502D01*
X0306699Y0037967D01*
X0305931Y0037200D01*
X0304397Y0037200D01*
X0303630Y0037967D01*
X0303630Y0039502D01*
X0308233Y0040269D02*
X0308233Y0037200D01*
X0309768Y0037200D02*
X0309768Y0039502D01*
X0310535Y0040269D01*
X0311303Y0039502D01*
X0311303Y0037200D01*
X0309768Y0039502D02*
X0309001Y0040269D01*
X0308233Y0040269D01*
X0308233Y0044700D02*
X0308233Y0047769D01*
X0309001Y0047769D01*
X0309768Y0047002D01*
X0310535Y0047769D01*
X0311303Y0047002D01*
X0311303Y0044700D01*
X0309768Y0044700D02*
X0309768Y0047002D01*
X0306699Y0047002D02*
X0305931Y0047769D01*
X0304397Y0047769D01*
X0303630Y0047002D01*
X0303630Y0045467D01*
X0304397Y0044700D01*
X0305931Y0044700D01*
X0306699Y0045467D01*
X0306699Y0047002D01*
X0302095Y0047769D02*
X0301328Y0047769D01*
X0299793Y0046235D01*
X0299793Y0047769D02*
X0299793Y0044700D01*
X0297491Y0044700D02*
X0297491Y0048537D01*
X0298258Y0049304D01*
X0298258Y0047002D02*
X0296724Y0047002D01*
X0296724Y0052200D02*
X0299793Y0052200D01*
X0301328Y0052200D02*
X0301328Y0056804D01*
X0304397Y0052200D01*
X0304397Y0056804D01*
X0305931Y0055269D02*
X0307466Y0056804D01*
X0307466Y0052200D01*
X0305931Y0052200D02*
X0309001Y0052200D01*
X0317441Y0047769D02*
X0318976Y0049304D01*
X0331253Y0047769D02*
X0332788Y0047769D01*
X0332020Y0048537D02*
X0332020Y0045467D01*
X0332788Y0044700D01*
X0334322Y0045467D02*
X0335090Y0044700D01*
X0336624Y0044700D01*
X0337392Y0045467D01*
X0337392Y0047002D01*
X0336624Y0047769D01*
X0335090Y0047769D01*
X0334322Y0047002D01*
X0334322Y0045467D01*
X0343530Y0044700D02*
X0345832Y0044700D01*
X0346599Y0045467D01*
X0346599Y0047002D01*
X0345832Y0047769D01*
X0343530Y0047769D01*
X0343530Y0043165D01*
X0348134Y0044700D02*
X0349669Y0044700D01*
X0348901Y0044700D02*
X0348901Y0047769D01*
X0348134Y0047769D01*
X0348901Y0049304D02*
X0348901Y0050071D01*
X0351203Y0047769D02*
X0353505Y0047769D01*
X0354273Y0047002D01*
X0354273Y0044700D01*
X0351203Y0044700D02*
X0351203Y0047769D01*
X0360411Y0047769D02*
X0361946Y0049304D01*
X0361946Y0044700D01*
X0360411Y0044700D02*
X0363481Y0044700D01*
X0365015Y0045467D02*
X0365782Y0044700D01*
X0367317Y0044700D01*
X0368084Y0045467D01*
X0368084Y0046235D01*
X0367317Y0047002D01*
X0366550Y0047002D01*
X0367317Y0047002D02*
X0368084Y0047769D01*
X0368084Y0048537D01*
X0367317Y0049304D01*
X0365782Y0049304D01*
X0365015Y0048537D01*
X0332529Y0033804D02*
X0332529Y0029200D01*
X0330994Y0029200D02*
X0334064Y0029200D01*
X0330994Y0032269D02*
X0332529Y0033804D01*
X0329460Y0033037D02*
X0329460Y0032269D01*
X0326390Y0029200D01*
X0329460Y0029200D01*
X0329460Y0033037D02*
X0328692Y0033804D01*
X0327158Y0033804D01*
X0326390Y0033037D01*
X0324856Y0033037D02*
X0324088Y0033804D01*
X0298258Y0041804D02*
X0297491Y0041037D01*
X0296724Y0052200D02*
X0296724Y0056804D01*
X0299793Y0056804D01*
X0298258Y0054502D02*
X0296724Y0054502D01*
X0244824Y0100992D02*
X0240220Y0100992D01*
X0250220Y0107131D02*
X0254824Y0107131D01*
X0254824Y0108665D02*
X0254824Y0105596D01*
X0337720Y0180576D02*
X0339254Y0182111D01*
X0337720Y0183646D01*
X0342324Y0183646D01*
X0341556Y0185180D02*
X0342324Y0185948D01*
X0342324Y0187482D01*
X0341556Y0188250D01*
X0338487Y0188250D01*
X0337720Y0187482D01*
X0337720Y0185948D01*
X0338487Y0185180D01*
X0341556Y0185180D01*
X0342324Y0180576D02*
X0337720Y0180576D01*
X0337720Y0189784D02*
X0337720Y0192854D01*
X0337720Y0191319D02*
X0342324Y0191319D01*
X0341556Y0194388D02*
X0338487Y0194388D01*
X0337720Y0195155D01*
X0337720Y0196690D01*
X0338487Y0197457D01*
X0341556Y0197457D01*
X0342324Y0196690D01*
X0342324Y0195155D01*
X0341556Y0194388D01*
X0340789Y0198992D02*
X0340789Y0201294D01*
X0340022Y0202061D01*
X0338487Y0202061D01*
X0337720Y0201294D01*
X0337720Y0198992D01*
X0342324Y0198992D01*
X0340789Y0200527D02*
X0342324Y0202061D01*
X0342324Y0203596D02*
X0342324Y0206665D01*
X0342324Y0205131D02*
X0337720Y0205131D01*
X0339254Y0203596D01*
D12*
X0261493Y0212525D02*
X0259748Y0210779D01*
X0259748Y0214271D01*
X0259311Y0214707D01*
X0258438Y0214707D01*
X0257566Y0213834D01*
X0257566Y0212961D01*
X0256707Y0212103D02*
X0257580Y0211230D01*
X0257580Y0210357D01*
X0256270Y0209048D01*
X0257143Y0209921D02*
X0258889Y0209921D01*
X0257143Y0208175D02*
X0254525Y0210793D01*
X0255834Y0212103D01*
X0256707Y0212103D01*
X0253661Y0209930D02*
X0252788Y0209057D01*
X0253225Y0209494D02*
X0255843Y0206875D01*
X0255407Y0206439D02*
X0256280Y0207312D01*
X0254112Y0206016D02*
X0252366Y0207762D01*
X0251493Y0207762D01*
X0250184Y0206453D01*
X0252803Y0203834D01*
X0254112Y0205144D01*
X0254112Y0206016D01*
X0245493Y0214525D02*
X0243748Y0212779D01*
X0243748Y0216271D01*
X0243311Y0216707D01*
X0242438Y0216707D01*
X0241565Y0215834D01*
X0241566Y0214961D01*
X0240707Y0214103D02*
X0241580Y0213230D01*
X0241580Y0212357D01*
X0240270Y0211048D01*
X0241143Y0210175D02*
X0238525Y0212793D01*
X0239834Y0214103D01*
X0240707Y0214103D01*
X0237666Y0211935D02*
X0235920Y0210189D01*
X0238539Y0207571D01*
X0240285Y0209316D01*
X0238102Y0209753D02*
X0237230Y0208880D01*
X0235062Y0209330D02*
X0233316Y0207585D01*
X0234189Y0208458D02*
X0236807Y0205839D01*
X0234639Y0204544D02*
X0234639Y0203671D01*
X0233767Y0202798D01*
X0232894Y0202798D01*
X0232457Y0204107D02*
X0233330Y0204980D01*
X0234203Y0204980D01*
X0234639Y0204544D01*
X0232457Y0204107D02*
X0231584Y0204107D01*
X0231148Y0204544D01*
X0231148Y0205417D01*
X0232021Y0206290D01*
X0232894Y0206290D01*
X0227143Y0208175D02*
X0224525Y0210793D01*
X0228889Y0209921D01*
X0226270Y0212539D01*
X0227566Y0212961D02*
X0227566Y0213834D01*
X0228438Y0214707D01*
X0229311Y0214707D01*
X0229748Y0214271D01*
X0229748Y0210779D01*
X0231493Y0212525D01*
X0226285Y0207316D02*
X0224539Y0205571D01*
X0221920Y0208189D01*
X0223666Y0209935D01*
X0224102Y0207753D02*
X0223230Y0206880D01*
D13*
X0225024Y0213000D02*
X0220024Y0213000D01*
X0217524Y0215500D01*
X0215024Y0213000D01*
X0210024Y0213000D01*
X0207524Y0215500D01*
X0205024Y0213000D01*
X0200024Y0213000D01*
X0197524Y0215500D01*
X0195024Y0213000D01*
X0190024Y0213000D01*
X0187524Y0215500D01*
X0185024Y0213000D01*
X0180024Y0213000D01*
X0177524Y0215500D01*
X0175024Y0213000D01*
X0170024Y0213000D01*
X0167524Y0215500D01*
X0165024Y0213000D01*
X0160024Y0213000D01*
X0157524Y0215500D01*
X0155024Y0213000D01*
X0150024Y0213000D01*
X0147524Y0215500D01*
X0145024Y0213000D01*
X0140024Y0213000D01*
X0137524Y0215500D01*
X0137524Y0220500D01*
X0140024Y0223000D01*
X0145024Y0223000D01*
X0147524Y0220500D01*
X0150024Y0223000D01*
X0155024Y0223000D01*
X0157524Y0220500D01*
X0160024Y0223000D01*
X0165024Y0223000D01*
X0167524Y0220500D01*
X0170024Y0223000D01*
X0175024Y0223000D01*
X0177524Y0220500D01*
X0180024Y0223000D01*
X0185024Y0223000D01*
X0187524Y0220500D01*
X0190024Y0223000D01*
X0195024Y0223000D01*
X0197524Y0220500D01*
X0200024Y0223000D01*
X0205024Y0223000D01*
X0207524Y0220500D01*
X0210024Y0223000D01*
X0215024Y0223000D01*
X0217524Y0220500D01*
X0220024Y0223000D01*
X0225024Y0223000D01*
X0227524Y0220500D01*
X0227524Y0215500D01*
X0225024Y0213000D01*
X0127524Y0202500D02*
X0127524Y0197500D01*
X0125024Y0195000D01*
X0120024Y0195000D01*
X0117524Y0197500D01*
X0115024Y0195000D01*
X0110024Y0195000D01*
X0107524Y0197500D01*
X0105024Y0195000D01*
X0100024Y0195000D01*
X0097524Y0197500D01*
X0097524Y0202500D01*
X0100024Y0205000D01*
X0105024Y0205000D01*
X0107524Y0202500D01*
X0110024Y0205000D01*
X0115024Y0205000D01*
X0117524Y0202500D01*
X0120024Y0205000D01*
X0125024Y0205000D01*
X0127524Y0202500D01*
X0094024Y0159000D02*
X0089024Y0159000D01*
X0086524Y0156500D01*
X0084024Y0159000D01*
X0079024Y0159000D01*
X0076524Y0156500D01*
X0076524Y0151500D01*
X0079024Y0149000D01*
X0084024Y0149000D01*
X0086524Y0151500D01*
X0089024Y0149000D01*
X0094024Y0149000D01*
X0096524Y0151500D01*
X0096524Y0156500D01*
X0094024Y0159000D01*
X0346524Y0153000D02*
X0346524Y0148000D01*
X0349024Y0145500D01*
X0346524Y0143000D01*
X0346524Y0138000D01*
X0349024Y0135500D01*
X0346524Y0133000D01*
X0346524Y0128000D01*
X0349024Y0125500D01*
X0346524Y0123000D01*
X0346524Y0118000D01*
X0349024Y0115500D01*
X0354024Y0115500D01*
X0356524Y0118000D01*
X0356524Y0123000D01*
X0354024Y0125500D01*
X0356524Y0128000D01*
X0356524Y0133000D01*
X0354024Y0135500D01*
X0356524Y0138000D01*
X0356524Y0143000D01*
X0354024Y0145500D01*
X0356524Y0148000D01*
X0356524Y0153000D01*
X0354024Y0155500D01*
X0349024Y0155500D01*
X0346524Y0153000D01*
X0349024Y0174000D02*
X0354024Y0174000D01*
X0356524Y0176500D01*
X0356524Y0181500D01*
X0354024Y0184000D01*
X0356524Y0186500D01*
X0356524Y0191500D01*
X0354024Y0194000D01*
X0356524Y0196500D01*
X0356524Y0201500D01*
X0354024Y0204000D01*
X0356524Y0206500D01*
X0356524Y0211500D01*
X0354024Y0214000D01*
X0349024Y0214000D01*
X0346524Y0211500D01*
X0346524Y0206500D01*
X0349024Y0204000D01*
X0346524Y0201500D01*
X0346524Y0196500D01*
X0349024Y0194000D01*
X0346524Y0191500D01*
X0346524Y0186500D01*
X0349024Y0184000D01*
X0346524Y0181500D01*
X0346524Y0176500D01*
X0349024Y0174000D01*
X0349024Y0101500D02*
X0354024Y0101500D01*
X0356524Y0099000D01*
X0356524Y0094000D01*
X0354024Y0091500D01*
X0356524Y0089000D01*
X0356524Y0084000D01*
X0354024Y0081500D01*
X0356524Y0079000D01*
X0356524Y0074000D01*
X0354024Y0071500D01*
X0356524Y0069000D01*
X0356524Y0064000D01*
X0354024Y0061500D01*
X0349024Y0061500D01*
X0346524Y0064000D01*
X0346524Y0069000D01*
X0349024Y0071500D01*
X0346524Y0074000D01*
X0346524Y0079000D01*
X0349024Y0081500D01*
X0346524Y0084000D01*
X0346524Y0089000D01*
X0349024Y0091500D01*
X0346524Y0094000D01*
X0346524Y0099000D01*
X0349024Y0101500D01*
D14*
X0173484Y0067079D02*
X0093563Y0067079D01*
X0093563Y0126921D01*
X0173484Y0126921D01*
X0173484Y0067079D01*
X0217563Y0060079D02*
X0297484Y0060079D01*
X0297484Y0119921D01*
X0217563Y0119921D01*
X0217563Y0060079D01*
X0249484Y0142079D02*
X0169563Y0142079D01*
X0169563Y0201921D01*
X0249484Y0201921D01*
X0249484Y0142079D01*
M02*
