G75*
%MOIN*%
%OFA0B0*%
%FSLAX25Y25*%
%IPPOS*%
%LPD*%
%AMOC8*
5,1,8,0,0,1.08239X$1,22.5*
%
%ADD10C,0.07400*%
%ADD11C,0.06400*%
%ADD12C,0.01000*%
%ADD13C,0.01600*%
%ADD14C,0.03378*%
D10*
X0137524Y0044000D03*
X0147524Y0044000D03*
X0157524Y0044000D03*
X0167524Y0044000D03*
X0177524Y0044000D03*
X0187524Y0044000D03*
X0197524Y0044000D03*
X0207524Y0044000D03*
X0227524Y0044000D03*
X0237524Y0044000D03*
X0247524Y0044000D03*
X0257524Y0044000D03*
X0267524Y0044000D03*
X0277524Y0044000D03*
X0351524Y0066500D03*
X0351524Y0076500D03*
X0351524Y0086500D03*
X0351524Y0096500D03*
X0351524Y0120500D03*
X0351524Y0130500D03*
X0351524Y0140500D03*
X0351524Y0150500D03*
X0351524Y0179000D03*
X0351524Y0189000D03*
X0351524Y0199000D03*
X0351524Y0209000D03*
X0277524Y0234000D03*
X0267524Y0234000D03*
X0257524Y0234000D03*
X0247524Y0234000D03*
X0237524Y0234000D03*
X0227524Y0234000D03*
X0217524Y0234000D03*
X0207524Y0234000D03*
X0192524Y0234000D03*
X0182524Y0234000D03*
X0172524Y0234000D03*
X0162524Y0234000D03*
X0152524Y0234000D03*
X0142524Y0234000D03*
X0132524Y0234000D03*
X0122524Y0234000D03*
X0112524Y0234000D03*
X0102524Y0234000D03*
X0142524Y0218000D03*
X0152524Y0218000D03*
X0162524Y0218000D03*
X0172524Y0218000D03*
X0182524Y0218000D03*
X0192524Y0218000D03*
X0202524Y0218000D03*
X0212524Y0218000D03*
X0222524Y0218000D03*
X0122524Y0200000D03*
X0112524Y0200000D03*
X0102524Y0200000D03*
X0091524Y0154000D03*
X0081524Y0154000D03*
D11*
X0098524Y0122000D03*
X0108524Y0122000D03*
X0118524Y0122000D03*
X0128524Y0122000D03*
X0138524Y0122000D03*
X0148524Y0122000D03*
X0158524Y0122000D03*
X0168524Y0122000D03*
X0174524Y0147000D03*
X0184524Y0147000D03*
X0194524Y0147000D03*
X0204524Y0147000D03*
X0214524Y0147000D03*
X0224524Y0147000D03*
X0234524Y0147000D03*
X0244524Y0147000D03*
X0242524Y0115000D03*
X0252524Y0115000D03*
X0262524Y0115000D03*
X0272524Y0115000D03*
X0282524Y0115000D03*
X0292524Y0115000D03*
X0232524Y0115000D03*
X0222524Y0115000D03*
X0168524Y0072000D03*
X0158524Y0072000D03*
X0148524Y0072000D03*
X0138524Y0072000D03*
X0128524Y0072000D03*
X0118524Y0072000D03*
X0108524Y0072000D03*
X0098524Y0072000D03*
X0222524Y0065000D03*
X0232524Y0065000D03*
X0242524Y0065000D03*
X0252524Y0065000D03*
X0262524Y0065000D03*
X0272524Y0065000D03*
X0282524Y0065000D03*
X0292524Y0065000D03*
X0244524Y0197000D03*
X0234524Y0197000D03*
X0224524Y0197000D03*
X0214524Y0197000D03*
X0204524Y0197000D03*
X0194524Y0197000D03*
X0184524Y0197000D03*
X0174524Y0197000D03*
D12*
X0074624Y0241900D02*
X0074624Y0027600D01*
X0360424Y0027600D01*
X0360424Y0241900D01*
X0074624Y0241900D01*
X0074624Y0241675D02*
X0360424Y0241675D01*
X0360424Y0240677D02*
X0074624Y0240677D01*
X0074624Y0239678D02*
X0360424Y0239678D01*
X0360424Y0238680D02*
X0280336Y0238680D01*
X0280582Y0238578D02*
X0278598Y0239400D01*
X0276449Y0239400D01*
X0274465Y0238578D01*
X0272946Y0237059D01*
X0272524Y0236040D01*
X0272102Y0237059D01*
X0270582Y0238578D01*
X0268598Y0239400D01*
X0266449Y0239400D01*
X0264465Y0238578D01*
X0262946Y0237059D01*
X0262524Y0236040D01*
X0262102Y0237059D01*
X0260582Y0238578D01*
X0258598Y0239400D01*
X0256449Y0239400D01*
X0254465Y0238578D01*
X0252946Y0237059D01*
X0252524Y0236040D01*
X0252102Y0237059D01*
X0250582Y0238578D01*
X0248598Y0239400D01*
X0246449Y0239400D01*
X0244465Y0238578D01*
X0242946Y0237059D01*
X0242524Y0236040D01*
X0242102Y0237059D01*
X0240582Y0238578D01*
X0238598Y0239400D01*
X0236449Y0239400D01*
X0234465Y0238578D01*
X0232946Y0237059D01*
X0232524Y0236040D01*
X0232102Y0237059D01*
X0230582Y0238578D01*
X0228598Y0239400D01*
X0226449Y0239400D01*
X0224465Y0238578D01*
X0222946Y0237059D01*
X0222524Y0236040D01*
X0222102Y0237059D01*
X0220582Y0238578D01*
X0218598Y0239400D01*
X0216449Y0239400D01*
X0214465Y0238578D01*
X0212946Y0237059D01*
X0212524Y0236040D01*
X0212102Y0237059D01*
X0210582Y0238578D01*
X0208598Y0239400D01*
X0206449Y0239400D01*
X0204465Y0238578D01*
X0202946Y0237059D01*
X0202124Y0235074D01*
X0202124Y0232926D01*
X0202946Y0230941D01*
X0204465Y0229422D01*
X0206449Y0228600D01*
X0208598Y0228600D01*
X0210582Y0229422D01*
X0212102Y0230941D01*
X0212524Y0231960D01*
X0212946Y0230941D01*
X0214465Y0229422D01*
X0216449Y0228600D01*
X0218598Y0228600D01*
X0220582Y0229422D01*
X0222102Y0230941D01*
X0222524Y0231960D01*
X0222946Y0230941D01*
X0224465Y0229422D01*
X0226449Y0228600D01*
X0228598Y0228600D01*
X0230582Y0229422D01*
X0232102Y0230941D01*
X0232524Y0231960D01*
X0232946Y0230941D01*
X0234465Y0229422D01*
X0236449Y0228600D01*
X0238388Y0228600D01*
X0252024Y0214964D01*
X0252024Y0189036D01*
X0235488Y0172500D01*
X0188026Y0172500D01*
X0187107Y0172119D01*
X0173107Y0158119D01*
X0172404Y0157416D01*
X0172024Y0156497D01*
X0172024Y0151268D01*
X0171748Y0151154D01*
X0170370Y0149776D01*
X0169624Y0147975D01*
X0169624Y0146025D01*
X0170370Y0144224D01*
X0171748Y0142846D01*
X0173549Y0142100D01*
X0175498Y0142100D01*
X0177299Y0142846D01*
X0178678Y0144224D01*
X0179424Y0146025D01*
X0179424Y0147975D01*
X0178678Y0149776D01*
X0177299Y0151154D01*
X0177024Y0151268D01*
X0177024Y0154964D01*
X0189559Y0167500D01*
X0237021Y0167500D01*
X0237940Y0167881D01*
X0238643Y0168584D01*
X0256643Y0186584D01*
X0257024Y0187503D01*
X0257024Y0216497D01*
X0256643Y0217416D01*
X0255940Y0218119D01*
X0244759Y0229300D01*
X0246449Y0228600D01*
X0248598Y0228600D01*
X0249157Y0228831D01*
X0258024Y0219964D01*
X0258024Y0172500D01*
X0257026Y0172500D01*
X0256107Y0172119D01*
X0235774Y0151786D01*
X0235498Y0151900D01*
X0233549Y0151900D01*
X0231748Y0151154D01*
X0230370Y0149776D01*
X0229624Y0147975D01*
X0229624Y0146025D01*
X0230370Y0144224D01*
X0231748Y0142846D01*
X0233549Y0142100D01*
X0235498Y0142100D01*
X0237299Y0142846D01*
X0238678Y0144224D01*
X0239424Y0146025D01*
X0239424Y0147975D01*
X0239309Y0148250D01*
X0240041Y0148982D01*
X0239624Y0147975D01*
X0239624Y0146025D01*
X0240370Y0144224D01*
X0241748Y0142846D01*
X0243549Y0142100D01*
X0245498Y0142100D01*
X0247299Y0142846D01*
X0248678Y0144224D01*
X0248956Y0144897D01*
X0249643Y0145584D01*
X0268643Y0164584D01*
X0269024Y0165503D01*
X0269024Y0166497D01*
X0269024Y0225497D01*
X0268643Y0226416D01*
X0267940Y0227119D01*
X0266459Y0228600D01*
X0268598Y0228600D01*
X0270582Y0229422D01*
X0272102Y0230941D01*
X0272524Y0231960D01*
X0272946Y0230941D01*
X0274465Y0229422D01*
X0276449Y0228600D01*
X0278598Y0228600D01*
X0280582Y0229422D01*
X0282102Y0230941D01*
X0282924Y0232926D01*
X0282924Y0235074D01*
X0282102Y0237059D01*
X0280582Y0238578D01*
X0281479Y0237681D02*
X0360424Y0237681D01*
X0360424Y0236683D02*
X0282257Y0236683D01*
X0282671Y0235684D02*
X0360424Y0235684D01*
X0360424Y0234686D02*
X0282924Y0234686D01*
X0282924Y0233687D02*
X0360424Y0233687D01*
X0360424Y0232689D02*
X0282825Y0232689D01*
X0282412Y0231690D02*
X0360424Y0231690D01*
X0360424Y0230692D02*
X0281852Y0230692D01*
X0280854Y0229693D02*
X0360424Y0229693D01*
X0360424Y0228695D02*
X0278827Y0228695D01*
X0276221Y0228695D02*
X0268827Y0228695D01*
X0267363Y0227696D02*
X0360424Y0227696D01*
X0360424Y0226698D02*
X0268361Y0226698D01*
X0268940Y0225699D02*
X0360424Y0225699D01*
X0360424Y0224701D02*
X0269024Y0224701D01*
X0269024Y0223702D02*
X0360424Y0223702D01*
X0360424Y0222704D02*
X0269024Y0222704D01*
X0269024Y0221705D02*
X0360424Y0221705D01*
X0360424Y0220707D02*
X0269024Y0220707D01*
X0269024Y0219708D02*
X0360424Y0219708D01*
X0360424Y0218710D02*
X0269024Y0218710D01*
X0269024Y0217711D02*
X0360424Y0217711D01*
X0360424Y0216713D02*
X0269024Y0216713D01*
X0269024Y0215714D02*
X0360424Y0215714D01*
X0360424Y0214716D02*
X0269024Y0214716D01*
X0269024Y0213717D02*
X0348801Y0213717D01*
X0348465Y0213578D02*
X0346946Y0212059D01*
X0346714Y0211500D01*
X0321026Y0211500D01*
X0320107Y0211119D01*
X0262377Y0153389D01*
X0261850Y0153389D01*
X0260604Y0152873D01*
X0259651Y0151920D01*
X0259135Y0150674D01*
X0259135Y0149326D01*
X0259651Y0148080D01*
X0260604Y0147127D01*
X0261850Y0146611D01*
X0263198Y0146611D01*
X0264443Y0147127D01*
X0265397Y0148080D01*
X0265913Y0149326D01*
X0265913Y0149853D01*
X0322559Y0206500D01*
X0346714Y0206500D01*
X0346946Y0205941D01*
X0348465Y0204422D01*
X0349484Y0204000D01*
X0348465Y0203578D01*
X0346946Y0202059D01*
X0346714Y0201500D01*
X0323026Y0201500D01*
X0322107Y0201119D01*
X0268377Y0147389D01*
X0267850Y0147389D01*
X0266604Y0146873D01*
X0265651Y0145920D01*
X0265135Y0144674D01*
X0265135Y0143326D01*
X0265651Y0142080D01*
X0266604Y0141127D01*
X0267850Y0140611D01*
X0269198Y0140611D01*
X0270443Y0141127D01*
X0271397Y0142080D01*
X0271913Y0143326D01*
X0271913Y0143853D01*
X0324559Y0196500D01*
X0346714Y0196500D01*
X0346946Y0195941D01*
X0348465Y0194422D01*
X0349484Y0194000D01*
X0348465Y0193578D01*
X0346946Y0192059D01*
X0346714Y0191500D01*
X0325026Y0191500D01*
X0324107Y0191119D01*
X0274377Y0141389D01*
X0273850Y0141389D01*
X0272604Y0140873D01*
X0271651Y0139920D01*
X0271135Y0138674D01*
X0271135Y0137326D01*
X0271651Y0136080D01*
X0272604Y0135127D01*
X0273850Y0134611D01*
X0275198Y0134611D01*
X0276443Y0135127D01*
X0277397Y0136080D01*
X0277913Y0137326D01*
X0277913Y0137853D01*
X0326559Y0186500D01*
X0346714Y0186500D01*
X0346946Y0185941D01*
X0348465Y0184422D01*
X0349484Y0184000D01*
X0348465Y0183578D01*
X0346946Y0182059D01*
X0346714Y0181500D01*
X0329026Y0181500D01*
X0328107Y0181119D01*
X0282377Y0135389D01*
X0281850Y0135389D01*
X0280604Y0134873D01*
X0279651Y0133920D01*
X0279135Y0132674D01*
X0279135Y0131326D01*
X0279651Y0130080D01*
X0280604Y0129127D01*
X0281850Y0128611D01*
X0283198Y0128611D01*
X0284443Y0129127D01*
X0285397Y0130080D01*
X0285913Y0131326D01*
X0285913Y0131853D01*
X0330559Y0176500D01*
X0346714Y0176500D01*
X0346946Y0175941D01*
X0348465Y0174422D01*
X0350449Y0173600D01*
X0352598Y0173600D01*
X0354582Y0174422D01*
X0356102Y0175941D01*
X0356924Y0177926D01*
X0356924Y0180074D01*
X0356102Y0182059D01*
X0354582Y0183578D01*
X0353563Y0184000D01*
X0354582Y0184422D01*
X0356102Y0185941D01*
X0356924Y0187926D01*
X0356924Y0190074D01*
X0356102Y0192059D01*
X0354582Y0193578D01*
X0353563Y0194000D01*
X0354582Y0194422D01*
X0356102Y0195941D01*
X0356924Y0197926D01*
X0356924Y0200074D01*
X0356102Y0202059D01*
X0354582Y0203578D01*
X0353563Y0204000D01*
X0354582Y0204422D01*
X0356102Y0205941D01*
X0356924Y0207926D01*
X0356924Y0210074D01*
X0356102Y0212059D01*
X0354582Y0213578D01*
X0352598Y0214400D01*
X0350449Y0214400D01*
X0348465Y0213578D01*
X0347606Y0212719D02*
X0269024Y0212719D01*
X0269024Y0211720D02*
X0346805Y0211720D01*
X0354246Y0213717D02*
X0360424Y0213717D01*
X0360424Y0212719D02*
X0355442Y0212719D01*
X0356242Y0211720D02*
X0360424Y0211720D01*
X0360424Y0210722D02*
X0356655Y0210722D01*
X0356924Y0209723D02*
X0360424Y0209723D01*
X0360424Y0208725D02*
X0356924Y0208725D01*
X0356841Y0207726D02*
X0360424Y0207726D01*
X0360424Y0206728D02*
X0356427Y0206728D01*
X0355889Y0205729D02*
X0360424Y0205729D01*
X0360424Y0204731D02*
X0354891Y0204731D01*
X0354210Y0203732D02*
X0360424Y0203732D01*
X0360424Y0202734D02*
X0355427Y0202734D01*
X0356236Y0201735D02*
X0360424Y0201735D01*
X0360424Y0200737D02*
X0356649Y0200737D01*
X0356924Y0199738D02*
X0360424Y0199738D01*
X0360424Y0198739D02*
X0356924Y0198739D01*
X0356847Y0197741D02*
X0360424Y0197741D01*
X0360424Y0196742D02*
X0356433Y0196742D01*
X0355904Y0195744D02*
X0360424Y0195744D01*
X0360424Y0194745D02*
X0354906Y0194745D01*
X0354174Y0193747D02*
X0360424Y0193747D01*
X0360424Y0192748D02*
X0355412Y0192748D01*
X0356229Y0191750D02*
X0360424Y0191750D01*
X0360424Y0190751D02*
X0356643Y0190751D01*
X0356924Y0189753D02*
X0360424Y0189753D01*
X0360424Y0188754D02*
X0356924Y0188754D01*
X0356853Y0187756D02*
X0360424Y0187756D01*
X0360424Y0186757D02*
X0356440Y0186757D01*
X0355919Y0185759D02*
X0360424Y0185759D01*
X0360424Y0184760D02*
X0354921Y0184760D01*
X0354138Y0183762D02*
X0360424Y0183762D01*
X0360424Y0182763D02*
X0355397Y0182763D01*
X0356223Y0181765D02*
X0360424Y0181765D01*
X0360424Y0180766D02*
X0356637Y0180766D01*
X0356924Y0179768D02*
X0360424Y0179768D01*
X0360424Y0178769D02*
X0356924Y0178769D01*
X0356859Y0177771D02*
X0360424Y0177771D01*
X0360424Y0176772D02*
X0356446Y0176772D01*
X0355934Y0175774D02*
X0360424Y0175774D01*
X0360424Y0174775D02*
X0354936Y0174775D01*
X0353024Y0173777D02*
X0360424Y0173777D01*
X0360424Y0172778D02*
X0326837Y0172778D01*
X0325839Y0171780D02*
X0360424Y0171780D01*
X0360424Y0170781D02*
X0324840Y0170781D01*
X0323842Y0169783D02*
X0360424Y0169783D01*
X0360424Y0168784D02*
X0322843Y0168784D01*
X0321845Y0167786D02*
X0360424Y0167786D01*
X0360424Y0166787D02*
X0320846Y0166787D01*
X0319848Y0165789D02*
X0360424Y0165789D01*
X0360424Y0164790D02*
X0318849Y0164790D01*
X0317851Y0163792D02*
X0360424Y0163792D01*
X0360424Y0162793D02*
X0316852Y0162793D01*
X0315854Y0161795D02*
X0360424Y0161795D01*
X0360424Y0160796D02*
X0314855Y0160796D01*
X0313857Y0159798D02*
X0360424Y0159798D01*
X0360424Y0158799D02*
X0312858Y0158799D01*
X0311860Y0157801D02*
X0360424Y0157801D01*
X0360424Y0156802D02*
X0310861Y0156802D01*
X0309863Y0155803D02*
X0350217Y0155803D01*
X0350449Y0155900D02*
X0348465Y0155078D01*
X0346946Y0153559D01*
X0346124Y0151574D01*
X0346124Y0149426D01*
X0346946Y0147441D01*
X0348465Y0145922D01*
X0349484Y0145500D01*
X0348465Y0145078D01*
X0346946Y0143559D01*
X0346124Y0141574D01*
X0346124Y0139426D01*
X0346946Y0137441D01*
X0348465Y0135922D01*
X0349484Y0135500D01*
X0348465Y0135078D01*
X0346946Y0133559D01*
X0346124Y0131574D01*
X0346124Y0129426D01*
X0346946Y0127441D01*
X0348465Y0125922D01*
X0349484Y0125500D01*
X0348465Y0125078D01*
X0346946Y0123559D01*
X0346124Y0121574D01*
X0346124Y0119426D01*
X0346946Y0117441D01*
X0348465Y0115922D01*
X0350449Y0115100D01*
X0352598Y0115100D01*
X0354582Y0115922D01*
X0356102Y0117441D01*
X0356924Y0119426D01*
X0356924Y0121574D01*
X0356102Y0123559D01*
X0354582Y0125078D01*
X0353563Y0125500D01*
X0354582Y0125922D01*
X0356102Y0127441D01*
X0356924Y0129426D01*
X0356924Y0131574D01*
X0356102Y0133559D01*
X0354582Y0135078D01*
X0353563Y0135500D01*
X0354582Y0135922D01*
X0356102Y0137441D01*
X0356924Y0139426D01*
X0356924Y0141574D01*
X0356102Y0143559D01*
X0354582Y0145078D01*
X0353563Y0145500D01*
X0354582Y0145922D01*
X0356102Y0147441D01*
X0356924Y0149426D01*
X0356924Y0151574D01*
X0356102Y0153559D01*
X0354582Y0155078D01*
X0352598Y0155900D01*
X0350449Y0155900D01*
X0352831Y0155803D02*
X0360424Y0155803D01*
X0360424Y0154805D02*
X0354855Y0154805D01*
X0355854Y0153806D02*
X0360424Y0153806D01*
X0360424Y0152808D02*
X0356413Y0152808D01*
X0356826Y0151809D02*
X0360424Y0151809D01*
X0360424Y0150811D02*
X0356924Y0150811D01*
X0356924Y0149812D02*
X0360424Y0149812D01*
X0360424Y0148814D02*
X0356670Y0148814D01*
X0356257Y0147815D02*
X0360424Y0147815D01*
X0360424Y0146817D02*
X0355477Y0146817D01*
X0354332Y0145818D02*
X0360424Y0145818D01*
X0360424Y0144820D02*
X0354840Y0144820D01*
X0355839Y0143821D02*
X0360424Y0143821D01*
X0360424Y0142823D02*
X0356406Y0142823D01*
X0356820Y0141824D02*
X0360424Y0141824D01*
X0360424Y0140826D02*
X0356924Y0140826D01*
X0356924Y0139827D02*
X0360424Y0139827D01*
X0360424Y0138829D02*
X0356676Y0138829D01*
X0356263Y0137830D02*
X0360424Y0137830D01*
X0360424Y0136832D02*
X0355492Y0136832D01*
X0354368Y0135833D02*
X0360424Y0135833D01*
X0360424Y0134835D02*
X0354826Y0134835D01*
X0355824Y0133836D02*
X0360424Y0133836D01*
X0360424Y0132838D02*
X0356400Y0132838D01*
X0356814Y0131839D02*
X0360424Y0131839D01*
X0360424Y0130841D02*
X0356924Y0130841D01*
X0356924Y0129842D02*
X0360424Y0129842D01*
X0360424Y0128844D02*
X0356682Y0128844D01*
X0356269Y0127845D02*
X0360424Y0127845D01*
X0360424Y0126847D02*
X0355507Y0126847D01*
X0354404Y0125848D02*
X0360424Y0125848D01*
X0360424Y0124850D02*
X0354811Y0124850D01*
X0355809Y0123851D02*
X0360424Y0123851D01*
X0360424Y0122853D02*
X0356394Y0122853D01*
X0356808Y0121854D02*
X0360424Y0121854D01*
X0360424Y0120856D02*
X0356924Y0120856D01*
X0356924Y0119857D02*
X0360424Y0119857D01*
X0360424Y0118859D02*
X0356689Y0118859D01*
X0356275Y0117860D02*
X0360424Y0117860D01*
X0360424Y0116862D02*
X0355522Y0116862D01*
X0354440Y0115863D02*
X0360424Y0115863D01*
X0360424Y0114865D02*
X0293024Y0114865D01*
X0293024Y0114500D02*
X0293024Y0115500D01*
X0297203Y0115500D01*
X0297108Y0116101D01*
X0296879Y0116804D01*
X0296543Y0117463D01*
X0296109Y0118062D01*
X0295585Y0118585D01*
X0294987Y0119020D01*
X0294328Y0119356D01*
X0293624Y0119584D01*
X0293024Y0119679D01*
X0293024Y0115500D01*
X0292024Y0115500D01*
X0292024Y0119679D01*
X0291423Y0119584D01*
X0290719Y0119356D01*
X0290060Y0119020D01*
X0289462Y0118585D01*
X0288939Y0118062D01*
X0288504Y0117463D01*
X0288168Y0116804D01*
X0287939Y0116101D01*
X0287844Y0115500D01*
X0292024Y0115500D01*
X0292024Y0114500D01*
X0293024Y0114500D01*
X0297203Y0114500D01*
X0297108Y0113899D01*
X0296879Y0113196D01*
X0296543Y0112537D01*
X0296109Y0111938D01*
X0295585Y0111415D01*
X0294987Y0110980D01*
X0294328Y0110644D01*
X0293624Y0110416D01*
X0293024Y0110321D01*
X0293024Y0114500D01*
X0293024Y0113866D02*
X0292024Y0113866D01*
X0292024Y0114500D02*
X0292024Y0110321D01*
X0291423Y0110416D01*
X0290719Y0110644D01*
X0290060Y0110980D01*
X0289462Y0111415D01*
X0288939Y0111938D01*
X0288504Y0112537D01*
X0288168Y0113196D01*
X0287939Y0113899D01*
X0287844Y0114500D01*
X0292024Y0114500D01*
X0292024Y0114865D02*
X0287424Y0114865D01*
X0287424Y0114025D02*
X0287424Y0115975D01*
X0286678Y0117776D01*
X0285299Y0119154D01*
X0283498Y0119900D01*
X0281549Y0119900D01*
X0279748Y0119154D01*
X0278370Y0117776D01*
X0277624Y0115975D01*
X0277624Y0114025D01*
X0278370Y0112224D01*
X0279748Y0110846D01*
X0281549Y0110100D01*
X0283498Y0110100D01*
X0285299Y0110846D01*
X0286678Y0112224D01*
X0287424Y0114025D01*
X0287358Y0113866D02*
X0287950Y0113866D01*
X0288335Y0112868D02*
X0286944Y0112868D01*
X0286322Y0111869D02*
X0289008Y0111869D01*
X0290276Y0110870D02*
X0285324Y0110870D01*
X0279723Y0110870D02*
X0275324Y0110870D01*
X0275299Y0110846D02*
X0276678Y0112224D01*
X0277424Y0114025D01*
X0277424Y0115975D01*
X0276678Y0117776D01*
X0275299Y0119154D01*
X0273498Y0119900D01*
X0271549Y0119900D01*
X0269748Y0119154D01*
X0268370Y0117776D01*
X0267624Y0115975D01*
X0267624Y0114025D01*
X0268370Y0112224D01*
X0269748Y0110846D01*
X0271549Y0110100D01*
X0273498Y0110100D01*
X0275299Y0110846D01*
X0276322Y0111869D02*
X0278725Y0111869D01*
X0278103Y0112868D02*
X0276944Y0112868D01*
X0277358Y0113866D02*
X0277690Y0113866D01*
X0277624Y0114865D02*
X0277424Y0114865D01*
X0277424Y0115863D02*
X0277624Y0115863D01*
X0277991Y0116862D02*
X0277056Y0116862D01*
X0276593Y0117860D02*
X0278454Y0117860D01*
X0279453Y0118859D02*
X0275595Y0118859D01*
X0273602Y0119857D02*
X0281445Y0119857D01*
X0283602Y0119857D02*
X0346124Y0119857D01*
X0346124Y0120856D02*
X0209024Y0120856D01*
X0209024Y0121854D02*
X0346240Y0121854D01*
X0346653Y0122853D02*
X0209024Y0122853D01*
X0209024Y0123851D02*
X0347238Y0123851D01*
X0348237Y0124850D02*
X0209024Y0124850D01*
X0209024Y0125848D02*
X0348643Y0125848D01*
X0347540Y0126847D02*
X0209024Y0126847D01*
X0209024Y0127845D02*
X0346778Y0127845D01*
X0346365Y0128844D02*
X0283759Y0128844D01*
X0285159Y0129842D02*
X0346124Y0129842D01*
X0346124Y0130841D02*
X0285712Y0130841D01*
X0285913Y0131839D02*
X0346233Y0131839D01*
X0346647Y0132838D02*
X0286897Y0132838D01*
X0287895Y0133836D02*
X0347223Y0133836D01*
X0348222Y0134835D02*
X0288894Y0134835D01*
X0289892Y0135833D02*
X0348679Y0135833D01*
X0347555Y0136832D02*
X0290891Y0136832D01*
X0291889Y0137830D02*
X0346785Y0137830D01*
X0346371Y0138829D02*
X0292888Y0138829D01*
X0293886Y0139827D02*
X0346124Y0139827D01*
X0346124Y0140826D02*
X0294885Y0140826D01*
X0295883Y0141824D02*
X0346227Y0141824D01*
X0346641Y0142823D02*
X0296882Y0142823D01*
X0297881Y0143821D02*
X0347208Y0143821D01*
X0348207Y0144820D02*
X0298879Y0144820D01*
X0299878Y0145818D02*
X0348715Y0145818D01*
X0347570Y0146817D02*
X0300876Y0146817D01*
X0301875Y0147815D02*
X0346791Y0147815D01*
X0346377Y0148814D02*
X0302873Y0148814D01*
X0303872Y0149812D02*
X0346124Y0149812D01*
X0346124Y0150811D02*
X0304870Y0150811D01*
X0305869Y0151809D02*
X0346221Y0151809D01*
X0346635Y0152808D02*
X0306867Y0152808D01*
X0307866Y0153806D02*
X0347193Y0153806D01*
X0348192Y0154805D02*
X0308864Y0154805D01*
X0305787Y0158799D02*
X0298858Y0158799D01*
X0297860Y0157801D02*
X0304789Y0157801D01*
X0303790Y0156802D02*
X0296861Y0156802D01*
X0295863Y0155803D02*
X0302792Y0155803D01*
X0301793Y0154805D02*
X0294864Y0154805D01*
X0293866Y0153806D02*
X0300795Y0153806D01*
X0299796Y0152808D02*
X0292867Y0152808D01*
X0291869Y0151809D02*
X0298798Y0151809D01*
X0297799Y0150811D02*
X0290870Y0150811D01*
X0289872Y0149812D02*
X0296801Y0149812D01*
X0295802Y0148814D02*
X0288873Y0148814D01*
X0287875Y0147815D02*
X0294803Y0147815D01*
X0293805Y0146817D02*
X0286876Y0146817D01*
X0285878Y0145818D02*
X0292806Y0145818D01*
X0291808Y0144820D02*
X0284879Y0144820D01*
X0283881Y0143821D02*
X0290809Y0143821D01*
X0289811Y0142823D02*
X0282882Y0142823D01*
X0281883Y0141824D02*
X0288812Y0141824D01*
X0287814Y0140826D02*
X0280885Y0140826D01*
X0279886Y0139827D02*
X0286815Y0139827D01*
X0285817Y0138829D02*
X0278888Y0138829D01*
X0277913Y0137830D02*
X0284818Y0137830D01*
X0283820Y0136832D02*
X0277708Y0136832D01*
X0277150Y0135833D02*
X0282821Y0135833D01*
X0280566Y0134835D02*
X0275738Y0134835D01*
X0273309Y0134835D02*
X0226747Y0134835D01*
X0226643Y0134584D02*
X0227024Y0135503D01*
X0227024Y0142732D01*
X0227299Y0142846D01*
X0228678Y0144224D01*
X0229424Y0146025D01*
X0229424Y0147975D01*
X0228678Y0149776D01*
X0227299Y0151154D01*
X0225498Y0151900D01*
X0223549Y0151900D01*
X0221748Y0151154D01*
X0220370Y0149776D01*
X0219624Y0147975D01*
X0219624Y0146025D01*
X0220370Y0144224D01*
X0221748Y0142846D01*
X0222024Y0142732D01*
X0222024Y0138500D01*
X0197024Y0138500D01*
X0197024Y0142732D01*
X0197299Y0142846D01*
X0198678Y0144224D01*
X0199424Y0146025D01*
X0199424Y0147975D01*
X0198678Y0149776D01*
X0197299Y0151154D01*
X0195498Y0151900D01*
X0193549Y0151900D01*
X0191748Y0151154D01*
X0190370Y0149776D01*
X0190255Y0149500D01*
X0188792Y0149500D01*
X0188678Y0149776D01*
X0187299Y0151154D01*
X0185498Y0151900D01*
X0183549Y0151900D01*
X0181748Y0151154D01*
X0180370Y0149776D01*
X0179624Y0147975D01*
X0179624Y0146025D01*
X0180370Y0144224D01*
X0181748Y0142846D01*
X0183549Y0142100D01*
X0185498Y0142100D01*
X0187299Y0142846D01*
X0188678Y0144224D01*
X0188792Y0144500D01*
X0190255Y0144500D01*
X0190370Y0144224D01*
X0191748Y0142846D01*
X0192024Y0142732D01*
X0192024Y0135503D01*
X0192404Y0134584D01*
X0193107Y0133881D01*
X0194026Y0133500D01*
X0204024Y0133500D01*
X0204024Y0100500D01*
X0177026Y0100500D01*
X0176107Y0100119D01*
X0175404Y0099416D01*
X0175024Y0098497D01*
X0175024Y0056500D01*
X0151024Y0056500D01*
X0151024Y0067732D01*
X0151299Y0067846D01*
X0152678Y0069224D01*
X0153424Y0071025D01*
X0153424Y0072975D01*
X0152678Y0074776D01*
X0151299Y0076154D01*
X0149498Y0076900D01*
X0147549Y0076900D01*
X0145748Y0076154D01*
X0144370Y0074776D01*
X0143624Y0072975D01*
X0143624Y0071025D01*
X0144370Y0069224D01*
X0145748Y0067846D01*
X0146024Y0067732D01*
X0146024Y0064500D01*
X0121024Y0064500D01*
X0121024Y0067732D01*
X0121299Y0067846D01*
X0122678Y0069224D01*
X0123424Y0071025D01*
X0123424Y0072975D01*
X0122678Y0074776D01*
X0121299Y0076154D01*
X0119498Y0076900D01*
X0117549Y0076900D01*
X0115748Y0076154D01*
X0114370Y0074776D01*
X0114255Y0074500D01*
X0112792Y0074500D01*
X0112678Y0074776D01*
X0111299Y0076154D01*
X0109498Y0076900D01*
X0107549Y0076900D01*
X0105748Y0076154D01*
X0104370Y0074776D01*
X0103624Y0072975D01*
X0103624Y0071025D01*
X0104370Y0069224D01*
X0105748Y0067846D01*
X0107549Y0067100D01*
X0109498Y0067100D01*
X0111299Y0067846D01*
X0112678Y0069224D01*
X0112792Y0069500D01*
X0114255Y0069500D01*
X0114370Y0069224D01*
X0115748Y0067846D01*
X0116024Y0067732D01*
X0116024Y0061503D01*
X0116404Y0060584D01*
X0117107Y0059881D01*
X0118026Y0059500D01*
X0146024Y0059500D01*
X0146024Y0053503D01*
X0146404Y0052584D01*
X0147107Y0051881D01*
X0148026Y0051500D01*
X0175024Y0051500D01*
X0175024Y0048809D01*
X0174465Y0048578D01*
X0172946Y0047059D01*
X0172524Y0046040D01*
X0172102Y0047059D01*
X0170582Y0048578D01*
X0168598Y0049400D01*
X0166449Y0049400D01*
X0164465Y0048578D01*
X0162946Y0047059D01*
X0162524Y0046040D01*
X0162102Y0047059D01*
X0160582Y0048578D01*
X0158598Y0049400D01*
X0156449Y0049400D01*
X0154465Y0048578D01*
X0152946Y0047059D01*
X0152524Y0046040D01*
X0152102Y0047059D01*
X0150582Y0048578D01*
X0148598Y0049400D01*
X0146449Y0049400D01*
X0144465Y0048578D01*
X0142946Y0047059D01*
X0142524Y0046040D01*
X0142102Y0047059D01*
X0140582Y0048578D01*
X0138598Y0049400D01*
X0136449Y0049400D01*
X0134465Y0048578D01*
X0132946Y0047059D01*
X0132124Y0045074D01*
X0132124Y0042926D01*
X0132946Y0040941D01*
X0134465Y0039422D01*
X0136449Y0038600D01*
X0138598Y0038600D01*
X0140582Y0039422D01*
X0142102Y0040941D01*
X0142524Y0041960D01*
X0142946Y0040941D01*
X0144465Y0039422D01*
X0146449Y0038600D01*
X0148598Y0038600D01*
X0150582Y0039422D01*
X0152102Y0040941D01*
X0152524Y0041960D01*
X0152946Y0040941D01*
X0154465Y0039422D01*
X0156449Y0038600D01*
X0158598Y0038600D01*
X0160582Y0039422D01*
X0162102Y0040941D01*
X0162524Y0041960D01*
X0162946Y0040941D01*
X0164465Y0039422D01*
X0166449Y0038600D01*
X0168598Y0038600D01*
X0170582Y0039422D01*
X0172102Y0040941D01*
X0172524Y0041960D01*
X0172946Y0040941D01*
X0174465Y0039422D01*
X0176449Y0038600D01*
X0178598Y0038600D01*
X0180582Y0039422D01*
X0182102Y0040941D01*
X0182633Y0042224D01*
X0182705Y0042004D01*
X0183076Y0041275D01*
X0183557Y0040612D01*
X0184136Y0040034D01*
X0184798Y0039553D01*
X0185528Y0039181D01*
X0186306Y0038928D01*
X0187024Y0038814D01*
X0187024Y0043500D01*
X0188024Y0043500D01*
X0188024Y0044500D01*
X0197024Y0044500D01*
X0197024Y0049186D01*
X0196306Y0049072D01*
X0195528Y0048819D01*
X0194798Y0048447D01*
X0194136Y0047966D01*
X0193557Y0047388D01*
X0193076Y0046725D01*
X0192705Y0045996D01*
X0192524Y0045439D01*
X0192343Y0045996D01*
X0191971Y0046725D01*
X0191490Y0047388D01*
X0190911Y0047966D01*
X0190249Y0048447D01*
X0189520Y0048819D01*
X0188741Y0049072D01*
X0188024Y0049186D01*
X0188024Y0044500D01*
X0187024Y0044500D01*
X0187024Y0049186D01*
X0186306Y0049072D01*
X0185528Y0048819D01*
X0184798Y0048447D01*
X0184136Y0047966D01*
X0183557Y0047388D01*
X0183076Y0046725D01*
X0182705Y0045996D01*
X0182633Y0045776D01*
X0182102Y0047059D01*
X0180582Y0048578D01*
X0180024Y0048809D01*
X0180024Y0095500D01*
X0205488Y0095500D01*
X0230024Y0070964D01*
X0230024Y0069268D01*
X0229748Y0069154D01*
X0228370Y0067776D01*
X0227624Y0065975D01*
X0227624Y0064025D01*
X0228370Y0062224D01*
X0229748Y0060846D01*
X0231549Y0060100D01*
X0233498Y0060100D01*
X0235299Y0060846D01*
X0236678Y0062224D01*
X0236792Y0062500D01*
X0238255Y0062500D01*
X0238370Y0062224D01*
X0239748Y0060846D01*
X0241549Y0060100D01*
X0243498Y0060100D01*
X0245299Y0060846D01*
X0246678Y0062224D01*
X0247424Y0064025D01*
X0247424Y0065975D01*
X0246678Y0067776D01*
X0245299Y0069154D01*
X0245024Y0069268D01*
X0245024Y0071500D01*
X0270024Y0071500D01*
X0270024Y0069268D01*
X0269748Y0069154D01*
X0268370Y0067776D01*
X0267624Y0065975D01*
X0267624Y0064025D01*
X0268370Y0062224D01*
X0269748Y0060846D01*
X0271549Y0060100D01*
X0273498Y0060100D01*
X0275299Y0060846D01*
X0276678Y0062224D01*
X0277424Y0064025D01*
X0277424Y0065975D01*
X0276678Y0067776D01*
X0275299Y0069154D01*
X0275024Y0069268D01*
X0275024Y0074497D01*
X0274643Y0075416D01*
X0273940Y0076119D01*
X0273021Y0076500D01*
X0242026Y0076500D01*
X0241107Y0076119D01*
X0240404Y0075416D01*
X0240024Y0074497D01*
X0240024Y0069268D01*
X0239748Y0069154D01*
X0238370Y0067776D01*
X0238255Y0067500D01*
X0236792Y0067500D01*
X0236678Y0067776D01*
X0235299Y0069154D01*
X0235024Y0069268D01*
X0235024Y0072497D01*
X0234643Y0073416D01*
X0233940Y0074119D01*
X0209024Y0099036D01*
X0209024Y0133500D01*
X0225021Y0133500D01*
X0225940Y0133881D01*
X0226643Y0134584D01*
X0225833Y0133836D02*
X0279616Y0133836D01*
X0279202Y0132838D02*
X0209024Y0132838D01*
X0209024Y0131839D02*
X0279135Y0131839D01*
X0279336Y0130841D02*
X0209024Y0130841D01*
X0209024Y0129842D02*
X0279889Y0129842D01*
X0281288Y0128844D02*
X0209024Y0128844D01*
X0204024Y0128844D02*
X0101024Y0128844D01*
X0101024Y0129500D02*
X0101024Y0126268D01*
X0101299Y0126154D01*
X0102678Y0124776D01*
X0103424Y0122975D01*
X0103424Y0121025D01*
X0102678Y0119224D01*
X0101299Y0117846D01*
X0099498Y0117100D01*
X0097549Y0117100D01*
X0095748Y0117846D01*
X0094370Y0119224D01*
X0093624Y0121025D01*
X0093624Y0122975D01*
X0093738Y0123250D01*
X0079404Y0137584D01*
X0079024Y0138503D01*
X0079024Y0149191D01*
X0078465Y0149422D01*
X0076946Y0150941D01*
X0076124Y0152926D01*
X0076124Y0155074D01*
X0076946Y0157059D01*
X0078465Y0158578D01*
X0080449Y0159400D01*
X0082598Y0159400D01*
X0084582Y0158578D01*
X0086102Y0157059D01*
X0086633Y0155776D01*
X0086705Y0155996D01*
X0087076Y0156725D01*
X0087557Y0157388D01*
X0088136Y0157966D01*
X0088798Y0158447D01*
X0089528Y0158819D01*
X0090306Y0159072D01*
X0091024Y0159186D01*
X0091024Y0154500D01*
X0092024Y0154500D01*
X0096709Y0154500D01*
X0096596Y0155218D01*
X0096343Y0155996D01*
X0095971Y0156725D01*
X0095490Y0157388D01*
X0094911Y0157966D01*
X0094249Y0158447D01*
X0093520Y0158819D01*
X0092741Y0159072D01*
X0092024Y0159186D01*
X0092024Y0154500D01*
X0092024Y0153500D01*
X0096709Y0153500D01*
X0096596Y0152782D01*
X0096343Y0152004D01*
X0095971Y0151275D01*
X0095490Y0150612D01*
X0094911Y0150034D01*
X0094249Y0149553D01*
X0093520Y0149181D01*
X0092741Y0148928D01*
X0092024Y0148814D01*
X0092024Y0153500D01*
X0091024Y0153500D01*
X0091024Y0148814D01*
X0090306Y0148928D01*
X0089528Y0149181D01*
X0088798Y0149553D01*
X0088136Y0150034D01*
X0087557Y0150612D01*
X0087076Y0151275D01*
X0086705Y0152004D01*
X0086633Y0152224D01*
X0086102Y0150941D01*
X0084582Y0149422D01*
X0084024Y0149191D01*
X0084024Y0140036D01*
X0096024Y0128036D01*
X0096024Y0132497D01*
X0096404Y0133416D01*
X0097107Y0134119D01*
X0098026Y0134500D01*
X0108488Y0134500D01*
X0169738Y0195750D01*
X0169624Y0196025D01*
X0169624Y0197975D01*
X0170370Y0199776D01*
X0171748Y0201154D01*
X0173549Y0201900D01*
X0175498Y0201900D01*
X0177299Y0201154D01*
X0178678Y0199776D01*
X0179424Y0197975D01*
X0179424Y0196025D01*
X0178678Y0194224D01*
X0177299Y0192846D01*
X0175498Y0192100D01*
X0173549Y0192100D01*
X0173273Y0192214D01*
X0111643Y0130584D01*
X0111643Y0130584D01*
X0110940Y0129881D01*
X0110021Y0129500D01*
X0101024Y0129500D01*
X0101024Y0127845D02*
X0204024Y0127845D01*
X0204024Y0126847D02*
X0159627Y0126847D01*
X0159498Y0126900D02*
X0157549Y0126900D01*
X0155748Y0126154D01*
X0154370Y0124776D01*
X0153624Y0122975D01*
X0153624Y0121025D01*
X0154370Y0119224D01*
X0155748Y0117846D01*
X0157549Y0117100D01*
X0159498Y0117100D01*
X0161299Y0117846D01*
X0162678Y0119224D01*
X0163424Y0121025D01*
X0163424Y0122975D01*
X0162678Y0124776D01*
X0161299Y0126154D01*
X0159498Y0126900D01*
X0157420Y0126847D02*
X0149627Y0126847D01*
X0149498Y0126900D02*
X0147549Y0126900D01*
X0145748Y0126154D01*
X0144370Y0124776D01*
X0143624Y0122975D01*
X0143624Y0121025D01*
X0144370Y0119224D01*
X0145748Y0117846D01*
X0147549Y0117100D01*
X0149498Y0117100D01*
X0151299Y0117846D01*
X0152678Y0119224D01*
X0153424Y0121025D01*
X0153424Y0122975D01*
X0152678Y0124776D01*
X0151299Y0126154D01*
X0149498Y0126900D01*
X0147420Y0126847D02*
X0139627Y0126847D01*
X0139498Y0126900D02*
X0137549Y0126900D01*
X0135748Y0126154D01*
X0134370Y0124776D01*
X0133624Y0122975D01*
X0133624Y0121025D01*
X0134370Y0119224D01*
X0135748Y0117846D01*
X0137549Y0117100D01*
X0139498Y0117100D01*
X0141299Y0117846D01*
X0142678Y0119224D01*
X0143424Y0121025D01*
X0143424Y0122975D01*
X0142678Y0124776D01*
X0141299Y0126154D01*
X0139498Y0126900D01*
X0137420Y0126847D02*
X0129627Y0126847D01*
X0129498Y0126900D02*
X0127549Y0126900D01*
X0125748Y0126154D01*
X0124370Y0124776D01*
X0123624Y0122975D01*
X0123624Y0121025D01*
X0124370Y0119224D01*
X0125748Y0117846D01*
X0127549Y0117100D01*
X0129498Y0117100D01*
X0131299Y0117846D01*
X0132678Y0119224D01*
X0133424Y0121025D01*
X0133424Y0122975D01*
X0132678Y0124776D01*
X0131299Y0126154D01*
X0129498Y0126900D01*
X0127420Y0126847D02*
X0119627Y0126847D01*
X0119498Y0126900D02*
X0117549Y0126900D01*
X0115748Y0126154D01*
X0114370Y0124776D01*
X0113624Y0122975D01*
X0113624Y0121025D01*
X0114370Y0119224D01*
X0115748Y0117846D01*
X0117549Y0117100D01*
X0119498Y0117100D01*
X0121299Y0117846D01*
X0122678Y0119224D01*
X0123424Y0121025D01*
X0123424Y0122975D01*
X0122678Y0124776D01*
X0121299Y0126154D01*
X0119498Y0126900D01*
X0117420Y0126847D02*
X0101024Y0126847D01*
X0101605Y0125848D02*
X0105824Y0125848D01*
X0106060Y0126020D02*
X0105462Y0125585D01*
X0104939Y0125062D01*
X0104504Y0124463D01*
X0104168Y0123804D01*
X0103939Y0123101D01*
X0103844Y0122500D01*
X0108024Y0122500D01*
X0108024Y0126679D01*
X0107423Y0126584D01*
X0106719Y0126356D01*
X0106060Y0126020D01*
X0104784Y0124850D02*
X0102604Y0124850D01*
X0103061Y0123851D02*
X0104192Y0123851D01*
X0103900Y0122853D02*
X0103424Y0122853D01*
X0103424Y0121854D02*
X0108024Y0121854D01*
X0108024Y0121500D02*
X0103844Y0121500D01*
X0103939Y0120899D01*
X0104168Y0120196D01*
X0104504Y0119537D01*
X0104939Y0118938D01*
X0105462Y0118415D01*
X0106060Y0117980D01*
X0106719Y0117644D01*
X0107423Y0117416D01*
X0108024Y0117321D01*
X0108024Y0121500D01*
X0109024Y0121500D01*
X0109024Y0122500D01*
X0113203Y0122500D01*
X0113108Y0123101D01*
X0112879Y0123804D01*
X0112543Y0124463D01*
X0112109Y0125062D01*
X0111585Y0125585D01*
X0110987Y0126020D01*
X0110328Y0126356D01*
X0109624Y0126584D01*
X0109024Y0126679D01*
X0109024Y0122500D01*
X0108024Y0122500D01*
X0108024Y0121500D01*
X0108024Y0120856D02*
X0109024Y0120856D01*
X0109024Y0121500D02*
X0109024Y0117321D01*
X0109624Y0117416D01*
X0110328Y0117644D01*
X0110987Y0117980D01*
X0111585Y0118415D01*
X0112109Y0118938D01*
X0112543Y0119537D01*
X0112879Y0120196D01*
X0113108Y0120899D01*
X0113203Y0121500D01*
X0109024Y0121500D01*
X0109024Y0121854D02*
X0113624Y0121854D01*
X0113624Y0122853D02*
X0113147Y0122853D01*
X0112855Y0123851D02*
X0113987Y0123851D01*
X0114444Y0124850D02*
X0112263Y0124850D01*
X0111223Y0125848D02*
X0115442Y0125848D01*
X0121605Y0125848D02*
X0125442Y0125848D01*
X0124444Y0124850D02*
X0122604Y0124850D01*
X0123061Y0123851D02*
X0123987Y0123851D01*
X0123624Y0122853D02*
X0123424Y0122853D01*
X0123424Y0121854D02*
X0123624Y0121854D01*
X0123694Y0120856D02*
X0123353Y0120856D01*
X0122940Y0119857D02*
X0124108Y0119857D01*
X0124735Y0118859D02*
X0122312Y0118859D01*
X0121313Y0117860D02*
X0125734Y0117860D01*
X0131313Y0117860D02*
X0135734Y0117860D01*
X0134735Y0118859D02*
X0132312Y0118859D01*
X0132940Y0119857D02*
X0134108Y0119857D01*
X0133694Y0120856D02*
X0133353Y0120856D01*
X0133424Y0121854D02*
X0133624Y0121854D01*
X0133624Y0122853D02*
X0133424Y0122853D01*
X0133061Y0123851D02*
X0133987Y0123851D01*
X0134444Y0124850D02*
X0132604Y0124850D01*
X0131605Y0125848D02*
X0135442Y0125848D01*
X0141605Y0125848D02*
X0145442Y0125848D01*
X0144444Y0124850D02*
X0142604Y0124850D01*
X0143061Y0123851D02*
X0143987Y0123851D01*
X0143624Y0122853D02*
X0143424Y0122853D01*
X0143424Y0121854D02*
X0143624Y0121854D01*
X0143694Y0120856D02*
X0143353Y0120856D01*
X0142940Y0119857D02*
X0144108Y0119857D01*
X0144735Y0118859D02*
X0142312Y0118859D01*
X0141313Y0117860D02*
X0145734Y0117860D01*
X0151313Y0117860D02*
X0155734Y0117860D01*
X0154735Y0118859D02*
X0152312Y0118859D01*
X0152940Y0119857D02*
X0154108Y0119857D01*
X0153694Y0120856D02*
X0153353Y0120856D01*
X0153424Y0121854D02*
X0153624Y0121854D01*
X0153624Y0122853D02*
X0153424Y0122853D01*
X0153061Y0123851D02*
X0153987Y0123851D01*
X0154444Y0124850D02*
X0152604Y0124850D01*
X0151605Y0125848D02*
X0155442Y0125848D01*
X0161605Y0125848D02*
X0165824Y0125848D01*
X0166060Y0126020D02*
X0165462Y0125585D01*
X0164939Y0125062D01*
X0164504Y0124463D01*
X0164168Y0123804D01*
X0163939Y0123101D01*
X0163844Y0122500D01*
X0168024Y0122500D01*
X0168024Y0126679D01*
X0167423Y0126584D01*
X0166719Y0126356D01*
X0166060Y0126020D01*
X0164784Y0124850D02*
X0162604Y0124850D01*
X0163061Y0123851D02*
X0164192Y0123851D01*
X0163900Y0122853D02*
X0163424Y0122853D01*
X0163424Y0121854D02*
X0168024Y0121854D01*
X0168024Y0121500D02*
X0163844Y0121500D01*
X0163939Y0120899D01*
X0164168Y0120196D01*
X0164504Y0119537D01*
X0164939Y0118938D01*
X0165462Y0118415D01*
X0166060Y0117980D01*
X0166719Y0117644D01*
X0167423Y0117416D01*
X0168024Y0117321D01*
X0168024Y0121500D01*
X0169024Y0121500D01*
X0169024Y0122500D01*
X0173203Y0122500D01*
X0173108Y0123101D01*
X0172879Y0123804D01*
X0172543Y0124463D01*
X0172109Y0125062D01*
X0171585Y0125585D01*
X0170987Y0126020D01*
X0170328Y0126356D01*
X0169624Y0126584D01*
X0169024Y0126679D01*
X0169024Y0122500D01*
X0168024Y0122500D01*
X0168024Y0121500D01*
X0168024Y0120856D02*
X0169024Y0120856D01*
X0169024Y0121500D02*
X0169024Y0117321D01*
X0169624Y0117416D01*
X0170328Y0117644D01*
X0170987Y0117980D01*
X0171585Y0118415D01*
X0172109Y0118938D01*
X0172543Y0119537D01*
X0172879Y0120196D01*
X0173108Y0120899D01*
X0173203Y0121500D01*
X0169024Y0121500D01*
X0169024Y0121854D02*
X0204024Y0121854D01*
X0204024Y0120856D02*
X0173094Y0120856D01*
X0172707Y0119857D02*
X0204024Y0119857D01*
X0204024Y0118859D02*
X0172029Y0118859D01*
X0170751Y0117860D02*
X0204024Y0117860D01*
X0204024Y0116862D02*
X0074624Y0116862D01*
X0074624Y0117860D02*
X0095734Y0117860D01*
X0094735Y0118859D02*
X0074624Y0118859D01*
X0074624Y0119857D02*
X0094108Y0119857D01*
X0093694Y0120856D02*
X0074624Y0120856D01*
X0074624Y0121854D02*
X0093624Y0121854D01*
X0093624Y0122853D02*
X0074624Y0122853D01*
X0074624Y0123851D02*
X0093137Y0123851D01*
X0092138Y0124850D02*
X0074624Y0124850D01*
X0074624Y0125848D02*
X0091140Y0125848D01*
X0090141Y0126847D02*
X0074624Y0126847D01*
X0074624Y0127845D02*
X0089143Y0127845D01*
X0088144Y0128844D02*
X0074624Y0128844D01*
X0074624Y0129842D02*
X0087146Y0129842D01*
X0086147Y0130841D02*
X0074624Y0130841D01*
X0074624Y0131839D02*
X0085149Y0131839D01*
X0084150Y0132838D02*
X0074624Y0132838D01*
X0074624Y0133836D02*
X0083152Y0133836D01*
X0082153Y0134835D02*
X0074624Y0134835D01*
X0074624Y0135833D02*
X0081155Y0135833D01*
X0080156Y0136832D02*
X0074624Y0136832D01*
X0074624Y0137830D02*
X0079302Y0137830D01*
X0079024Y0138829D02*
X0074624Y0138829D01*
X0074624Y0139827D02*
X0079024Y0139827D01*
X0079024Y0140826D02*
X0074624Y0140826D01*
X0074624Y0141824D02*
X0079024Y0141824D01*
X0079024Y0142823D02*
X0074624Y0142823D01*
X0074624Y0143821D02*
X0079024Y0143821D01*
X0079024Y0144820D02*
X0074624Y0144820D01*
X0074624Y0145818D02*
X0079024Y0145818D01*
X0079024Y0146817D02*
X0074624Y0146817D01*
X0074624Y0147815D02*
X0079024Y0147815D01*
X0079024Y0148814D02*
X0074624Y0148814D01*
X0074624Y0149812D02*
X0078074Y0149812D01*
X0077076Y0150811D02*
X0074624Y0150811D01*
X0074624Y0151809D02*
X0076586Y0151809D01*
X0076172Y0152808D02*
X0074624Y0152808D01*
X0074624Y0153806D02*
X0076124Y0153806D01*
X0076124Y0154805D02*
X0074624Y0154805D01*
X0074624Y0155803D02*
X0076426Y0155803D01*
X0076839Y0156802D02*
X0074624Y0156802D01*
X0074624Y0157801D02*
X0077687Y0157801D01*
X0078999Y0158799D02*
X0074624Y0158799D01*
X0074624Y0159798D02*
X0133786Y0159798D01*
X0134784Y0160796D02*
X0074624Y0160796D01*
X0074624Y0161795D02*
X0135783Y0161795D01*
X0136781Y0162793D02*
X0074624Y0162793D01*
X0074624Y0163792D02*
X0137780Y0163792D01*
X0138778Y0164790D02*
X0074624Y0164790D01*
X0074624Y0165789D02*
X0139777Y0165789D01*
X0140775Y0166787D02*
X0074624Y0166787D01*
X0074624Y0167786D02*
X0141774Y0167786D01*
X0142772Y0168784D02*
X0074624Y0168784D01*
X0074624Y0169783D02*
X0143771Y0169783D01*
X0144769Y0170781D02*
X0074624Y0170781D01*
X0074624Y0171780D02*
X0145768Y0171780D01*
X0146766Y0172778D02*
X0074624Y0172778D01*
X0074624Y0173777D02*
X0147765Y0173777D01*
X0148763Y0174775D02*
X0074624Y0174775D01*
X0074624Y0175774D02*
X0149762Y0175774D01*
X0150760Y0176772D02*
X0074624Y0176772D01*
X0074624Y0177771D02*
X0151759Y0177771D01*
X0152757Y0178769D02*
X0074624Y0178769D01*
X0074624Y0179768D02*
X0082357Y0179768D01*
X0081312Y0180201D02*
X0078724Y0182789D01*
X0077324Y0186170D01*
X0077324Y0189830D01*
X0078724Y0193211D01*
X0081312Y0195799D01*
X0084694Y0197200D01*
X0088354Y0197200D01*
X0091735Y0195799D01*
X0094323Y0193211D01*
X0095724Y0189830D01*
X0095724Y0186170D01*
X0094323Y0182789D01*
X0091735Y0180201D01*
X0088354Y0178800D01*
X0084694Y0178800D01*
X0081312Y0180201D01*
X0080747Y0180766D02*
X0074624Y0180766D01*
X0074624Y0181765D02*
X0079748Y0181765D01*
X0078750Y0182763D02*
X0074624Y0182763D01*
X0074624Y0183762D02*
X0078321Y0183762D01*
X0077908Y0184760D02*
X0074624Y0184760D01*
X0074624Y0185759D02*
X0077494Y0185759D01*
X0077324Y0186757D02*
X0074624Y0186757D01*
X0074624Y0187756D02*
X0077324Y0187756D01*
X0077324Y0188754D02*
X0074624Y0188754D01*
X0074624Y0189753D02*
X0077324Y0189753D01*
X0077705Y0190751D02*
X0074624Y0190751D01*
X0074624Y0191750D02*
X0078119Y0191750D01*
X0078532Y0192748D02*
X0074624Y0192748D01*
X0074624Y0193747D02*
X0079260Y0193747D01*
X0080258Y0194745D02*
X0074624Y0194745D01*
X0074624Y0195744D02*
X0081257Y0195744D01*
X0083589Y0196742D02*
X0074624Y0196742D01*
X0074624Y0197741D02*
X0097839Y0197741D01*
X0097705Y0198004D02*
X0098076Y0197275D01*
X0098557Y0196612D01*
X0099136Y0196034D01*
X0099798Y0195553D01*
X0100528Y0195181D01*
X0101306Y0194928D01*
X0102024Y0194814D01*
X0102024Y0199500D01*
X0103024Y0199500D01*
X0103024Y0194814D01*
X0103741Y0194928D01*
X0104520Y0195181D01*
X0105249Y0195553D01*
X0105911Y0196034D01*
X0106490Y0196612D01*
X0106971Y0197275D01*
X0107343Y0198004D01*
X0107414Y0198224D01*
X0107946Y0196941D01*
X0109465Y0195422D01*
X0110024Y0195191D01*
X0110024Y0183503D01*
X0110404Y0182584D01*
X0111107Y0181881D01*
X0112026Y0181500D01*
X0144231Y0181500D01*
X0144604Y0181127D01*
X0145850Y0180611D01*
X0147198Y0180611D01*
X0148443Y0181127D01*
X0149397Y0182080D01*
X0149913Y0183326D01*
X0149913Y0184674D01*
X0149397Y0185920D01*
X0148443Y0186873D01*
X0147198Y0187389D01*
X0145850Y0187389D01*
X0144604Y0186873D01*
X0144231Y0186500D01*
X0115024Y0186500D01*
X0115024Y0195191D01*
X0115582Y0195422D01*
X0117102Y0196941D01*
X0117524Y0197960D01*
X0117946Y0196941D01*
X0119465Y0195422D01*
X0121449Y0194600D01*
X0123598Y0194600D01*
X0125582Y0195422D01*
X0127102Y0196941D01*
X0127924Y0198926D01*
X0127924Y0201074D01*
X0127102Y0203059D01*
X0125582Y0204578D01*
X0123598Y0205400D01*
X0121449Y0205400D01*
X0119465Y0204578D01*
X0117946Y0203059D01*
X0117524Y0202040D01*
X0117102Y0203059D01*
X0115582Y0204578D01*
X0113598Y0205400D01*
X0111449Y0205400D01*
X0109465Y0204578D01*
X0107946Y0203059D01*
X0107414Y0201776D01*
X0107343Y0201996D01*
X0106971Y0202725D01*
X0106490Y0203388D01*
X0105911Y0203966D01*
X0105249Y0204447D01*
X0104520Y0204819D01*
X0103741Y0205072D01*
X0103024Y0205186D01*
X0103024Y0200500D01*
X0102024Y0200500D01*
X0102024Y0205186D01*
X0101306Y0205072D01*
X0100528Y0204819D01*
X0099798Y0204447D01*
X0099136Y0203966D01*
X0098557Y0203388D01*
X0098076Y0202725D01*
X0097705Y0201996D01*
X0097452Y0201218D01*
X0097338Y0200500D01*
X0102024Y0200500D01*
X0102024Y0199500D01*
X0097338Y0199500D01*
X0097452Y0198782D01*
X0097705Y0198004D01*
X0097466Y0198739D02*
X0074624Y0198739D01*
X0074624Y0199738D02*
X0102024Y0199738D01*
X0102024Y0200737D02*
X0103024Y0200737D01*
X0103024Y0201735D02*
X0102024Y0201735D01*
X0102024Y0202734D02*
X0103024Y0202734D01*
X0103024Y0203732D02*
X0102024Y0203732D01*
X0102024Y0204731D02*
X0103024Y0204731D01*
X0104693Y0204731D02*
X0109833Y0204731D01*
X0108619Y0203732D02*
X0106145Y0203732D01*
X0106965Y0202734D02*
X0107811Y0202734D01*
X0107614Y0197741D02*
X0107209Y0197741D01*
X0106584Y0196742D02*
X0108144Y0196742D01*
X0109143Y0195744D02*
X0105512Y0195744D01*
X0103024Y0195744D02*
X0102024Y0195744D01*
X0102024Y0196742D02*
X0103024Y0196742D01*
X0103024Y0197741D02*
X0102024Y0197741D01*
X0102024Y0198739D02*
X0103024Y0198739D01*
X0099535Y0195744D02*
X0091790Y0195744D01*
X0092789Y0194745D02*
X0110024Y0194745D01*
X0110024Y0193747D02*
X0093787Y0193747D01*
X0094515Y0192748D02*
X0110024Y0192748D01*
X0110024Y0191750D02*
X0094928Y0191750D01*
X0095342Y0190751D02*
X0110024Y0190751D01*
X0110024Y0189753D02*
X0095724Y0189753D01*
X0095724Y0188754D02*
X0110024Y0188754D01*
X0110024Y0187756D02*
X0095724Y0187756D01*
X0095724Y0186757D02*
X0110024Y0186757D01*
X0110024Y0185759D02*
X0095553Y0185759D01*
X0095140Y0184760D02*
X0110024Y0184760D01*
X0110024Y0183762D02*
X0094726Y0183762D01*
X0094298Y0182763D02*
X0110330Y0182763D01*
X0111387Y0181765D02*
X0093299Y0181765D01*
X0092301Y0180766D02*
X0145475Y0180766D01*
X0147573Y0180766D02*
X0154754Y0180766D01*
X0153756Y0179768D02*
X0090690Y0179768D01*
X0115024Y0186757D02*
X0144488Y0186757D01*
X0148559Y0186757D02*
X0160745Y0186757D01*
X0159747Y0185759D02*
X0149463Y0185759D01*
X0149877Y0184760D02*
X0158748Y0184760D01*
X0157750Y0183762D02*
X0149913Y0183762D01*
X0149680Y0182763D02*
X0156751Y0182763D01*
X0155753Y0181765D02*
X0149081Y0181765D01*
X0155834Y0174775D02*
X0237763Y0174775D01*
X0236765Y0173777D02*
X0154836Y0173777D01*
X0153837Y0172778D02*
X0235766Y0172778D01*
X0238762Y0175774D02*
X0156833Y0175774D01*
X0157831Y0176772D02*
X0239760Y0176772D01*
X0240759Y0177771D02*
X0158830Y0177771D01*
X0159828Y0178769D02*
X0241757Y0178769D01*
X0242756Y0179768D02*
X0160827Y0179768D01*
X0161825Y0180766D02*
X0243754Y0180766D01*
X0244753Y0181765D02*
X0162824Y0181765D01*
X0163822Y0182763D02*
X0245751Y0182763D01*
X0246750Y0183762D02*
X0164821Y0183762D01*
X0165819Y0184760D02*
X0247748Y0184760D01*
X0248747Y0185759D02*
X0166818Y0185759D01*
X0167816Y0186757D02*
X0249745Y0186757D01*
X0250744Y0187756D02*
X0168815Y0187756D01*
X0169814Y0188754D02*
X0251742Y0188754D01*
X0252024Y0189753D02*
X0170812Y0189753D01*
X0171811Y0190751D02*
X0252024Y0190751D01*
X0252024Y0191750D02*
X0172809Y0191750D01*
X0177064Y0192748D02*
X0182515Y0192748D01*
X0182719Y0192644D02*
X0183423Y0192416D01*
X0184024Y0192321D01*
X0184024Y0196500D01*
X0185024Y0196500D01*
X0185024Y0197500D01*
X0189203Y0197500D01*
X0189108Y0198101D01*
X0188879Y0198804D01*
X0188543Y0199463D01*
X0188109Y0200062D01*
X0187585Y0200585D01*
X0186987Y0201020D01*
X0186328Y0201356D01*
X0185624Y0201584D01*
X0185024Y0201679D01*
X0185024Y0197500D01*
X0184024Y0197500D01*
X0184024Y0201679D01*
X0183423Y0201584D01*
X0182719Y0201356D01*
X0182060Y0201020D01*
X0181462Y0200585D01*
X0180939Y0200062D01*
X0180504Y0199463D01*
X0180168Y0198804D01*
X0179939Y0198101D01*
X0179844Y0197500D01*
X0184024Y0197500D01*
X0184024Y0196500D01*
X0179844Y0196500D01*
X0179939Y0195899D01*
X0180168Y0195196D01*
X0180504Y0194537D01*
X0180939Y0193938D01*
X0181462Y0193415D01*
X0182060Y0192980D01*
X0182719Y0192644D01*
X0184024Y0192748D02*
X0185024Y0192748D01*
X0185024Y0192321D02*
X0185624Y0192416D01*
X0186328Y0192644D01*
X0186987Y0192980D01*
X0187585Y0193415D01*
X0188109Y0193938D01*
X0188543Y0194537D01*
X0188879Y0195196D01*
X0189108Y0195899D01*
X0189203Y0196500D01*
X0185024Y0196500D01*
X0185024Y0192321D01*
X0185024Y0193747D02*
X0184024Y0193747D01*
X0184024Y0194745D02*
X0185024Y0194745D01*
X0185024Y0195744D02*
X0184024Y0195744D01*
X0184024Y0196742D02*
X0179424Y0196742D01*
X0179424Y0197741D02*
X0179882Y0197741D01*
X0180147Y0198739D02*
X0179107Y0198739D01*
X0178693Y0199738D02*
X0180703Y0199738D01*
X0181670Y0200737D02*
X0177717Y0200737D01*
X0175897Y0201735D02*
X0193151Y0201735D01*
X0193549Y0201900D02*
X0191748Y0201154D01*
X0190370Y0199776D01*
X0189624Y0197975D01*
X0189624Y0196025D01*
X0190370Y0194224D01*
X0191748Y0192846D01*
X0193549Y0192100D01*
X0195498Y0192100D01*
X0197299Y0192846D01*
X0198678Y0194224D01*
X0199424Y0196025D01*
X0199424Y0197975D01*
X0198678Y0199776D01*
X0197299Y0201154D01*
X0195498Y0201900D01*
X0193549Y0201900D01*
X0195897Y0201735D02*
X0203151Y0201735D01*
X0203549Y0201900D02*
X0201748Y0201154D01*
X0200370Y0199776D01*
X0199624Y0197975D01*
X0199624Y0196025D01*
X0200370Y0194224D01*
X0201748Y0192846D01*
X0203549Y0192100D01*
X0205498Y0192100D01*
X0207299Y0192846D01*
X0208678Y0194224D01*
X0209424Y0196025D01*
X0209424Y0197975D01*
X0208678Y0199776D01*
X0207299Y0201154D01*
X0205498Y0201900D01*
X0203549Y0201900D01*
X0205897Y0201735D02*
X0213151Y0201735D01*
X0213549Y0201900D02*
X0211748Y0201154D01*
X0210370Y0199776D01*
X0209624Y0197975D01*
X0209624Y0196025D01*
X0210370Y0194224D01*
X0211748Y0192846D01*
X0213549Y0192100D01*
X0215498Y0192100D01*
X0217299Y0192846D01*
X0218678Y0194224D01*
X0219424Y0196025D01*
X0219424Y0197975D01*
X0218678Y0199776D01*
X0217299Y0201154D01*
X0215498Y0201900D01*
X0213549Y0201900D01*
X0215897Y0201735D02*
X0223151Y0201735D01*
X0223549Y0201900D02*
X0221748Y0201154D01*
X0220370Y0199776D01*
X0219624Y0197975D01*
X0219624Y0196025D01*
X0220370Y0194224D01*
X0221748Y0192846D01*
X0223549Y0192100D01*
X0225498Y0192100D01*
X0227299Y0192846D01*
X0228678Y0194224D01*
X0229424Y0196025D01*
X0229424Y0197975D01*
X0228678Y0199776D01*
X0227299Y0201154D01*
X0225498Y0201900D01*
X0223549Y0201900D01*
X0225897Y0201735D02*
X0233151Y0201735D01*
X0233549Y0201900D02*
X0231748Y0201154D01*
X0230370Y0199776D01*
X0229624Y0197975D01*
X0229624Y0196025D01*
X0230370Y0194224D01*
X0231748Y0192846D01*
X0233549Y0192100D01*
X0235498Y0192100D01*
X0237299Y0192846D01*
X0238678Y0194224D01*
X0239424Y0196025D01*
X0239424Y0197975D01*
X0238678Y0199776D01*
X0237299Y0201154D01*
X0235498Y0201900D01*
X0233549Y0201900D01*
X0235897Y0201735D02*
X0252024Y0201735D01*
X0252024Y0200737D02*
X0247377Y0200737D01*
X0247585Y0200585D02*
X0246987Y0201020D01*
X0246328Y0201356D01*
X0245624Y0201584D01*
X0245024Y0201679D01*
X0245024Y0197500D01*
X0249203Y0197500D01*
X0249108Y0198101D01*
X0248879Y0198804D01*
X0248543Y0199463D01*
X0248109Y0200062D01*
X0247585Y0200585D01*
X0248344Y0199738D02*
X0252024Y0199738D01*
X0252024Y0198739D02*
X0248900Y0198739D01*
X0249165Y0197741D02*
X0252024Y0197741D01*
X0252024Y0196742D02*
X0245024Y0196742D01*
X0245024Y0196500D02*
X0245024Y0197500D01*
X0244024Y0197500D01*
X0244024Y0201679D01*
X0243423Y0201584D01*
X0242719Y0201356D01*
X0242060Y0201020D01*
X0241462Y0200585D01*
X0240939Y0200062D01*
X0240504Y0199463D01*
X0240168Y0198804D01*
X0239939Y0198101D01*
X0239844Y0197500D01*
X0244024Y0197500D01*
X0244024Y0196500D01*
X0245024Y0196500D01*
X0249203Y0196500D01*
X0249108Y0195899D01*
X0248879Y0195196D01*
X0248543Y0194537D01*
X0248109Y0193938D01*
X0247585Y0193415D01*
X0246987Y0192980D01*
X0246328Y0192644D01*
X0245624Y0192416D01*
X0245024Y0192321D01*
X0245024Y0196500D01*
X0245024Y0195744D02*
X0244024Y0195744D01*
X0244024Y0196500D02*
X0244024Y0192321D01*
X0243423Y0192416D01*
X0242719Y0192644D01*
X0242060Y0192980D01*
X0241462Y0193415D01*
X0240939Y0193938D01*
X0240504Y0194537D01*
X0240168Y0195196D01*
X0239939Y0195899D01*
X0239844Y0196500D01*
X0244024Y0196500D01*
X0244024Y0196742D02*
X0239424Y0196742D01*
X0239424Y0197741D02*
X0239882Y0197741D01*
X0240147Y0198739D02*
X0239107Y0198739D01*
X0238693Y0199738D02*
X0240703Y0199738D01*
X0241670Y0200737D02*
X0237717Y0200737D01*
X0231330Y0200737D02*
X0227717Y0200737D01*
X0228693Y0199738D02*
X0230354Y0199738D01*
X0229940Y0198739D02*
X0229107Y0198739D01*
X0229424Y0197741D02*
X0229624Y0197741D01*
X0229624Y0196742D02*
X0229424Y0196742D01*
X0229307Y0195744D02*
X0229740Y0195744D01*
X0230154Y0194745D02*
X0228893Y0194745D01*
X0228200Y0193747D02*
X0230847Y0193747D01*
X0231984Y0192748D02*
X0227064Y0192748D01*
X0221984Y0192748D02*
X0217064Y0192748D01*
X0218200Y0193747D02*
X0220847Y0193747D01*
X0220154Y0194745D02*
X0218893Y0194745D01*
X0219307Y0195744D02*
X0219740Y0195744D01*
X0219624Y0196742D02*
X0219424Y0196742D01*
X0219424Y0197741D02*
X0219624Y0197741D01*
X0219940Y0198739D02*
X0219107Y0198739D01*
X0218693Y0199738D02*
X0220354Y0199738D01*
X0221330Y0200737D02*
X0217717Y0200737D01*
X0211330Y0200737D02*
X0207717Y0200737D01*
X0208693Y0199738D02*
X0210354Y0199738D01*
X0209940Y0198739D02*
X0209107Y0198739D01*
X0209424Y0197741D02*
X0209624Y0197741D01*
X0209624Y0196742D02*
X0209424Y0196742D01*
X0209307Y0195744D02*
X0209740Y0195744D01*
X0210154Y0194745D02*
X0208893Y0194745D01*
X0208200Y0193747D02*
X0210847Y0193747D01*
X0211984Y0192748D02*
X0207064Y0192748D01*
X0201984Y0192748D02*
X0197064Y0192748D01*
X0198200Y0193747D02*
X0200847Y0193747D01*
X0200154Y0194745D02*
X0198893Y0194745D01*
X0199307Y0195744D02*
X0199740Y0195744D01*
X0199624Y0196742D02*
X0199424Y0196742D01*
X0199424Y0197741D02*
X0199624Y0197741D01*
X0199940Y0198739D02*
X0199107Y0198739D01*
X0198693Y0199738D02*
X0200354Y0199738D01*
X0201330Y0200737D02*
X0197717Y0200737D01*
X0191330Y0200737D02*
X0187377Y0200737D01*
X0188344Y0199738D02*
X0190354Y0199738D01*
X0189940Y0198739D02*
X0188900Y0198739D01*
X0189165Y0197741D02*
X0189624Y0197741D01*
X0189624Y0196742D02*
X0185024Y0196742D01*
X0185024Y0197741D02*
X0184024Y0197741D01*
X0184024Y0198739D02*
X0185024Y0198739D01*
X0185024Y0199738D02*
X0184024Y0199738D01*
X0184024Y0200737D02*
X0185024Y0200737D01*
X0189057Y0195744D02*
X0189740Y0195744D01*
X0190154Y0194745D02*
X0188650Y0194745D01*
X0187917Y0193747D02*
X0190847Y0193747D01*
X0191984Y0192748D02*
X0186532Y0192748D01*
X0181130Y0193747D02*
X0178200Y0193747D01*
X0178893Y0194745D02*
X0180397Y0194745D01*
X0179990Y0195744D02*
X0179307Y0195744D01*
X0171330Y0200737D02*
X0127924Y0200737D01*
X0127924Y0199738D02*
X0170354Y0199738D01*
X0169940Y0198739D02*
X0127846Y0198739D01*
X0127433Y0197741D02*
X0169624Y0197741D01*
X0169624Y0196742D02*
X0126903Y0196742D01*
X0125904Y0195744D02*
X0169732Y0195744D01*
X0168734Y0194745D02*
X0123949Y0194745D01*
X0121098Y0194745D02*
X0115024Y0194745D01*
X0115024Y0193747D02*
X0167735Y0193747D01*
X0166737Y0192748D02*
X0115024Y0192748D01*
X0115024Y0191750D02*
X0165738Y0191750D01*
X0164739Y0190751D02*
X0115024Y0190751D01*
X0115024Y0189753D02*
X0163741Y0189753D01*
X0162742Y0188754D02*
X0115024Y0188754D01*
X0115024Y0187756D02*
X0161744Y0187756D01*
X0173151Y0201735D02*
X0127650Y0201735D01*
X0127236Y0202734D02*
X0252024Y0202734D01*
X0252024Y0203732D02*
X0126428Y0203732D01*
X0125214Y0204731D02*
X0252024Y0204731D01*
X0252024Y0205729D02*
X0074624Y0205729D01*
X0074624Y0204731D02*
X0100354Y0204731D01*
X0098902Y0203732D02*
X0074624Y0203732D01*
X0074624Y0202734D02*
X0098082Y0202734D01*
X0097620Y0201735D02*
X0074624Y0201735D01*
X0074624Y0200737D02*
X0097375Y0200737D01*
X0098463Y0196742D02*
X0089458Y0196742D01*
X0074624Y0206728D02*
X0252024Y0206728D01*
X0252024Y0207726D02*
X0074624Y0207726D01*
X0074624Y0208725D02*
X0252024Y0208725D01*
X0252024Y0209723D02*
X0074624Y0209723D01*
X0074624Y0210722D02*
X0252024Y0210722D01*
X0252024Y0211720D02*
X0074624Y0211720D01*
X0074624Y0212719D02*
X0151163Y0212719D01*
X0151449Y0212600D02*
X0153598Y0212600D01*
X0155582Y0213422D01*
X0157102Y0214941D01*
X0157524Y0215960D01*
X0157946Y0214941D01*
X0159465Y0213422D01*
X0161449Y0212600D01*
X0163598Y0212600D01*
X0165582Y0213422D01*
X0167102Y0214941D01*
X0167524Y0215960D01*
X0167946Y0214941D01*
X0169465Y0213422D01*
X0171449Y0212600D01*
X0173598Y0212600D01*
X0175582Y0213422D01*
X0177102Y0214941D01*
X0177524Y0215960D01*
X0177946Y0214941D01*
X0179465Y0213422D01*
X0181449Y0212600D01*
X0183598Y0212600D01*
X0185582Y0213422D01*
X0187102Y0214941D01*
X0187524Y0215960D01*
X0187946Y0214941D01*
X0189465Y0213422D01*
X0191449Y0212600D01*
X0193598Y0212600D01*
X0195582Y0213422D01*
X0197102Y0214941D01*
X0197524Y0215960D01*
X0197946Y0214941D01*
X0199465Y0213422D01*
X0201449Y0212600D01*
X0203598Y0212600D01*
X0205582Y0213422D01*
X0207102Y0214941D01*
X0207524Y0215960D01*
X0207946Y0214941D01*
X0209465Y0213422D01*
X0211449Y0212600D01*
X0213598Y0212600D01*
X0215582Y0213422D01*
X0217102Y0214941D01*
X0217524Y0215960D01*
X0217946Y0214941D01*
X0219465Y0213422D01*
X0221449Y0212600D01*
X0223598Y0212600D01*
X0225582Y0213422D01*
X0227102Y0214941D01*
X0227924Y0216926D01*
X0227924Y0219074D01*
X0227102Y0221059D01*
X0225582Y0222578D01*
X0223598Y0223400D01*
X0221449Y0223400D01*
X0219465Y0222578D01*
X0217946Y0221059D01*
X0217524Y0220040D01*
X0217102Y0221059D01*
X0215582Y0222578D01*
X0213598Y0223400D01*
X0211449Y0223400D01*
X0209465Y0222578D01*
X0207946Y0221059D01*
X0207524Y0220040D01*
X0207102Y0221059D01*
X0205582Y0222578D01*
X0203598Y0223400D01*
X0201449Y0223400D01*
X0199465Y0222578D01*
X0197946Y0221059D01*
X0197524Y0220040D01*
X0197102Y0221059D01*
X0195582Y0222578D01*
X0193598Y0223400D01*
X0191449Y0223400D01*
X0189465Y0222578D01*
X0187946Y0221059D01*
X0187524Y0220040D01*
X0187102Y0221059D01*
X0185582Y0222578D01*
X0183598Y0223400D01*
X0181449Y0223400D01*
X0179465Y0222578D01*
X0177946Y0221059D01*
X0177524Y0220040D01*
X0177102Y0221059D01*
X0175582Y0222578D01*
X0173598Y0223400D01*
X0171449Y0223400D01*
X0169465Y0222578D01*
X0167946Y0221059D01*
X0167524Y0220040D01*
X0167102Y0221059D01*
X0165582Y0222578D01*
X0163598Y0223400D01*
X0161449Y0223400D01*
X0159465Y0222578D01*
X0157946Y0221059D01*
X0157524Y0220040D01*
X0157102Y0221059D01*
X0155582Y0222578D01*
X0153598Y0223400D01*
X0151449Y0223400D01*
X0149465Y0222578D01*
X0147946Y0221059D01*
X0147414Y0219776D01*
X0147343Y0219996D01*
X0146971Y0220725D01*
X0146490Y0221388D01*
X0145911Y0221966D01*
X0145249Y0222447D01*
X0144520Y0222819D01*
X0143741Y0223072D01*
X0143024Y0223186D01*
X0143024Y0218500D01*
X0142024Y0218500D01*
X0142024Y0223186D01*
X0141306Y0223072D01*
X0140528Y0222819D01*
X0139798Y0222447D01*
X0139136Y0221966D01*
X0138557Y0221388D01*
X0138076Y0220725D01*
X0137705Y0219996D01*
X0137452Y0219218D01*
X0137338Y0218500D01*
X0142024Y0218500D01*
X0142024Y0217500D01*
X0143024Y0217500D01*
X0143024Y0212814D01*
X0143741Y0212928D01*
X0144520Y0213181D01*
X0145249Y0213553D01*
X0145911Y0214034D01*
X0146490Y0214612D01*
X0146971Y0215275D01*
X0147343Y0216004D01*
X0147414Y0216224D01*
X0147946Y0214941D01*
X0149465Y0213422D01*
X0151449Y0212600D01*
X0153884Y0212719D02*
X0161163Y0212719D01*
X0159170Y0213717D02*
X0155878Y0213717D01*
X0156876Y0214716D02*
X0158171Y0214716D01*
X0157626Y0215714D02*
X0157422Y0215714D01*
X0157247Y0220707D02*
X0157800Y0220707D01*
X0158592Y0221705D02*
X0156455Y0221705D01*
X0155279Y0222704D02*
X0159769Y0222704D01*
X0165279Y0222704D02*
X0169769Y0222704D01*
X0168592Y0221705D02*
X0166455Y0221705D01*
X0167247Y0220707D02*
X0167800Y0220707D01*
X0167626Y0215714D02*
X0167422Y0215714D01*
X0166876Y0214716D02*
X0168171Y0214716D01*
X0169170Y0213717D02*
X0165878Y0213717D01*
X0163884Y0212719D02*
X0171163Y0212719D01*
X0173884Y0212719D02*
X0181163Y0212719D01*
X0179170Y0213717D02*
X0175878Y0213717D01*
X0176876Y0214716D02*
X0178171Y0214716D01*
X0177626Y0215714D02*
X0177422Y0215714D01*
X0177247Y0220707D02*
X0177800Y0220707D01*
X0178592Y0221705D02*
X0176455Y0221705D01*
X0175279Y0222704D02*
X0179769Y0222704D01*
X0185279Y0222704D02*
X0189769Y0222704D01*
X0188592Y0221705D02*
X0186455Y0221705D01*
X0187247Y0220707D02*
X0187800Y0220707D01*
X0187626Y0215714D02*
X0187422Y0215714D01*
X0186876Y0214716D02*
X0188171Y0214716D01*
X0189170Y0213717D02*
X0185878Y0213717D01*
X0183884Y0212719D02*
X0191163Y0212719D01*
X0193884Y0212719D02*
X0201163Y0212719D01*
X0199170Y0213717D02*
X0195878Y0213717D01*
X0196876Y0214716D02*
X0198171Y0214716D01*
X0197626Y0215714D02*
X0197422Y0215714D01*
X0203884Y0212719D02*
X0211163Y0212719D01*
X0209170Y0213717D02*
X0205878Y0213717D01*
X0206876Y0214716D02*
X0208171Y0214716D01*
X0207626Y0215714D02*
X0207422Y0215714D01*
X0207247Y0220707D02*
X0207800Y0220707D01*
X0208592Y0221705D02*
X0206455Y0221705D01*
X0205279Y0222704D02*
X0209769Y0222704D01*
X0215279Y0222704D02*
X0219769Y0222704D01*
X0218592Y0221705D02*
X0216455Y0221705D01*
X0217247Y0220707D02*
X0217800Y0220707D01*
X0217626Y0215714D02*
X0217422Y0215714D01*
X0216876Y0214716D02*
X0218171Y0214716D01*
X0219170Y0213717D02*
X0215878Y0213717D01*
X0213884Y0212719D02*
X0221163Y0212719D01*
X0223884Y0212719D02*
X0252024Y0212719D01*
X0252024Y0213717D02*
X0225878Y0213717D01*
X0226876Y0214716D02*
X0252024Y0214716D01*
X0251274Y0215714D02*
X0227422Y0215714D01*
X0227835Y0216713D02*
X0250275Y0216713D01*
X0249277Y0217711D02*
X0227924Y0217711D01*
X0227924Y0218710D02*
X0248278Y0218710D01*
X0247280Y0219708D02*
X0227661Y0219708D01*
X0227247Y0220707D02*
X0246281Y0220707D01*
X0245283Y0221705D02*
X0226455Y0221705D01*
X0225279Y0222704D02*
X0244284Y0222704D01*
X0243286Y0223702D02*
X0074624Y0223702D01*
X0074624Y0222704D02*
X0140301Y0222704D01*
X0142024Y0222704D02*
X0143024Y0222704D01*
X0143024Y0221705D02*
X0142024Y0221705D01*
X0142024Y0220707D02*
X0143024Y0220707D01*
X0143024Y0219708D02*
X0142024Y0219708D01*
X0142024Y0218710D02*
X0143024Y0218710D01*
X0142024Y0217711D02*
X0074624Y0217711D01*
X0074624Y0216713D02*
X0137474Y0216713D01*
X0137452Y0216782D02*
X0137705Y0216004D01*
X0138076Y0215275D01*
X0138557Y0214612D01*
X0139136Y0214034D01*
X0139798Y0213553D01*
X0140528Y0213181D01*
X0141306Y0212928D01*
X0142024Y0212814D01*
X0142024Y0217500D01*
X0137338Y0217500D01*
X0137452Y0216782D01*
X0137852Y0215714D02*
X0074624Y0215714D01*
X0074624Y0214716D02*
X0138482Y0214716D01*
X0139572Y0213717D02*
X0074624Y0213717D01*
X0074624Y0218710D02*
X0137371Y0218710D01*
X0137611Y0219708D02*
X0074624Y0219708D01*
X0074624Y0220707D02*
X0138067Y0220707D01*
X0138875Y0221705D02*
X0074624Y0221705D01*
X0074624Y0224701D02*
X0242287Y0224701D01*
X0241289Y0225699D02*
X0074624Y0225699D01*
X0074624Y0226698D02*
X0240290Y0226698D01*
X0239292Y0227696D02*
X0074624Y0227696D01*
X0074624Y0228695D02*
X0101221Y0228695D01*
X0101449Y0228600D02*
X0103598Y0228600D01*
X0105582Y0229422D01*
X0107102Y0230941D01*
X0107524Y0231960D01*
X0107946Y0230941D01*
X0109465Y0229422D01*
X0111449Y0228600D01*
X0113598Y0228600D01*
X0115582Y0229422D01*
X0117102Y0230941D01*
X0117524Y0231960D01*
X0117946Y0230941D01*
X0119465Y0229422D01*
X0121449Y0228600D01*
X0123598Y0228600D01*
X0125582Y0229422D01*
X0127102Y0230941D01*
X0127633Y0232224D01*
X0127705Y0232004D01*
X0128076Y0231275D01*
X0128557Y0230612D01*
X0129136Y0230034D01*
X0129798Y0229553D01*
X0130528Y0229181D01*
X0131306Y0228928D01*
X0132024Y0228814D01*
X0132024Y0233500D01*
X0133024Y0233500D01*
X0133024Y0228814D01*
X0133741Y0228928D01*
X0134520Y0229181D01*
X0135249Y0229553D01*
X0135911Y0230034D01*
X0136490Y0230612D01*
X0136971Y0231275D01*
X0137343Y0232004D01*
X0137414Y0232224D01*
X0137946Y0230941D01*
X0139465Y0229422D01*
X0141449Y0228600D01*
X0143598Y0228600D01*
X0145582Y0229422D01*
X0147102Y0230941D01*
X0147524Y0231960D01*
X0147946Y0230941D01*
X0149465Y0229422D01*
X0151449Y0228600D01*
X0153598Y0228600D01*
X0155582Y0229422D01*
X0157102Y0230941D01*
X0157524Y0231960D01*
X0157946Y0230941D01*
X0159465Y0229422D01*
X0161449Y0228600D01*
X0163598Y0228600D01*
X0165582Y0229422D01*
X0167102Y0230941D01*
X0167524Y0231960D01*
X0167946Y0230941D01*
X0169465Y0229422D01*
X0171449Y0228600D01*
X0173598Y0228600D01*
X0175582Y0229422D01*
X0177102Y0230941D01*
X0177524Y0231960D01*
X0177946Y0230941D01*
X0179465Y0229422D01*
X0181449Y0228600D01*
X0183598Y0228600D01*
X0185582Y0229422D01*
X0187102Y0230941D01*
X0187524Y0231960D01*
X0187946Y0230941D01*
X0189465Y0229422D01*
X0191449Y0228600D01*
X0193598Y0228600D01*
X0195582Y0229422D01*
X0197102Y0230941D01*
X0197924Y0232926D01*
X0197924Y0235074D01*
X0197102Y0237059D01*
X0195582Y0238578D01*
X0193598Y0239400D01*
X0191449Y0239400D01*
X0189465Y0238578D01*
X0187946Y0237059D01*
X0187524Y0236040D01*
X0187102Y0237059D01*
X0185582Y0238578D01*
X0183598Y0239400D01*
X0181449Y0239400D01*
X0179465Y0238578D01*
X0177946Y0237059D01*
X0177524Y0236040D01*
X0177102Y0237059D01*
X0175582Y0238578D01*
X0173598Y0239400D01*
X0171449Y0239400D01*
X0169465Y0238578D01*
X0167946Y0237059D01*
X0167524Y0236040D01*
X0167102Y0237059D01*
X0165582Y0238578D01*
X0163598Y0239400D01*
X0161449Y0239400D01*
X0159465Y0238578D01*
X0157946Y0237059D01*
X0157524Y0236040D01*
X0157102Y0237059D01*
X0155582Y0238578D01*
X0153598Y0239400D01*
X0151449Y0239400D01*
X0149465Y0238578D01*
X0147946Y0237059D01*
X0147524Y0236040D01*
X0147102Y0237059D01*
X0145582Y0238578D01*
X0143598Y0239400D01*
X0141449Y0239400D01*
X0139465Y0238578D01*
X0137946Y0237059D01*
X0137414Y0235776D01*
X0137343Y0235996D01*
X0136971Y0236725D01*
X0136490Y0237388D01*
X0135911Y0237966D01*
X0135249Y0238447D01*
X0134520Y0238819D01*
X0133741Y0239072D01*
X0133024Y0239186D01*
X0133024Y0234500D01*
X0132024Y0234500D01*
X0132024Y0239186D01*
X0131306Y0239072D01*
X0130528Y0238819D01*
X0129798Y0238447D01*
X0129136Y0237966D01*
X0128557Y0237388D01*
X0128076Y0236725D01*
X0127705Y0235996D01*
X0127633Y0235776D01*
X0127102Y0237059D01*
X0125582Y0238578D01*
X0123598Y0239400D01*
X0121449Y0239400D01*
X0119465Y0238578D01*
X0117946Y0237059D01*
X0117524Y0236040D01*
X0117102Y0237059D01*
X0115582Y0238578D01*
X0113598Y0239400D01*
X0111449Y0239400D01*
X0109465Y0238578D01*
X0107946Y0237059D01*
X0107524Y0236040D01*
X0107102Y0237059D01*
X0105582Y0238578D01*
X0103598Y0239400D01*
X0101449Y0239400D01*
X0099465Y0238578D01*
X0097946Y0237059D01*
X0097124Y0235074D01*
X0097124Y0232926D01*
X0097946Y0230941D01*
X0099465Y0229422D01*
X0101449Y0228600D01*
X0103827Y0228695D02*
X0111221Y0228695D01*
X0109194Y0229693D02*
X0105854Y0229693D01*
X0106852Y0230692D02*
X0108195Y0230692D01*
X0107635Y0231690D02*
X0107412Y0231690D01*
X0107257Y0236683D02*
X0107790Y0236683D01*
X0108568Y0237681D02*
X0106479Y0237681D01*
X0105336Y0238680D02*
X0109711Y0238680D01*
X0115336Y0238680D02*
X0119711Y0238680D01*
X0118568Y0237681D02*
X0116479Y0237681D01*
X0117257Y0236683D02*
X0117790Y0236683D01*
X0117635Y0231690D02*
X0117412Y0231690D01*
X0116852Y0230692D02*
X0118195Y0230692D01*
X0119194Y0229693D02*
X0115854Y0229693D01*
X0113827Y0228695D02*
X0121221Y0228695D01*
X0123827Y0228695D02*
X0141221Y0228695D01*
X0139194Y0229693D02*
X0135443Y0229693D01*
X0136548Y0230692D02*
X0138195Y0230692D01*
X0137635Y0231690D02*
X0137183Y0231690D01*
X0133024Y0231690D02*
X0132024Y0231690D01*
X0132024Y0230692D02*
X0133024Y0230692D01*
X0133024Y0229693D02*
X0132024Y0229693D01*
X0129604Y0229693D02*
X0125854Y0229693D01*
X0126852Y0230692D02*
X0128500Y0230692D01*
X0127864Y0231690D02*
X0127412Y0231690D01*
X0132024Y0232689D02*
X0133024Y0232689D01*
X0133024Y0234686D02*
X0132024Y0234686D01*
X0132024Y0235684D02*
X0133024Y0235684D01*
X0133024Y0236683D02*
X0132024Y0236683D01*
X0132024Y0237681D02*
X0133024Y0237681D01*
X0133024Y0238680D02*
X0132024Y0238680D01*
X0130255Y0238680D02*
X0125336Y0238680D01*
X0126479Y0237681D02*
X0128851Y0237681D01*
X0128055Y0236683D02*
X0127257Y0236683D01*
X0134793Y0238680D02*
X0139711Y0238680D01*
X0138568Y0237681D02*
X0136196Y0237681D01*
X0136993Y0236683D02*
X0137790Y0236683D01*
X0145336Y0238680D02*
X0149711Y0238680D01*
X0148568Y0237681D02*
X0146479Y0237681D01*
X0147257Y0236683D02*
X0147790Y0236683D01*
X0147635Y0231690D02*
X0147412Y0231690D01*
X0146852Y0230692D02*
X0148195Y0230692D01*
X0149194Y0229693D02*
X0145854Y0229693D01*
X0143827Y0228695D02*
X0151221Y0228695D01*
X0153827Y0228695D02*
X0161221Y0228695D01*
X0159194Y0229693D02*
X0155854Y0229693D01*
X0156852Y0230692D02*
X0158195Y0230692D01*
X0157635Y0231690D02*
X0157412Y0231690D01*
X0157257Y0236683D02*
X0157790Y0236683D01*
X0158568Y0237681D02*
X0156479Y0237681D01*
X0155336Y0238680D02*
X0159711Y0238680D01*
X0165336Y0238680D02*
X0169711Y0238680D01*
X0168568Y0237681D02*
X0166479Y0237681D01*
X0167257Y0236683D02*
X0167790Y0236683D01*
X0167635Y0231690D02*
X0167412Y0231690D01*
X0166852Y0230692D02*
X0168195Y0230692D01*
X0169194Y0229693D02*
X0165854Y0229693D01*
X0163827Y0228695D02*
X0171221Y0228695D01*
X0173827Y0228695D02*
X0181221Y0228695D01*
X0179194Y0229693D02*
X0175854Y0229693D01*
X0176852Y0230692D02*
X0178195Y0230692D01*
X0177635Y0231690D02*
X0177412Y0231690D01*
X0177257Y0236683D02*
X0177790Y0236683D01*
X0178568Y0237681D02*
X0176479Y0237681D01*
X0175336Y0238680D02*
X0179711Y0238680D01*
X0185336Y0238680D02*
X0189711Y0238680D01*
X0188568Y0237681D02*
X0186479Y0237681D01*
X0187257Y0236683D02*
X0187790Y0236683D01*
X0187635Y0231690D02*
X0187412Y0231690D01*
X0186852Y0230692D02*
X0188195Y0230692D01*
X0189194Y0229693D02*
X0185854Y0229693D01*
X0183827Y0228695D02*
X0191221Y0228695D01*
X0193827Y0228695D02*
X0206221Y0228695D01*
X0204194Y0229693D02*
X0195854Y0229693D01*
X0196852Y0230692D02*
X0203195Y0230692D01*
X0202635Y0231690D02*
X0197412Y0231690D01*
X0197825Y0232689D02*
X0202222Y0232689D01*
X0202124Y0233687D02*
X0197924Y0233687D01*
X0197924Y0234686D02*
X0202124Y0234686D01*
X0202376Y0235684D02*
X0197671Y0235684D01*
X0197257Y0236683D02*
X0202790Y0236683D01*
X0203568Y0237681D02*
X0196479Y0237681D01*
X0195336Y0238680D02*
X0204711Y0238680D01*
X0210336Y0238680D02*
X0214711Y0238680D01*
X0213568Y0237681D02*
X0211479Y0237681D01*
X0212257Y0236683D02*
X0212790Y0236683D01*
X0212635Y0231690D02*
X0212412Y0231690D01*
X0211852Y0230692D02*
X0213195Y0230692D01*
X0214194Y0229693D02*
X0210854Y0229693D01*
X0208827Y0228695D02*
X0216221Y0228695D01*
X0218827Y0228695D02*
X0226221Y0228695D01*
X0224194Y0229693D02*
X0220854Y0229693D01*
X0221852Y0230692D02*
X0223195Y0230692D01*
X0222635Y0231690D02*
X0222412Y0231690D01*
X0222257Y0236683D02*
X0222790Y0236683D01*
X0223568Y0237681D02*
X0221479Y0237681D01*
X0220336Y0238680D02*
X0224711Y0238680D01*
X0230336Y0238680D02*
X0234711Y0238680D01*
X0233568Y0237681D02*
X0231479Y0237681D01*
X0232257Y0236683D02*
X0232790Y0236683D01*
X0232635Y0231690D02*
X0232412Y0231690D01*
X0231852Y0230692D02*
X0233195Y0230692D01*
X0234194Y0229693D02*
X0230854Y0229693D01*
X0228827Y0228695D02*
X0236221Y0228695D01*
X0245364Y0228695D02*
X0246221Y0228695D01*
X0246363Y0227696D02*
X0250292Y0227696D01*
X0251290Y0226698D02*
X0247361Y0226698D01*
X0248360Y0225699D02*
X0252289Y0225699D01*
X0253287Y0224701D02*
X0249358Y0224701D01*
X0250357Y0223702D02*
X0254286Y0223702D01*
X0255284Y0222704D02*
X0251355Y0222704D01*
X0252354Y0221705D02*
X0256283Y0221705D01*
X0257281Y0220707D02*
X0253352Y0220707D01*
X0254351Y0219708D02*
X0258024Y0219708D01*
X0258024Y0218710D02*
X0255349Y0218710D01*
X0256348Y0217711D02*
X0258024Y0217711D01*
X0258024Y0216713D02*
X0256934Y0216713D01*
X0257024Y0215714D02*
X0258024Y0215714D01*
X0258024Y0214716D02*
X0257024Y0214716D01*
X0257024Y0213717D02*
X0258024Y0213717D01*
X0258024Y0212719D02*
X0257024Y0212719D01*
X0257024Y0211720D02*
X0258024Y0211720D01*
X0258024Y0210722D02*
X0257024Y0210722D01*
X0257024Y0209723D02*
X0258024Y0209723D01*
X0258024Y0208725D02*
X0257024Y0208725D01*
X0257024Y0207726D02*
X0258024Y0207726D01*
X0258024Y0206728D02*
X0257024Y0206728D01*
X0257024Y0205729D02*
X0258024Y0205729D01*
X0258024Y0204731D02*
X0257024Y0204731D01*
X0257024Y0203732D02*
X0258024Y0203732D01*
X0258024Y0202734D02*
X0257024Y0202734D01*
X0257024Y0201735D02*
X0258024Y0201735D01*
X0258024Y0200737D02*
X0257024Y0200737D01*
X0257024Y0199738D02*
X0258024Y0199738D01*
X0258024Y0198739D02*
X0257024Y0198739D01*
X0257024Y0197741D02*
X0258024Y0197741D01*
X0258024Y0196742D02*
X0257024Y0196742D01*
X0257024Y0195744D02*
X0258024Y0195744D01*
X0258024Y0194745D02*
X0257024Y0194745D01*
X0257024Y0193747D02*
X0258024Y0193747D01*
X0258024Y0192748D02*
X0257024Y0192748D01*
X0257024Y0191750D02*
X0258024Y0191750D01*
X0258024Y0190751D02*
X0257024Y0190751D01*
X0257024Y0189753D02*
X0258024Y0189753D01*
X0258024Y0188754D02*
X0257024Y0188754D01*
X0257024Y0187756D02*
X0258024Y0187756D01*
X0258024Y0186757D02*
X0256715Y0186757D01*
X0255818Y0185759D02*
X0258024Y0185759D01*
X0258024Y0184760D02*
X0254819Y0184760D01*
X0253821Y0183762D02*
X0258024Y0183762D01*
X0258024Y0182763D02*
X0252822Y0182763D01*
X0251824Y0181765D02*
X0258024Y0181765D01*
X0258024Y0180766D02*
X0250825Y0180766D01*
X0249827Y0179768D02*
X0258024Y0179768D01*
X0258024Y0178769D02*
X0248828Y0178769D01*
X0247830Y0177771D02*
X0258024Y0177771D01*
X0258024Y0176772D02*
X0246831Y0176772D01*
X0245833Y0175774D02*
X0258024Y0175774D01*
X0258024Y0174775D02*
X0244834Y0174775D01*
X0243836Y0173777D02*
X0258024Y0173777D01*
X0258024Y0172778D02*
X0242837Y0172778D01*
X0241839Y0171780D02*
X0255768Y0171780D01*
X0254769Y0170781D02*
X0240840Y0170781D01*
X0239842Y0169783D02*
X0253771Y0169783D01*
X0252772Y0168784D02*
X0238843Y0168784D01*
X0237710Y0167786D02*
X0251774Y0167786D01*
X0250775Y0166787D02*
X0188846Y0166787D01*
X0187848Y0165789D02*
X0249777Y0165789D01*
X0248778Y0164790D02*
X0186849Y0164790D01*
X0185851Y0163792D02*
X0247780Y0163792D01*
X0246781Y0162793D02*
X0184852Y0162793D01*
X0183854Y0161795D02*
X0245783Y0161795D01*
X0244784Y0160796D02*
X0182855Y0160796D01*
X0181857Y0159798D02*
X0243786Y0159798D01*
X0242787Y0158799D02*
X0180858Y0158799D01*
X0179860Y0157801D02*
X0241789Y0157801D01*
X0240790Y0156802D02*
X0178861Y0156802D01*
X0177863Y0155803D02*
X0239792Y0155803D01*
X0238793Y0154805D02*
X0177024Y0154805D01*
X0177024Y0153806D02*
X0237795Y0153806D01*
X0236796Y0152808D02*
X0177024Y0152808D01*
X0177024Y0151809D02*
X0183330Y0151809D01*
X0181405Y0150811D02*
X0177642Y0150811D01*
X0178641Y0149812D02*
X0180406Y0149812D01*
X0179971Y0148814D02*
X0179076Y0148814D01*
X0179424Y0147815D02*
X0179624Y0147815D01*
X0179624Y0146817D02*
X0179424Y0146817D01*
X0179338Y0145818D02*
X0179709Y0145818D01*
X0180123Y0144820D02*
X0178924Y0144820D01*
X0178275Y0143821D02*
X0180773Y0143821D01*
X0181804Y0142823D02*
X0177243Y0142823D01*
X0171804Y0142823D02*
X0123882Y0142823D01*
X0124880Y0143821D02*
X0170773Y0143821D01*
X0170123Y0144820D02*
X0125879Y0144820D01*
X0126878Y0145818D02*
X0169709Y0145818D01*
X0169624Y0146817D02*
X0127876Y0146817D01*
X0128875Y0147815D02*
X0169624Y0147815D01*
X0169971Y0148814D02*
X0129873Y0148814D01*
X0130872Y0149812D02*
X0170406Y0149812D01*
X0171405Y0150811D02*
X0131870Y0150811D01*
X0132869Y0151809D02*
X0172024Y0151809D01*
X0172024Y0152808D02*
X0133867Y0152808D01*
X0134866Y0153806D02*
X0172024Y0153806D01*
X0172024Y0154805D02*
X0135864Y0154805D01*
X0136863Y0155803D02*
X0172024Y0155803D01*
X0172150Y0156802D02*
X0137861Y0156802D01*
X0138860Y0157801D02*
X0172789Y0157801D01*
X0173787Y0158799D02*
X0139858Y0158799D01*
X0140857Y0159798D02*
X0174786Y0159798D01*
X0175784Y0160796D02*
X0141855Y0160796D01*
X0142854Y0161795D02*
X0176783Y0161795D01*
X0177781Y0162793D02*
X0143852Y0162793D01*
X0144851Y0163792D02*
X0178780Y0163792D01*
X0179778Y0164790D02*
X0145849Y0164790D01*
X0146848Y0165789D02*
X0180777Y0165789D01*
X0181775Y0166787D02*
X0147846Y0166787D01*
X0148845Y0167786D02*
X0182774Y0167786D01*
X0183772Y0168784D02*
X0149843Y0168784D01*
X0150842Y0169783D02*
X0184771Y0169783D01*
X0185769Y0170781D02*
X0151840Y0170781D01*
X0152839Y0171780D02*
X0186768Y0171780D01*
X0201748Y0151154D02*
X0203549Y0151900D01*
X0205498Y0151900D01*
X0207299Y0151154D01*
X0208678Y0149776D01*
X0209424Y0147975D01*
X0209424Y0146025D01*
X0208678Y0144224D01*
X0207299Y0142846D01*
X0205498Y0142100D01*
X0203549Y0142100D01*
X0201748Y0142846D01*
X0200370Y0144224D01*
X0199624Y0146025D01*
X0199624Y0147975D01*
X0200370Y0149776D01*
X0201748Y0151154D01*
X0201405Y0150811D02*
X0197642Y0150811D01*
X0198641Y0149812D02*
X0200406Y0149812D01*
X0199971Y0148814D02*
X0199076Y0148814D01*
X0199424Y0147815D02*
X0199624Y0147815D01*
X0199624Y0146817D02*
X0199424Y0146817D01*
X0199338Y0145818D02*
X0199709Y0145818D01*
X0200123Y0144820D02*
X0198924Y0144820D01*
X0198275Y0143821D02*
X0200773Y0143821D01*
X0201804Y0142823D02*
X0197243Y0142823D01*
X0197024Y0141824D02*
X0222024Y0141824D01*
X0222024Y0140826D02*
X0197024Y0140826D01*
X0197024Y0139827D02*
X0222024Y0139827D01*
X0222024Y0138829D02*
X0197024Y0138829D01*
X0192024Y0138829D02*
X0119888Y0138829D01*
X0120886Y0139827D02*
X0192024Y0139827D01*
X0192024Y0140826D02*
X0121885Y0140826D01*
X0122883Y0141824D02*
X0192024Y0141824D01*
X0191804Y0142823D02*
X0187243Y0142823D01*
X0188275Y0143821D02*
X0190773Y0143821D01*
X0192024Y0137830D02*
X0118889Y0137830D01*
X0117891Y0136832D02*
X0192024Y0136832D01*
X0192024Y0135833D02*
X0116892Y0135833D01*
X0115894Y0134835D02*
X0192300Y0134835D01*
X0193215Y0133836D02*
X0114895Y0133836D01*
X0113897Y0132838D02*
X0204024Y0132838D01*
X0204024Y0131839D02*
X0112898Y0131839D01*
X0111900Y0130841D02*
X0204024Y0130841D01*
X0204024Y0129842D02*
X0110847Y0129842D01*
X0109024Y0125848D02*
X0108024Y0125848D01*
X0108024Y0124850D02*
X0109024Y0124850D01*
X0109024Y0123851D02*
X0108024Y0123851D01*
X0108024Y0122853D02*
X0109024Y0122853D01*
X0109024Y0119857D02*
X0108024Y0119857D01*
X0108024Y0118859D02*
X0109024Y0118859D01*
X0109024Y0117860D02*
X0108024Y0117860D01*
X0106296Y0117860D02*
X0101313Y0117860D01*
X0102312Y0118859D02*
X0105018Y0118859D01*
X0104341Y0119857D02*
X0102940Y0119857D01*
X0103353Y0120856D02*
X0103954Y0120856D01*
X0110751Y0117860D02*
X0115734Y0117860D01*
X0114735Y0118859D02*
X0112029Y0118859D01*
X0112707Y0119857D02*
X0114108Y0119857D01*
X0113694Y0120856D02*
X0113094Y0120856D01*
X0096024Y0128844D02*
X0095215Y0128844D01*
X0096024Y0129842D02*
X0094217Y0129842D01*
X0093218Y0130841D02*
X0096024Y0130841D01*
X0096024Y0131839D02*
X0092220Y0131839D01*
X0091221Y0132838D02*
X0096165Y0132838D01*
X0096824Y0133836D02*
X0090223Y0133836D01*
X0089224Y0134835D02*
X0108823Y0134835D01*
X0109821Y0135833D02*
X0088226Y0135833D01*
X0087227Y0136832D02*
X0110820Y0136832D01*
X0111818Y0137830D02*
X0086229Y0137830D01*
X0085230Y0138829D02*
X0112817Y0138829D01*
X0113815Y0139827D02*
X0084232Y0139827D01*
X0084024Y0140826D02*
X0114814Y0140826D01*
X0115812Y0141824D02*
X0084024Y0141824D01*
X0084024Y0142823D02*
X0116811Y0142823D01*
X0117809Y0143821D02*
X0084024Y0143821D01*
X0084024Y0144820D02*
X0118808Y0144820D01*
X0119806Y0145818D02*
X0084024Y0145818D01*
X0084024Y0146817D02*
X0120805Y0146817D01*
X0121804Y0147815D02*
X0084024Y0147815D01*
X0084024Y0148814D02*
X0122802Y0148814D01*
X0123801Y0149812D02*
X0094607Y0149812D01*
X0095634Y0150811D02*
X0124799Y0150811D01*
X0125798Y0151809D02*
X0096244Y0151809D01*
X0096600Y0152808D02*
X0126796Y0152808D01*
X0127795Y0153806D02*
X0092024Y0153806D01*
X0092024Y0152808D02*
X0091024Y0152808D01*
X0091024Y0151809D02*
X0092024Y0151809D01*
X0092024Y0150811D02*
X0091024Y0150811D01*
X0091024Y0149812D02*
X0092024Y0149812D01*
X0088441Y0149812D02*
X0084973Y0149812D01*
X0085971Y0150811D02*
X0087413Y0150811D01*
X0086804Y0151809D02*
X0086461Y0151809D01*
X0086622Y0155803D02*
X0086642Y0155803D01*
X0086208Y0156802D02*
X0087132Y0156802D01*
X0087970Y0157801D02*
X0085360Y0157801D01*
X0084049Y0158799D02*
X0089488Y0158799D01*
X0091024Y0158799D02*
X0092024Y0158799D01*
X0092024Y0157801D02*
X0091024Y0157801D01*
X0091024Y0156802D02*
X0092024Y0156802D01*
X0092024Y0155803D02*
X0091024Y0155803D01*
X0091024Y0154805D02*
X0092024Y0154805D01*
X0095077Y0157801D02*
X0131789Y0157801D01*
X0132787Y0158799D02*
X0093559Y0158799D01*
X0095915Y0156802D02*
X0130790Y0156802D01*
X0129792Y0155803D02*
X0096405Y0155803D01*
X0096661Y0154805D02*
X0128793Y0154805D01*
X0168024Y0125848D02*
X0169024Y0125848D01*
X0169024Y0124850D02*
X0168024Y0124850D01*
X0168024Y0123851D02*
X0169024Y0123851D01*
X0169024Y0122853D02*
X0168024Y0122853D01*
X0168024Y0119857D02*
X0169024Y0119857D01*
X0169024Y0118859D02*
X0168024Y0118859D01*
X0168024Y0117860D02*
X0169024Y0117860D01*
X0166296Y0117860D02*
X0161313Y0117860D01*
X0162312Y0118859D02*
X0165018Y0118859D01*
X0164341Y0119857D02*
X0162940Y0119857D01*
X0163353Y0120856D02*
X0163954Y0120856D01*
X0171223Y0125848D02*
X0204024Y0125848D01*
X0204024Y0124850D02*
X0172263Y0124850D01*
X0172855Y0123851D02*
X0204024Y0123851D01*
X0204024Y0122853D02*
X0173147Y0122853D01*
X0204024Y0115863D02*
X0074624Y0115863D01*
X0074624Y0114865D02*
X0204024Y0114865D01*
X0204024Y0113866D02*
X0074624Y0113866D01*
X0074624Y0112868D02*
X0204024Y0112868D01*
X0204024Y0111869D02*
X0074624Y0111869D01*
X0074624Y0110870D02*
X0204024Y0110870D01*
X0204024Y0109872D02*
X0074624Y0109872D01*
X0074624Y0108873D02*
X0204024Y0108873D01*
X0204024Y0107875D02*
X0074624Y0107875D01*
X0074624Y0106876D02*
X0204024Y0106876D01*
X0204024Y0105878D02*
X0074624Y0105878D01*
X0074624Y0104879D02*
X0204024Y0104879D01*
X0204024Y0103881D02*
X0074624Y0103881D01*
X0074624Y0102882D02*
X0204024Y0102882D01*
X0204024Y0101884D02*
X0074624Y0101884D01*
X0074624Y0100885D02*
X0204024Y0100885D01*
X0209024Y0100885D02*
X0348272Y0100885D01*
X0348465Y0101078D02*
X0346946Y0099559D01*
X0346124Y0097574D01*
X0346124Y0095426D01*
X0346946Y0093441D01*
X0348465Y0091922D01*
X0349484Y0091500D01*
X0348465Y0091078D01*
X0346946Y0089559D01*
X0346124Y0087574D01*
X0346124Y0085426D01*
X0346946Y0083441D01*
X0348465Y0081922D01*
X0349484Y0081500D01*
X0348465Y0081078D01*
X0346946Y0079559D01*
X0346124Y0077574D01*
X0346124Y0075426D01*
X0346946Y0073441D01*
X0348465Y0071922D01*
X0349484Y0071500D01*
X0348465Y0071078D01*
X0346946Y0069559D01*
X0346124Y0067574D01*
X0346124Y0065426D01*
X0346946Y0063441D01*
X0348465Y0061922D01*
X0350449Y0061100D01*
X0352598Y0061100D01*
X0354582Y0061922D01*
X0356102Y0063441D01*
X0356924Y0065426D01*
X0356924Y0067574D01*
X0356102Y0069559D01*
X0354582Y0071078D01*
X0353563Y0071500D01*
X0354582Y0071922D01*
X0356102Y0073441D01*
X0356924Y0075426D01*
X0356924Y0077574D01*
X0356102Y0079559D01*
X0354582Y0081078D01*
X0353563Y0081500D01*
X0354582Y0081922D01*
X0356102Y0083441D01*
X0356924Y0085426D01*
X0356924Y0087574D01*
X0356102Y0089559D01*
X0354582Y0091078D01*
X0353563Y0091500D01*
X0354582Y0091922D01*
X0356102Y0093441D01*
X0356924Y0095426D01*
X0356924Y0097574D01*
X0356102Y0099559D01*
X0354582Y0101078D01*
X0352598Y0101900D01*
X0350449Y0101900D01*
X0348465Y0101078D01*
X0347274Y0099887D02*
X0209024Y0099887D01*
X0209171Y0098888D02*
X0346668Y0098888D01*
X0346254Y0097890D02*
X0210169Y0097890D01*
X0211168Y0096891D02*
X0346124Y0096891D01*
X0346124Y0095893D02*
X0212166Y0095893D01*
X0213165Y0094894D02*
X0346344Y0094894D01*
X0346757Y0093896D02*
X0214163Y0093896D01*
X0215162Y0092897D02*
X0347490Y0092897D01*
X0348521Y0091899D02*
X0216160Y0091899D01*
X0217159Y0090900D02*
X0348287Y0090900D01*
X0347289Y0089902D02*
X0218157Y0089902D01*
X0219156Y0088903D02*
X0346674Y0088903D01*
X0346261Y0087905D02*
X0220154Y0087905D01*
X0221153Y0086906D02*
X0346124Y0086906D01*
X0346124Y0085908D02*
X0222151Y0085908D01*
X0223150Y0084909D02*
X0346338Y0084909D01*
X0346751Y0083911D02*
X0224148Y0083911D01*
X0225147Y0082912D02*
X0347475Y0082912D01*
X0348485Y0081914D02*
X0226145Y0081914D01*
X0227144Y0080915D02*
X0348302Y0080915D01*
X0347304Y0079917D02*
X0228143Y0079917D01*
X0229141Y0078918D02*
X0346680Y0078918D01*
X0346267Y0077920D02*
X0230140Y0077920D01*
X0231138Y0076921D02*
X0346124Y0076921D01*
X0346124Y0075923D02*
X0274137Y0075923D01*
X0274847Y0074924D02*
X0346331Y0074924D01*
X0346745Y0073926D02*
X0275024Y0073926D01*
X0275024Y0072927D02*
X0347460Y0072927D01*
X0348458Y0071929D02*
X0275024Y0071929D01*
X0275024Y0070930D02*
X0348317Y0070930D01*
X0347318Y0069932D02*
X0275024Y0069932D01*
X0275520Y0068933D02*
X0279527Y0068933D01*
X0279748Y0069154D02*
X0278370Y0067776D01*
X0277624Y0065975D01*
X0277624Y0064025D01*
X0278370Y0062224D01*
X0279748Y0060846D01*
X0281549Y0060100D01*
X0283498Y0060100D01*
X0285299Y0060846D01*
X0286678Y0062224D01*
X0287424Y0064025D01*
X0287424Y0065975D01*
X0286678Y0067776D01*
X0285299Y0069154D01*
X0283498Y0069900D01*
X0281549Y0069900D01*
X0279748Y0069154D01*
X0278528Y0067934D02*
X0276519Y0067934D01*
X0277025Y0066936D02*
X0278022Y0066936D01*
X0277624Y0065937D02*
X0277424Y0065937D01*
X0277424Y0064939D02*
X0277624Y0064939D01*
X0277659Y0063940D02*
X0277388Y0063940D01*
X0276975Y0062942D02*
X0278072Y0062942D01*
X0278651Y0061943D02*
X0276397Y0061943D01*
X0275398Y0060945D02*
X0279649Y0060945D01*
X0285398Y0060945D02*
X0289649Y0060945D01*
X0289748Y0060846D02*
X0291549Y0060100D01*
X0293498Y0060100D01*
X0295299Y0060846D01*
X0296678Y0062224D01*
X0297424Y0064025D01*
X0297424Y0065975D01*
X0296678Y0067776D01*
X0295299Y0069154D01*
X0293498Y0069900D01*
X0291549Y0069900D01*
X0289748Y0069154D01*
X0288370Y0067776D01*
X0287624Y0065975D01*
X0287624Y0064025D01*
X0288370Y0062224D01*
X0289748Y0060846D01*
X0288651Y0061943D02*
X0286397Y0061943D01*
X0286975Y0062942D02*
X0288072Y0062942D01*
X0287659Y0063940D02*
X0287388Y0063940D01*
X0287424Y0064939D02*
X0287624Y0064939D01*
X0287624Y0065937D02*
X0287424Y0065937D01*
X0287025Y0066936D02*
X0288022Y0066936D01*
X0288528Y0067934D02*
X0286519Y0067934D01*
X0285520Y0068933D02*
X0289527Y0068933D01*
X0295520Y0068933D02*
X0346686Y0068933D01*
X0346273Y0067934D02*
X0296519Y0067934D01*
X0297025Y0066936D02*
X0346124Y0066936D01*
X0346124Y0065937D02*
X0297424Y0065937D01*
X0297424Y0064939D02*
X0346325Y0064939D01*
X0346739Y0063940D02*
X0297388Y0063940D01*
X0296975Y0062942D02*
X0347445Y0062942D01*
X0348443Y0061943D02*
X0296397Y0061943D01*
X0295398Y0060945D02*
X0360424Y0060945D01*
X0360424Y0061943D02*
X0354604Y0061943D01*
X0355602Y0062942D02*
X0360424Y0062942D01*
X0360424Y0063940D02*
X0356308Y0063940D01*
X0356722Y0064939D02*
X0360424Y0064939D01*
X0360424Y0065937D02*
X0356924Y0065937D01*
X0356924Y0066936D02*
X0360424Y0066936D01*
X0360424Y0067934D02*
X0356774Y0067934D01*
X0356361Y0068933D02*
X0360424Y0068933D01*
X0360424Y0069932D02*
X0355729Y0069932D01*
X0354730Y0070930D02*
X0360424Y0070930D01*
X0360424Y0071929D02*
X0354589Y0071929D01*
X0355587Y0072927D02*
X0360424Y0072927D01*
X0360424Y0073926D02*
X0356302Y0073926D01*
X0356716Y0074924D02*
X0360424Y0074924D01*
X0360424Y0075923D02*
X0356924Y0075923D01*
X0356924Y0076921D02*
X0360424Y0076921D01*
X0360424Y0077920D02*
X0356781Y0077920D01*
X0356367Y0078918D02*
X0360424Y0078918D01*
X0360424Y0079917D02*
X0355744Y0079917D01*
X0354745Y0080915D02*
X0360424Y0080915D01*
X0360424Y0081914D02*
X0354562Y0081914D01*
X0355573Y0082912D02*
X0360424Y0082912D01*
X0360424Y0083911D02*
X0356296Y0083911D01*
X0356710Y0084909D02*
X0360424Y0084909D01*
X0360424Y0085908D02*
X0356924Y0085908D01*
X0356924Y0086906D02*
X0360424Y0086906D01*
X0360424Y0087905D02*
X0356787Y0087905D01*
X0356373Y0088903D02*
X0360424Y0088903D01*
X0360424Y0089902D02*
X0355759Y0089902D01*
X0354760Y0090900D02*
X0360424Y0090900D01*
X0360424Y0091899D02*
X0354526Y0091899D01*
X0355558Y0092897D02*
X0360424Y0092897D01*
X0360424Y0093896D02*
X0356290Y0093896D01*
X0356703Y0094894D02*
X0360424Y0094894D01*
X0360424Y0095893D02*
X0356924Y0095893D01*
X0356924Y0096891D02*
X0360424Y0096891D01*
X0360424Y0097890D02*
X0356793Y0097890D01*
X0356379Y0098888D02*
X0360424Y0098888D01*
X0360424Y0099887D02*
X0355773Y0099887D01*
X0354775Y0100885D02*
X0360424Y0100885D01*
X0360424Y0101884D02*
X0352637Y0101884D01*
X0350411Y0101884D02*
X0209024Y0101884D01*
X0209024Y0102882D02*
X0360424Y0102882D01*
X0360424Y0103881D02*
X0209024Y0103881D01*
X0209024Y0104879D02*
X0360424Y0104879D01*
X0360424Y0105878D02*
X0209024Y0105878D01*
X0209024Y0106876D02*
X0360424Y0106876D01*
X0360424Y0107875D02*
X0209024Y0107875D01*
X0209024Y0108873D02*
X0360424Y0108873D01*
X0360424Y0109872D02*
X0209024Y0109872D01*
X0209024Y0110870D02*
X0219723Y0110870D01*
X0219748Y0110846D02*
X0221549Y0110100D01*
X0223498Y0110100D01*
X0225299Y0110846D01*
X0226678Y0112224D01*
X0227424Y0114025D01*
X0227424Y0115975D01*
X0226678Y0117776D01*
X0225299Y0119154D01*
X0223498Y0119900D01*
X0221549Y0119900D01*
X0219748Y0119154D01*
X0218370Y0117776D01*
X0217624Y0115975D01*
X0217624Y0114025D01*
X0218370Y0112224D01*
X0219748Y0110846D01*
X0218725Y0111869D02*
X0209024Y0111869D01*
X0209024Y0112868D02*
X0218103Y0112868D01*
X0217690Y0113866D02*
X0209024Y0113866D01*
X0209024Y0114865D02*
X0217624Y0114865D01*
X0217624Y0115863D02*
X0209024Y0115863D01*
X0209024Y0116862D02*
X0217991Y0116862D01*
X0218454Y0117860D02*
X0209024Y0117860D01*
X0209024Y0118859D02*
X0219453Y0118859D01*
X0221445Y0119857D02*
X0209024Y0119857D01*
X0223602Y0119857D02*
X0241445Y0119857D01*
X0241549Y0119900D02*
X0239748Y0119154D01*
X0238370Y0117776D01*
X0237624Y0115975D01*
X0237624Y0114025D01*
X0238370Y0112224D01*
X0239748Y0110846D01*
X0241549Y0110100D01*
X0243498Y0110100D01*
X0245299Y0110846D01*
X0246678Y0112224D01*
X0247424Y0114025D01*
X0247424Y0115975D01*
X0246678Y0117776D01*
X0245299Y0119154D01*
X0243498Y0119900D01*
X0241549Y0119900D01*
X0243602Y0119857D02*
X0251445Y0119857D01*
X0251549Y0119900D02*
X0249748Y0119154D01*
X0248370Y0117776D01*
X0247624Y0115975D01*
X0247624Y0114025D01*
X0248370Y0112224D01*
X0249748Y0110846D01*
X0251549Y0110100D01*
X0253498Y0110100D01*
X0255299Y0110846D01*
X0256678Y0112224D01*
X0257424Y0114025D01*
X0257424Y0115975D01*
X0256678Y0117776D01*
X0255299Y0119154D01*
X0253498Y0119900D01*
X0251549Y0119900D01*
X0253602Y0119857D02*
X0261445Y0119857D01*
X0261549Y0119900D02*
X0259748Y0119154D01*
X0258370Y0117776D01*
X0257624Y0115975D01*
X0257624Y0114025D01*
X0258370Y0112224D01*
X0259748Y0110846D01*
X0261549Y0110100D01*
X0263498Y0110100D01*
X0265299Y0110846D01*
X0266678Y0112224D01*
X0267424Y0114025D01*
X0267424Y0115975D01*
X0266678Y0117776D01*
X0265299Y0119154D01*
X0263498Y0119900D01*
X0261549Y0119900D01*
X0263602Y0119857D02*
X0271445Y0119857D01*
X0269453Y0118859D02*
X0265595Y0118859D01*
X0266593Y0117860D02*
X0268454Y0117860D01*
X0267991Y0116862D02*
X0267056Y0116862D01*
X0267424Y0115863D02*
X0267624Y0115863D01*
X0267624Y0114865D02*
X0267424Y0114865D01*
X0267358Y0113866D02*
X0267690Y0113866D01*
X0268103Y0112868D02*
X0266944Y0112868D01*
X0266322Y0111869D02*
X0268725Y0111869D01*
X0269723Y0110870D02*
X0265324Y0110870D01*
X0259723Y0110870D02*
X0255324Y0110870D01*
X0256322Y0111869D02*
X0258725Y0111869D01*
X0258103Y0112868D02*
X0256944Y0112868D01*
X0257358Y0113866D02*
X0257690Y0113866D01*
X0257624Y0114865D02*
X0257424Y0114865D01*
X0257424Y0115863D02*
X0257624Y0115863D01*
X0257991Y0116862D02*
X0257056Y0116862D01*
X0256593Y0117860D02*
X0258454Y0117860D01*
X0259453Y0118859D02*
X0255595Y0118859D01*
X0249453Y0118859D02*
X0245595Y0118859D01*
X0246593Y0117860D02*
X0248454Y0117860D01*
X0247991Y0116862D02*
X0247056Y0116862D01*
X0247424Y0115863D02*
X0247624Y0115863D01*
X0247624Y0114865D02*
X0247424Y0114865D01*
X0247358Y0113866D02*
X0247690Y0113866D01*
X0248103Y0112868D02*
X0246944Y0112868D01*
X0246322Y0111869D02*
X0248725Y0111869D01*
X0249723Y0110870D02*
X0245324Y0110870D01*
X0239723Y0110870D02*
X0234772Y0110870D01*
X0234987Y0110980D02*
X0235585Y0111415D01*
X0236109Y0111938D01*
X0236543Y0112537D01*
X0236879Y0113196D01*
X0237108Y0113899D01*
X0237203Y0114500D01*
X0233024Y0114500D01*
X0233024Y0115500D01*
X0237203Y0115500D01*
X0237108Y0116101D01*
X0236879Y0116804D01*
X0236543Y0117463D01*
X0236109Y0118062D01*
X0235585Y0118585D01*
X0234987Y0119020D01*
X0234328Y0119356D01*
X0233624Y0119584D01*
X0233024Y0119679D01*
X0233024Y0115500D01*
X0232024Y0115500D01*
X0232024Y0119679D01*
X0231423Y0119584D01*
X0230719Y0119356D01*
X0230060Y0119020D01*
X0229462Y0118585D01*
X0228939Y0118062D01*
X0228504Y0117463D01*
X0228168Y0116804D01*
X0227939Y0116101D01*
X0227844Y0115500D01*
X0232024Y0115500D01*
X0232024Y0114500D01*
X0233024Y0114500D01*
X0233024Y0110321D01*
X0233624Y0110416D01*
X0234328Y0110644D01*
X0234987Y0110980D01*
X0236039Y0111869D02*
X0238725Y0111869D01*
X0238103Y0112868D02*
X0236712Y0112868D01*
X0237097Y0113866D02*
X0237690Y0113866D01*
X0237624Y0114865D02*
X0233024Y0114865D01*
X0233024Y0115863D02*
X0232024Y0115863D01*
X0232024Y0114865D02*
X0227424Y0114865D01*
X0227844Y0114500D02*
X0227939Y0113899D01*
X0228168Y0113196D01*
X0228504Y0112537D01*
X0228939Y0111938D01*
X0229462Y0111415D01*
X0230060Y0110980D01*
X0230719Y0110644D01*
X0231423Y0110416D01*
X0232024Y0110321D01*
X0232024Y0114500D01*
X0227844Y0114500D01*
X0227950Y0113866D02*
X0227358Y0113866D01*
X0226944Y0112868D02*
X0228335Y0112868D01*
X0229008Y0111869D02*
X0226322Y0111869D01*
X0225324Y0110870D02*
X0230276Y0110870D01*
X0232024Y0110870D02*
X0233024Y0110870D01*
X0233024Y0111869D02*
X0232024Y0111869D01*
X0232024Y0112868D02*
X0233024Y0112868D01*
X0233024Y0113866D02*
X0232024Y0113866D01*
X0232024Y0116862D02*
X0233024Y0116862D01*
X0233024Y0117860D02*
X0232024Y0117860D01*
X0232024Y0118859D02*
X0233024Y0118859D01*
X0235209Y0118859D02*
X0239453Y0118859D01*
X0238454Y0117860D02*
X0236255Y0117860D01*
X0236850Y0116862D02*
X0237991Y0116862D01*
X0237624Y0115863D02*
X0237146Y0115863D01*
X0229838Y0118859D02*
X0225595Y0118859D01*
X0226593Y0117860D02*
X0228792Y0117860D01*
X0228197Y0116862D02*
X0227056Y0116862D01*
X0227424Y0115863D02*
X0227902Y0115863D01*
X0227024Y0135833D02*
X0271898Y0135833D01*
X0271339Y0136832D02*
X0227024Y0136832D01*
X0227024Y0137830D02*
X0271135Y0137830D01*
X0271199Y0138829D02*
X0227024Y0138829D01*
X0227024Y0139827D02*
X0271612Y0139827D01*
X0272557Y0140826D02*
X0269716Y0140826D01*
X0271141Y0141824D02*
X0274812Y0141824D01*
X0275811Y0142823D02*
X0271704Y0142823D01*
X0271913Y0143821D02*
X0276809Y0143821D01*
X0277808Y0144820D02*
X0272879Y0144820D01*
X0273878Y0145818D02*
X0278806Y0145818D01*
X0279805Y0146817D02*
X0274876Y0146817D01*
X0275875Y0147815D02*
X0280803Y0147815D01*
X0281802Y0148814D02*
X0276873Y0148814D01*
X0277872Y0149812D02*
X0282801Y0149812D01*
X0283799Y0150811D02*
X0278870Y0150811D01*
X0279869Y0151809D02*
X0284798Y0151809D01*
X0285796Y0152808D02*
X0280867Y0152808D01*
X0281866Y0153806D02*
X0286795Y0153806D01*
X0287793Y0154805D02*
X0282864Y0154805D01*
X0283863Y0155803D02*
X0288792Y0155803D01*
X0289790Y0156802D02*
X0284861Y0156802D01*
X0285860Y0157801D02*
X0290789Y0157801D01*
X0291787Y0158799D02*
X0286858Y0158799D01*
X0287857Y0159798D02*
X0292786Y0159798D01*
X0293784Y0160796D02*
X0288855Y0160796D01*
X0289854Y0161795D02*
X0294783Y0161795D01*
X0295781Y0162793D02*
X0290852Y0162793D01*
X0291851Y0163792D02*
X0296780Y0163792D01*
X0297778Y0164790D02*
X0292849Y0164790D01*
X0293848Y0165789D02*
X0298777Y0165789D01*
X0299775Y0166787D02*
X0294846Y0166787D01*
X0295845Y0167786D02*
X0300774Y0167786D01*
X0301772Y0168784D02*
X0296843Y0168784D01*
X0297842Y0169783D02*
X0302771Y0169783D01*
X0303769Y0170781D02*
X0298840Y0170781D01*
X0299839Y0171780D02*
X0304768Y0171780D01*
X0305766Y0172778D02*
X0300837Y0172778D01*
X0301836Y0173777D02*
X0306765Y0173777D01*
X0307763Y0174775D02*
X0302834Y0174775D01*
X0303833Y0175774D02*
X0308762Y0175774D01*
X0309760Y0176772D02*
X0304831Y0176772D01*
X0305830Y0177771D02*
X0310759Y0177771D01*
X0311757Y0178769D02*
X0306828Y0178769D01*
X0307827Y0179768D02*
X0312756Y0179768D01*
X0313754Y0180766D02*
X0308825Y0180766D01*
X0309824Y0181765D02*
X0314753Y0181765D01*
X0315751Y0182763D02*
X0310822Y0182763D01*
X0311821Y0183762D02*
X0316750Y0183762D01*
X0317748Y0184760D02*
X0312819Y0184760D01*
X0313818Y0185759D02*
X0318747Y0185759D01*
X0319745Y0186757D02*
X0314816Y0186757D01*
X0315815Y0187756D02*
X0320744Y0187756D01*
X0321742Y0188754D02*
X0316814Y0188754D01*
X0317812Y0189753D02*
X0322741Y0189753D01*
X0323739Y0190751D02*
X0318811Y0190751D01*
X0319809Y0191750D02*
X0346818Y0191750D01*
X0347635Y0192748D02*
X0320808Y0192748D01*
X0321806Y0193747D02*
X0348873Y0193747D01*
X0348141Y0194745D02*
X0322805Y0194745D01*
X0323803Y0195744D02*
X0347143Y0195744D01*
X0346812Y0201735D02*
X0317794Y0201735D01*
X0316796Y0200737D02*
X0321725Y0200737D01*
X0320726Y0199738D02*
X0315797Y0199738D01*
X0314799Y0198739D02*
X0319728Y0198739D01*
X0318729Y0197741D02*
X0313800Y0197741D01*
X0312802Y0196742D02*
X0317731Y0196742D01*
X0316732Y0195744D02*
X0311803Y0195744D01*
X0310805Y0194745D02*
X0315734Y0194745D01*
X0314735Y0193747D02*
X0309806Y0193747D01*
X0308808Y0192748D02*
X0313737Y0192748D01*
X0312738Y0191750D02*
X0307809Y0191750D01*
X0306811Y0190751D02*
X0311739Y0190751D01*
X0310741Y0189753D02*
X0305812Y0189753D01*
X0304814Y0188754D02*
X0309742Y0188754D01*
X0308744Y0187756D02*
X0303815Y0187756D01*
X0302816Y0186757D02*
X0307745Y0186757D01*
X0306747Y0185759D02*
X0301818Y0185759D01*
X0300819Y0184760D02*
X0305748Y0184760D01*
X0304750Y0183762D02*
X0299821Y0183762D01*
X0298822Y0182763D02*
X0303751Y0182763D01*
X0302753Y0181765D02*
X0297824Y0181765D01*
X0296825Y0180766D02*
X0301754Y0180766D01*
X0300756Y0179768D02*
X0295827Y0179768D01*
X0294828Y0178769D02*
X0299757Y0178769D01*
X0298759Y0177771D02*
X0293830Y0177771D01*
X0292831Y0176772D02*
X0297760Y0176772D01*
X0296762Y0175774D02*
X0291833Y0175774D01*
X0290834Y0174775D02*
X0295763Y0174775D01*
X0294765Y0173777D02*
X0289836Y0173777D01*
X0288837Y0172778D02*
X0293766Y0172778D01*
X0292768Y0171780D02*
X0287839Y0171780D01*
X0286840Y0170781D02*
X0291769Y0170781D01*
X0290771Y0169783D02*
X0285842Y0169783D01*
X0284843Y0168784D02*
X0289772Y0168784D01*
X0288774Y0167786D02*
X0283845Y0167786D01*
X0282846Y0166787D02*
X0287775Y0166787D01*
X0286777Y0165789D02*
X0281848Y0165789D01*
X0280849Y0164790D02*
X0285778Y0164790D01*
X0284780Y0163792D02*
X0279851Y0163792D01*
X0278852Y0162793D02*
X0283781Y0162793D01*
X0282783Y0161795D02*
X0277854Y0161795D01*
X0276855Y0160796D02*
X0281784Y0160796D01*
X0280786Y0159798D02*
X0275857Y0159798D01*
X0274858Y0158799D02*
X0279787Y0158799D01*
X0278789Y0157801D02*
X0273860Y0157801D01*
X0272861Y0156802D02*
X0277790Y0156802D01*
X0276792Y0155803D02*
X0271863Y0155803D01*
X0270864Y0154805D02*
X0275793Y0154805D01*
X0274795Y0153806D02*
X0269866Y0153806D01*
X0268867Y0152808D02*
X0273796Y0152808D01*
X0272798Y0151809D02*
X0267869Y0151809D01*
X0266870Y0150811D02*
X0271799Y0150811D01*
X0270801Y0149812D02*
X0265913Y0149812D01*
X0265701Y0148814D02*
X0269802Y0148814D01*
X0268803Y0147815D02*
X0265132Y0147815D01*
X0266548Y0146817D02*
X0263695Y0146817D01*
X0265609Y0145818D02*
X0249878Y0145818D01*
X0248924Y0144820D02*
X0265195Y0144820D01*
X0265135Y0143821D02*
X0248275Y0143821D01*
X0247243Y0142823D02*
X0265343Y0142823D01*
X0265907Y0141824D02*
X0227024Y0141824D01*
X0227024Y0140826D02*
X0267331Y0140826D01*
X0261352Y0146817D02*
X0250876Y0146817D01*
X0251875Y0147815D02*
X0259915Y0147815D01*
X0259347Y0148814D02*
X0252873Y0148814D01*
X0253872Y0149812D02*
X0259135Y0149812D01*
X0259191Y0150811D02*
X0254870Y0150811D01*
X0255869Y0151809D02*
X0259605Y0151809D01*
X0260539Y0152808D02*
X0256867Y0152808D01*
X0257866Y0153806D02*
X0262795Y0153806D01*
X0263793Y0154805D02*
X0258864Y0154805D01*
X0259863Y0155803D02*
X0264792Y0155803D01*
X0265790Y0156802D02*
X0260861Y0156802D01*
X0261860Y0157801D02*
X0266789Y0157801D01*
X0267787Y0158799D02*
X0262858Y0158799D01*
X0263857Y0159798D02*
X0268786Y0159798D01*
X0269784Y0160796D02*
X0264855Y0160796D01*
X0265854Y0161795D02*
X0270783Y0161795D01*
X0271781Y0162793D02*
X0266852Y0162793D01*
X0267851Y0163792D02*
X0272780Y0163792D01*
X0273778Y0164790D02*
X0268728Y0164790D01*
X0269024Y0165789D02*
X0274777Y0165789D01*
X0275775Y0166787D02*
X0269024Y0166787D01*
X0269024Y0167786D02*
X0276774Y0167786D01*
X0277772Y0168784D02*
X0269024Y0168784D01*
X0269024Y0169783D02*
X0278771Y0169783D01*
X0279769Y0170781D02*
X0269024Y0170781D01*
X0269024Y0171780D02*
X0280768Y0171780D01*
X0281766Y0172778D02*
X0269024Y0172778D01*
X0269024Y0173777D02*
X0282765Y0173777D01*
X0283763Y0174775D02*
X0269024Y0174775D01*
X0269024Y0175774D02*
X0284762Y0175774D01*
X0285760Y0176772D02*
X0269024Y0176772D01*
X0269024Y0177771D02*
X0286759Y0177771D01*
X0287757Y0178769D02*
X0269024Y0178769D01*
X0269024Y0179768D02*
X0288756Y0179768D01*
X0289754Y0180766D02*
X0269024Y0180766D01*
X0269024Y0181765D02*
X0290753Y0181765D01*
X0291751Y0182763D02*
X0269024Y0182763D01*
X0269024Y0183762D02*
X0292750Y0183762D01*
X0293748Y0184760D02*
X0269024Y0184760D01*
X0269024Y0185759D02*
X0294747Y0185759D01*
X0295745Y0186757D02*
X0269024Y0186757D01*
X0269024Y0187756D02*
X0296744Y0187756D01*
X0297742Y0188754D02*
X0269024Y0188754D01*
X0269024Y0189753D02*
X0298741Y0189753D01*
X0299739Y0190751D02*
X0269024Y0190751D01*
X0269024Y0191750D02*
X0300738Y0191750D01*
X0301737Y0192748D02*
X0269024Y0192748D01*
X0269024Y0193747D02*
X0302735Y0193747D01*
X0303734Y0194745D02*
X0269024Y0194745D01*
X0269024Y0195744D02*
X0304732Y0195744D01*
X0305731Y0196742D02*
X0269024Y0196742D01*
X0269024Y0197741D02*
X0306729Y0197741D01*
X0307728Y0198739D02*
X0269024Y0198739D01*
X0269024Y0199738D02*
X0308726Y0199738D01*
X0309725Y0200737D02*
X0269024Y0200737D01*
X0269024Y0201735D02*
X0310723Y0201735D01*
X0311722Y0202734D02*
X0269024Y0202734D01*
X0269024Y0203732D02*
X0312720Y0203732D01*
X0313719Y0204731D02*
X0269024Y0204731D01*
X0269024Y0205729D02*
X0314717Y0205729D01*
X0315716Y0206728D02*
X0269024Y0206728D01*
X0269024Y0207726D02*
X0316714Y0207726D01*
X0317713Y0208725D02*
X0269024Y0208725D01*
X0269024Y0209723D02*
X0318711Y0209723D01*
X0319710Y0210722D02*
X0269024Y0210722D01*
X0252024Y0195744D02*
X0249057Y0195744D01*
X0248650Y0194745D02*
X0252024Y0194745D01*
X0252024Y0193747D02*
X0247917Y0193747D01*
X0246532Y0192748D02*
X0252024Y0192748D01*
X0245024Y0192748D02*
X0244024Y0192748D01*
X0244024Y0193747D02*
X0245024Y0193747D01*
X0245024Y0194745D02*
X0244024Y0194745D01*
X0242515Y0192748D02*
X0237064Y0192748D01*
X0238200Y0193747D02*
X0241130Y0193747D01*
X0240397Y0194745D02*
X0238893Y0194745D01*
X0239307Y0195744D02*
X0239990Y0195744D01*
X0244024Y0197741D02*
X0245024Y0197741D01*
X0245024Y0198739D02*
X0244024Y0198739D01*
X0244024Y0199738D02*
X0245024Y0199738D01*
X0245024Y0200737D02*
X0244024Y0200737D01*
X0248827Y0228695D02*
X0249293Y0228695D01*
X0252257Y0236683D02*
X0252790Y0236683D01*
X0253568Y0237681D02*
X0251479Y0237681D01*
X0250336Y0238680D02*
X0254711Y0238680D01*
X0260336Y0238680D02*
X0264711Y0238680D01*
X0263568Y0237681D02*
X0261479Y0237681D01*
X0262257Y0236683D02*
X0262790Y0236683D01*
X0270336Y0238680D02*
X0274711Y0238680D01*
X0273568Y0237681D02*
X0271479Y0237681D01*
X0272257Y0236683D02*
X0272790Y0236683D01*
X0272635Y0231690D02*
X0272412Y0231690D01*
X0271852Y0230692D02*
X0273195Y0230692D01*
X0274194Y0229693D02*
X0270854Y0229693D01*
X0244711Y0238680D02*
X0240336Y0238680D01*
X0241479Y0237681D02*
X0243568Y0237681D01*
X0242790Y0236683D02*
X0242257Y0236683D01*
X0199769Y0222704D02*
X0195279Y0222704D01*
X0196455Y0221705D02*
X0198592Y0221705D01*
X0197800Y0220707D02*
X0197247Y0220707D01*
X0149769Y0222704D02*
X0144746Y0222704D01*
X0146172Y0221705D02*
X0148592Y0221705D01*
X0147800Y0220707D02*
X0146981Y0220707D01*
X0143024Y0216713D02*
X0142024Y0216713D01*
X0142024Y0215714D02*
X0143024Y0215714D01*
X0143024Y0214716D02*
X0142024Y0214716D01*
X0142024Y0213717D02*
X0143024Y0213717D01*
X0145476Y0213717D02*
X0149170Y0213717D01*
X0148171Y0214716D02*
X0146565Y0214716D01*
X0147195Y0215714D02*
X0147626Y0215714D01*
X0119833Y0204731D02*
X0115214Y0204731D01*
X0116428Y0203732D02*
X0118619Y0203732D01*
X0117811Y0202734D02*
X0117236Y0202734D01*
X0117433Y0197741D02*
X0117614Y0197741D01*
X0118144Y0196742D02*
X0116903Y0196742D01*
X0115904Y0195744D02*
X0119143Y0195744D01*
X0099194Y0229693D02*
X0074624Y0229693D01*
X0074624Y0230692D02*
X0098195Y0230692D01*
X0097635Y0231690D02*
X0074624Y0231690D01*
X0074624Y0232689D02*
X0097222Y0232689D01*
X0097124Y0233687D02*
X0074624Y0233687D01*
X0074624Y0234686D02*
X0097124Y0234686D01*
X0097376Y0235684D02*
X0074624Y0235684D01*
X0074624Y0236683D02*
X0097790Y0236683D01*
X0098568Y0237681D02*
X0074624Y0237681D01*
X0074624Y0238680D02*
X0099711Y0238680D01*
X0211748Y0151154D02*
X0213549Y0151900D01*
X0215498Y0151900D01*
X0217299Y0151154D01*
X0218678Y0149776D01*
X0219424Y0147975D01*
X0219424Y0146025D01*
X0218678Y0144224D01*
X0217299Y0142846D01*
X0215498Y0142100D01*
X0213549Y0142100D01*
X0211748Y0142846D01*
X0210370Y0144224D01*
X0209624Y0146025D01*
X0209624Y0147975D01*
X0210370Y0149776D01*
X0211748Y0151154D01*
X0211405Y0150811D02*
X0207642Y0150811D01*
X0208641Y0149812D02*
X0210406Y0149812D01*
X0209971Y0148814D02*
X0209076Y0148814D01*
X0209424Y0147815D02*
X0209624Y0147815D01*
X0209624Y0146817D02*
X0209424Y0146817D01*
X0209338Y0145818D02*
X0209709Y0145818D01*
X0210123Y0144820D02*
X0208924Y0144820D01*
X0208275Y0143821D02*
X0210773Y0143821D01*
X0211804Y0142823D02*
X0207243Y0142823D01*
X0205717Y0151809D02*
X0213330Y0151809D01*
X0215717Y0151809D02*
X0223330Y0151809D01*
X0221405Y0150811D02*
X0217642Y0150811D01*
X0218641Y0149812D02*
X0220406Y0149812D01*
X0219971Y0148814D02*
X0219076Y0148814D01*
X0219424Y0147815D02*
X0219624Y0147815D01*
X0219624Y0146817D02*
X0219424Y0146817D01*
X0219338Y0145818D02*
X0219709Y0145818D01*
X0220123Y0144820D02*
X0218924Y0144820D01*
X0218275Y0143821D02*
X0220773Y0143821D01*
X0221804Y0142823D02*
X0217243Y0142823D01*
X0227243Y0142823D02*
X0231804Y0142823D01*
X0230773Y0143821D02*
X0228275Y0143821D01*
X0228924Y0144820D02*
X0230123Y0144820D01*
X0229709Y0145818D02*
X0229338Y0145818D01*
X0229424Y0146817D02*
X0229624Y0146817D01*
X0229624Y0147815D02*
X0229424Y0147815D01*
X0229076Y0148814D02*
X0229971Y0148814D01*
X0230406Y0149812D02*
X0228641Y0149812D01*
X0227642Y0150811D02*
X0231405Y0150811D01*
X0233330Y0151809D02*
X0225717Y0151809D01*
X0235717Y0151809D02*
X0235798Y0151809D01*
X0239873Y0148814D02*
X0239971Y0148814D01*
X0239624Y0147815D02*
X0239424Y0147815D01*
X0239424Y0146817D02*
X0239624Y0146817D01*
X0239709Y0145818D02*
X0239338Y0145818D01*
X0238924Y0144820D02*
X0240123Y0144820D01*
X0240773Y0143821D02*
X0238275Y0143821D01*
X0237243Y0142823D02*
X0241804Y0142823D01*
X0203330Y0151809D02*
X0195717Y0151809D01*
X0193330Y0151809D02*
X0185717Y0151809D01*
X0187642Y0150811D02*
X0191405Y0150811D01*
X0190406Y0149812D02*
X0188641Y0149812D01*
X0175875Y0099887D02*
X0074624Y0099887D01*
X0074624Y0098888D02*
X0175186Y0098888D01*
X0175024Y0097890D02*
X0074624Y0097890D01*
X0074624Y0096891D02*
X0175024Y0096891D01*
X0175024Y0095893D02*
X0074624Y0095893D01*
X0074624Y0094894D02*
X0175024Y0094894D01*
X0175024Y0093896D02*
X0074624Y0093896D01*
X0074624Y0092897D02*
X0175024Y0092897D01*
X0175024Y0091899D02*
X0074624Y0091899D01*
X0074624Y0090900D02*
X0175024Y0090900D01*
X0175024Y0089902D02*
X0074624Y0089902D01*
X0074624Y0088903D02*
X0175024Y0088903D01*
X0175024Y0087905D02*
X0074624Y0087905D01*
X0074624Y0086906D02*
X0175024Y0086906D01*
X0175024Y0085908D02*
X0074624Y0085908D01*
X0074624Y0084909D02*
X0175024Y0084909D01*
X0175024Y0083911D02*
X0074624Y0083911D01*
X0074624Y0082912D02*
X0175024Y0082912D01*
X0175024Y0081914D02*
X0074624Y0081914D01*
X0074624Y0080915D02*
X0175024Y0080915D01*
X0175024Y0079917D02*
X0074624Y0079917D01*
X0074624Y0078918D02*
X0175024Y0078918D01*
X0175024Y0077920D02*
X0074624Y0077920D01*
X0074624Y0076921D02*
X0175024Y0076921D01*
X0175024Y0075923D02*
X0171531Y0075923D01*
X0171299Y0076154D02*
X0169498Y0076900D01*
X0167549Y0076900D01*
X0165748Y0076154D01*
X0164370Y0074776D01*
X0163624Y0072975D01*
X0163624Y0071025D01*
X0164370Y0069224D01*
X0165748Y0067846D01*
X0167549Y0067100D01*
X0169498Y0067100D01*
X0171299Y0067846D01*
X0172678Y0069224D01*
X0173424Y0071025D01*
X0173424Y0072975D01*
X0172678Y0074776D01*
X0171299Y0076154D01*
X0172529Y0074924D02*
X0175024Y0074924D01*
X0175024Y0073926D02*
X0173030Y0073926D01*
X0173424Y0072927D02*
X0175024Y0072927D01*
X0175024Y0071929D02*
X0173424Y0071929D01*
X0173384Y0070930D02*
X0175024Y0070930D01*
X0175024Y0069932D02*
X0172971Y0069932D01*
X0172386Y0068933D02*
X0175024Y0068933D01*
X0175024Y0067934D02*
X0171388Y0067934D01*
X0175024Y0066936D02*
X0151024Y0066936D01*
X0151024Y0065937D02*
X0175024Y0065937D01*
X0175024Y0064939D02*
X0151024Y0064939D01*
X0151024Y0063940D02*
X0175024Y0063940D01*
X0175024Y0062942D02*
X0151024Y0062942D01*
X0151024Y0061943D02*
X0175024Y0061943D01*
X0175024Y0060945D02*
X0151024Y0060945D01*
X0151024Y0059946D02*
X0175024Y0059946D01*
X0175024Y0058948D02*
X0151024Y0058948D01*
X0151024Y0057949D02*
X0175024Y0057949D01*
X0175024Y0056951D02*
X0151024Y0056951D01*
X0146024Y0056951D02*
X0074624Y0056951D01*
X0074624Y0057949D02*
X0146024Y0057949D01*
X0146024Y0058948D02*
X0074624Y0058948D01*
X0074624Y0059946D02*
X0117042Y0059946D01*
X0116255Y0060945D02*
X0074624Y0060945D01*
X0074624Y0061943D02*
X0116024Y0061943D01*
X0116024Y0062942D02*
X0074624Y0062942D01*
X0074624Y0063940D02*
X0116024Y0063940D01*
X0116024Y0064939D02*
X0074624Y0064939D01*
X0074624Y0065937D02*
X0116024Y0065937D01*
X0116024Y0066936D02*
X0074624Y0066936D01*
X0074624Y0067934D02*
X0095659Y0067934D01*
X0095748Y0067846D02*
X0097549Y0067100D01*
X0099498Y0067100D01*
X0101299Y0067846D01*
X0102678Y0069224D01*
X0103424Y0071025D01*
X0103424Y0072975D01*
X0102678Y0074776D01*
X0101299Y0076154D01*
X0099498Y0076900D01*
X0097549Y0076900D01*
X0095748Y0076154D01*
X0094370Y0074776D01*
X0093624Y0072975D01*
X0093624Y0071025D01*
X0094370Y0069224D01*
X0095748Y0067846D01*
X0094661Y0068933D02*
X0074624Y0068933D01*
X0074624Y0069932D02*
X0094077Y0069932D01*
X0093663Y0070930D02*
X0074624Y0070930D01*
X0074624Y0071929D02*
X0093624Y0071929D01*
X0093624Y0072927D02*
X0074624Y0072927D01*
X0074624Y0073926D02*
X0094018Y0073926D01*
X0094518Y0074924D02*
X0074624Y0074924D01*
X0074624Y0075923D02*
X0095517Y0075923D01*
X0101531Y0075923D02*
X0105517Y0075923D01*
X0104518Y0074924D02*
X0102529Y0074924D01*
X0103030Y0073926D02*
X0104018Y0073926D01*
X0103624Y0072927D02*
X0103424Y0072927D01*
X0103424Y0071929D02*
X0103624Y0071929D01*
X0103663Y0070930D02*
X0103384Y0070930D01*
X0102971Y0069932D02*
X0104077Y0069932D01*
X0104661Y0068933D02*
X0102386Y0068933D01*
X0101388Y0067934D02*
X0105659Y0067934D01*
X0111388Y0067934D02*
X0115659Y0067934D01*
X0114661Y0068933D02*
X0112386Y0068933D01*
X0121024Y0066936D02*
X0146024Y0066936D01*
X0146024Y0065937D02*
X0121024Y0065937D01*
X0121024Y0064939D02*
X0146024Y0064939D01*
X0145659Y0067934D02*
X0141388Y0067934D01*
X0141299Y0067846D02*
X0142678Y0069224D01*
X0143424Y0071025D01*
X0143424Y0072975D01*
X0142678Y0074776D01*
X0141299Y0076154D01*
X0139498Y0076900D01*
X0137549Y0076900D01*
X0135748Y0076154D01*
X0134370Y0074776D01*
X0133624Y0072975D01*
X0133624Y0071025D01*
X0134370Y0069224D01*
X0135748Y0067846D01*
X0137549Y0067100D01*
X0139498Y0067100D01*
X0141299Y0067846D01*
X0142386Y0068933D02*
X0144661Y0068933D01*
X0144077Y0069932D02*
X0142971Y0069932D01*
X0143384Y0070930D02*
X0143663Y0070930D01*
X0143624Y0071929D02*
X0143424Y0071929D01*
X0143424Y0072927D02*
X0143624Y0072927D01*
X0144018Y0073926D02*
X0143030Y0073926D01*
X0142529Y0074924D02*
X0144518Y0074924D01*
X0145517Y0075923D02*
X0141531Y0075923D01*
X0135517Y0075923D02*
X0131531Y0075923D01*
X0131299Y0076154D02*
X0129498Y0076900D01*
X0127549Y0076900D01*
X0125748Y0076154D01*
X0124370Y0074776D01*
X0123624Y0072975D01*
X0123624Y0071025D01*
X0124370Y0069224D01*
X0125748Y0067846D01*
X0127549Y0067100D01*
X0129498Y0067100D01*
X0131299Y0067846D01*
X0132678Y0069224D01*
X0133424Y0071025D01*
X0133424Y0072975D01*
X0132678Y0074776D01*
X0131299Y0076154D01*
X0132529Y0074924D02*
X0134518Y0074924D01*
X0134018Y0073926D02*
X0133030Y0073926D01*
X0133424Y0072927D02*
X0133624Y0072927D01*
X0133624Y0071929D02*
X0133424Y0071929D01*
X0133384Y0070930D02*
X0133663Y0070930D01*
X0134077Y0069932D02*
X0132971Y0069932D01*
X0132386Y0068933D02*
X0134661Y0068933D01*
X0135659Y0067934D02*
X0131388Y0067934D01*
X0125659Y0067934D02*
X0121388Y0067934D01*
X0122386Y0068933D02*
X0124661Y0068933D01*
X0124077Y0069932D02*
X0122971Y0069932D01*
X0123384Y0070930D02*
X0123663Y0070930D01*
X0123624Y0071929D02*
X0123424Y0071929D01*
X0123424Y0072927D02*
X0123624Y0072927D01*
X0124018Y0073926D02*
X0123030Y0073926D01*
X0122529Y0074924D02*
X0124518Y0074924D01*
X0125517Y0075923D02*
X0121531Y0075923D01*
X0115517Y0075923D02*
X0111531Y0075923D01*
X0112529Y0074924D02*
X0114518Y0074924D01*
X0146024Y0055952D02*
X0074624Y0055952D01*
X0074624Y0054954D02*
X0146024Y0054954D01*
X0146024Y0053955D02*
X0074624Y0053955D01*
X0074624Y0052957D02*
X0146250Y0052957D01*
X0147030Y0051958D02*
X0074624Y0051958D01*
X0074624Y0050960D02*
X0175024Y0050960D01*
X0175024Y0049961D02*
X0074624Y0049961D01*
X0074624Y0048963D02*
X0135394Y0048963D01*
X0133851Y0047964D02*
X0074624Y0047964D01*
X0074624Y0046966D02*
X0132907Y0046966D01*
X0132494Y0045967D02*
X0074624Y0045967D01*
X0074624Y0044969D02*
X0132124Y0044969D01*
X0132124Y0043970D02*
X0074624Y0043970D01*
X0074624Y0042972D02*
X0132124Y0042972D01*
X0132518Y0041973D02*
X0074624Y0041973D01*
X0074624Y0040975D02*
X0132932Y0040975D01*
X0133911Y0039976D02*
X0074624Y0039976D01*
X0074624Y0038978D02*
X0135538Y0038978D01*
X0139510Y0038978D02*
X0145538Y0038978D01*
X0143911Y0039976D02*
X0141137Y0039976D01*
X0142115Y0040975D02*
X0142932Y0040975D01*
X0142907Y0046966D02*
X0142140Y0046966D01*
X0141196Y0047964D02*
X0143851Y0047964D01*
X0145394Y0048963D02*
X0139653Y0048963D01*
X0149653Y0048963D02*
X0155394Y0048963D01*
X0153851Y0047964D02*
X0151196Y0047964D01*
X0152140Y0046966D02*
X0152907Y0046966D01*
X0159653Y0048963D02*
X0165394Y0048963D01*
X0163851Y0047964D02*
X0161196Y0047964D01*
X0162140Y0046966D02*
X0162907Y0046966D01*
X0162932Y0040975D02*
X0162115Y0040975D01*
X0161137Y0039976D02*
X0163911Y0039976D01*
X0165538Y0038978D02*
X0159510Y0038978D01*
X0155538Y0038978D02*
X0149510Y0038978D01*
X0151137Y0039976D02*
X0153911Y0039976D01*
X0152932Y0040975D02*
X0152115Y0040975D01*
X0169510Y0038978D02*
X0175538Y0038978D01*
X0173911Y0039976D02*
X0171137Y0039976D01*
X0172115Y0040975D02*
X0172932Y0040975D01*
X0172907Y0046966D02*
X0172140Y0046966D01*
X0171196Y0047964D02*
X0173851Y0047964D01*
X0175024Y0048963D02*
X0169653Y0048963D01*
X0180024Y0048963D02*
X0185970Y0048963D01*
X0187024Y0048963D02*
X0188024Y0048963D01*
X0188024Y0047964D02*
X0187024Y0047964D01*
X0187024Y0046966D02*
X0188024Y0046966D01*
X0188024Y0045967D02*
X0187024Y0045967D01*
X0187024Y0044969D02*
X0188024Y0044969D01*
X0188024Y0043970D02*
X0197024Y0043970D01*
X0197024Y0043500D02*
X0192338Y0043500D01*
X0188024Y0043500D01*
X0188024Y0038814D01*
X0188741Y0038928D01*
X0189520Y0039181D01*
X0190249Y0039553D01*
X0190911Y0040034D01*
X0191490Y0040612D01*
X0191971Y0041275D01*
X0192343Y0042004D01*
X0192524Y0042561D01*
X0192705Y0042004D01*
X0193076Y0041275D01*
X0193557Y0040612D01*
X0194136Y0040034D01*
X0194798Y0039553D01*
X0195528Y0039181D01*
X0196306Y0038928D01*
X0197024Y0038814D01*
X0197024Y0043500D01*
X0198024Y0043500D01*
X0198024Y0038814D01*
X0198741Y0038928D01*
X0199520Y0039181D01*
X0200249Y0039553D01*
X0200911Y0040034D01*
X0201490Y0040612D01*
X0201971Y0041275D01*
X0202343Y0042004D01*
X0202414Y0042224D01*
X0202946Y0040941D01*
X0204465Y0039422D01*
X0206449Y0038600D01*
X0208598Y0038600D01*
X0210582Y0039422D01*
X0212102Y0040941D01*
X0212924Y0042926D01*
X0212924Y0045074D01*
X0212102Y0047059D01*
X0210582Y0048578D01*
X0210024Y0048809D01*
X0210024Y0069497D01*
X0209643Y0070416D01*
X0208940Y0071119D01*
X0199913Y0080147D01*
X0199913Y0080674D01*
X0199397Y0081920D01*
X0198443Y0082873D01*
X0197198Y0083389D01*
X0195850Y0083389D01*
X0194604Y0082873D01*
X0193651Y0081920D01*
X0193135Y0080674D01*
X0193135Y0079326D01*
X0193651Y0078080D01*
X0194604Y0077127D01*
X0195850Y0076611D01*
X0196377Y0076611D01*
X0205024Y0067964D01*
X0205024Y0048809D01*
X0204465Y0048578D01*
X0202946Y0047059D01*
X0202414Y0045776D01*
X0202343Y0045996D01*
X0201971Y0046725D01*
X0201490Y0047388D01*
X0200911Y0047966D01*
X0200249Y0048447D01*
X0199520Y0048819D01*
X0198741Y0049072D01*
X0198024Y0049186D01*
X0198024Y0044500D01*
X0197024Y0044500D01*
X0197024Y0043500D01*
X0197024Y0042972D02*
X0198024Y0042972D01*
X0198024Y0041973D02*
X0197024Y0041973D01*
X0197024Y0040975D02*
X0198024Y0040975D01*
X0198024Y0039976D02*
X0197024Y0039976D01*
X0197024Y0038978D02*
X0198024Y0038978D01*
X0198894Y0038978D02*
X0205538Y0038978D01*
X0203911Y0039976D02*
X0200832Y0039976D01*
X0201753Y0040975D02*
X0202932Y0040975D01*
X0202518Y0041973D02*
X0202327Y0041973D01*
X0202352Y0045967D02*
X0202494Y0045967D01*
X0202907Y0046966D02*
X0201796Y0046966D01*
X0200913Y0047964D02*
X0203851Y0047964D01*
X0205024Y0048963D02*
X0199077Y0048963D01*
X0198024Y0048963D02*
X0197024Y0048963D01*
X0197024Y0047964D02*
X0198024Y0047964D01*
X0198024Y0046966D02*
X0197024Y0046966D01*
X0197024Y0045967D02*
X0198024Y0045967D01*
X0198024Y0044969D02*
X0197024Y0044969D01*
X0195970Y0048963D02*
X0189077Y0048963D01*
X0190913Y0047964D02*
X0194134Y0047964D01*
X0193251Y0046966D02*
X0191796Y0046966D01*
X0192352Y0045967D02*
X0192695Y0045967D01*
X0188024Y0042972D02*
X0187024Y0042972D01*
X0187024Y0041973D02*
X0188024Y0041973D01*
X0188024Y0040975D02*
X0187024Y0040975D01*
X0187024Y0039976D02*
X0188024Y0039976D01*
X0188024Y0038978D02*
X0187024Y0038978D01*
X0186153Y0038978D02*
X0179510Y0038978D01*
X0181137Y0039976D02*
X0184215Y0039976D01*
X0183294Y0040975D02*
X0182115Y0040975D01*
X0182529Y0041973D02*
X0182720Y0041973D01*
X0188894Y0038978D02*
X0196153Y0038978D01*
X0194215Y0039976D02*
X0190832Y0039976D01*
X0191753Y0040975D02*
X0193294Y0040975D01*
X0192720Y0041973D02*
X0192327Y0041973D01*
X0183251Y0046966D02*
X0182140Y0046966D01*
X0182554Y0045967D02*
X0182695Y0045967D01*
X0184134Y0047964D02*
X0181196Y0047964D01*
X0180024Y0049961D02*
X0205024Y0049961D01*
X0205024Y0050960D02*
X0180024Y0050960D01*
X0180024Y0051958D02*
X0205024Y0051958D01*
X0205024Y0052957D02*
X0180024Y0052957D01*
X0180024Y0053955D02*
X0205024Y0053955D01*
X0205024Y0054954D02*
X0180024Y0054954D01*
X0180024Y0055952D02*
X0205024Y0055952D01*
X0205024Y0056951D02*
X0180024Y0056951D01*
X0180024Y0057949D02*
X0205024Y0057949D01*
X0205024Y0058948D02*
X0180024Y0058948D01*
X0180024Y0059946D02*
X0205024Y0059946D01*
X0205024Y0060945D02*
X0180024Y0060945D01*
X0180024Y0061943D02*
X0205024Y0061943D01*
X0205024Y0062942D02*
X0180024Y0062942D01*
X0180024Y0063940D02*
X0205024Y0063940D01*
X0205024Y0064939D02*
X0180024Y0064939D01*
X0180024Y0065937D02*
X0205024Y0065937D01*
X0205024Y0066936D02*
X0180024Y0066936D01*
X0180024Y0067934D02*
X0205024Y0067934D01*
X0204055Y0068933D02*
X0180024Y0068933D01*
X0180024Y0069932D02*
X0203057Y0069932D01*
X0202058Y0070930D02*
X0180024Y0070930D01*
X0180024Y0071929D02*
X0201060Y0071929D01*
X0200061Y0072927D02*
X0180024Y0072927D01*
X0180024Y0073926D02*
X0199063Y0073926D01*
X0198064Y0074924D02*
X0180024Y0074924D01*
X0180024Y0075923D02*
X0197065Y0075923D01*
X0195101Y0076921D02*
X0180024Y0076921D01*
X0180024Y0077920D02*
X0193811Y0077920D01*
X0193304Y0078918D02*
X0180024Y0078918D01*
X0180024Y0079917D02*
X0193135Y0079917D01*
X0193234Y0080915D02*
X0180024Y0080915D01*
X0180024Y0081914D02*
X0193648Y0081914D01*
X0194698Y0082912D02*
X0180024Y0082912D01*
X0180024Y0083911D02*
X0217077Y0083911D01*
X0216079Y0084909D02*
X0180024Y0084909D01*
X0180024Y0085908D02*
X0215080Y0085908D01*
X0214082Y0086906D02*
X0180024Y0086906D01*
X0180024Y0087905D02*
X0213083Y0087905D01*
X0212085Y0088903D02*
X0180024Y0088903D01*
X0180024Y0089902D02*
X0211086Y0089902D01*
X0210088Y0090900D02*
X0180024Y0090900D01*
X0180024Y0091899D02*
X0209089Y0091899D01*
X0208091Y0092897D02*
X0180024Y0092897D01*
X0180024Y0093896D02*
X0207092Y0093896D01*
X0206094Y0094894D02*
X0180024Y0094894D01*
X0198349Y0082912D02*
X0218076Y0082912D01*
X0219074Y0081914D02*
X0199399Y0081914D01*
X0199813Y0080915D02*
X0220073Y0080915D01*
X0221071Y0079917D02*
X0200143Y0079917D01*
X0201141Y0078918D02*
X0222070Y0078918D01*
X0223068Y0077920D02*
X0202140Y0077920D01*
X0203138Y0076921D02*
X0224067Y0076921D01*
X0225065Y0075923D02*
X0204137Y0075923D01*
X0205135Y0074924D02*
X0226064Y0074924D01*
X0227063Y0073926D02*
X0206134Y0073926D01*
X0207132Y0072927D02*
X0228061Y0072927D01*
X0229060Y0071929D02*
X0208131Y0071929D01*
X0209129Y0070930D02*
X0230024Y0070930D01*
X0230024Y0069932D02*
X0209844Y0069932D01*
X0210024Y0068933D02*
X0219527Y0068933D01*
X0219748Y0069154D02*
X0218370Y0067776D01*
X0217624Y0065975D01*
X0217624Y0064025D01*
X0218370Y0062224D01*
X0219748Y0060846D01*
X0221549Y0060100D01*
X0223498Y0060100D01*
X0225299Y0060846D01*
X0226678Y0062224D01*
X0227424Y0064025D01*
X0227424Y0065975D01*
X0226678Y0067776D01*
X0225299Y0069154D01*
X0223498Y0069900D01*
X0221549Y0069900D01*
X0219748Y0069154D01*
X0218528Y0067934D02*
X0210024Y0067934D01*
X0210024Y0066936D02*
X0218022Y0066936D01*
X0217624Y0065937D02*
X0210024Y0065937D01*
X0210024Y0064939D02*
X0217624Y0064939D01*
X0217659Y0063940D02*
X0210024Y0063940D01*
X0210024Y0062942D02*
X0218072Y0062942D01*
X0218651Y0061943D02*
X0210024Y0061943D01*
X0210024Y0060945D02*
X0219649Y0060945D01*
X0225398Y0060945D02*
X0229649Y0060945D01*
X0228651Y0061943D02*
X0226397Y0061943D01*
X0226975Y0062942D02*
X0228072Y0062942D01*
X0227659Y0063940D02*
X0227388Y0063940D01*
X0227424Y0064939D02*
X0227624Y0064939D01*
X0227624Y0065937D02*
X0227424Y0065937D01*
X0227025Y0066936D02*
X0228022Y0066936D01*
X0228528Y0067934D02*
X0226519Y0067934D01*
X0225520Y0068933D02*
X0229527Y0068933D01*
X0235024Y0069932D02*
X0240024Y0069932D01*
X0240024Y0070930D02*
X0235024Y0070930D01*
X0235024Y0071929D02*
X0240024Y0071929D01*
X0240024Y0072927D02*
X0234846Y0072927D01*
X0234134Y0073926D02*
X0240024Y0073926D01*
X0240200Y0074924D02*
X0233135Y0074924D01*
X0232137Y0075923D02*
X0240911Y0075923D01*
X0245024Y0070930D02*
X0270024Y0070930D01*
X0270024Y0069932D02*
X0245024Y0069932D01*
X0245520Y0068933D02*
X0249527Y0068933D01*
X0249748Y0069154D02*
X0248370Y0067776D01*
X0247624Y0065975D01*
X0247624Y0064025D01*
X0248370Y0062224D01*
X0249748Y0060846D01*
X0251549Y0060100D01*
X0253498Y0060100D01*
X0255299Y0060846D01*
X0256678Y0062224D01*
X0257424Y0064025D01*
X0257424Y0065975D01*
X0256678Y0067776D01*
X0255299Y0069154D01*
X0253498Y0069900D01*
X0251549Y0069900D01*
X0249748Y0069154D01*
X0248528Y0067934D02*
X0246519Y0067934D01*
X0247025Y0066936D02*
X0248022Y0066936D01*
X0247624Y0065937D02*
X0247424Y0065937D01*
X0247424Y0064939D02*
X0247624Y0064939D01*
X0247659Y0063940D02*
X0247388Y0063940D01*
X0246975Y0062942D02*
X0248072Y0062942D01*
X0248651Y0061943D02*
X0246397Y0061943D01*
X0245398Y0060945D02*
X0249649Y0060945D01*
X0255398Y0060945D02*
X0259649Y0060945D01*
X0259748Y0060846D02*
X0261549Y0060100D01*
X0263498Y0060100D01*
X0265299Y0060846D01*
X0266678Y0062224D01*
X0267424Y0064025D01*
X0267424Y0065975D01*
X0266678Y0067776D01*
X0265299Y0069154D01*
X0263498Y0069900D01*
X0261549Y0069900D01*
X0259748Y0069154D01*
X0258370Y0067776D01*
X0257624Y0065975D01*
X0257624Y0064025D01*
X0258370Y0062224D01*
X0259748Y0060846D01*
X0258651Y0061943D02*
X0256397Y0061943D01*
X0256975Y0062942D02*
X0258072Y0062942D01*
X0257659Y0063940D02*
X0257388Y0063940D01*
X0257424Y0064939D02*
X0257624Y0064939D01*
X0257624Y0065937D02*
X0257424Y0065937D01*
X0257025Y0066936D02*
X0258022Y0066936D01*
X0258528Y0067934D02*
X0256519Y0067934D01*
X0255520Y0068933D02*
X0259527Y0068933D01*
X0265520Y0068933D02*
X0269527Y0068933D01*
X0268528Y0067934D02*
X0266519Y0067934D01*
X0267025Y0066936D02*
X0268022Y0066936D01*
X0267624Y0065937D02*
X0267424Y0065937D01*
X0267424Y0064939D02*
X0267624Y0064939D01*
X0267659Y0063940D02*
X0267388Y0063940D01*
X0266975Y0062942D02*
X0268072Y0062942D01*
X0268651Y0061943D02*
X0266397Y0061943D01*
X0265398Y0060945D02*
X0269649Y0060945D01*
X0268598Y0049400D02*
X0266449Y0049400D01*
X0264465Y0048578D01*
X0262946Y0047059D01*
X0262524Y0046040D01*
X0262102Y0047059D01*
X0260582Y0048578D01*
X0258598Y0049400D01*
X0256449Y0049400D01*
X0254465Y0048578D01*
X0252946Y0047059D01*
X0252524Y0046040D01*
X0252102Y0047059D01*
X0250582Y0048578D01*
X0248598Y0049400D01*
X0246449Y0049400D01*
X0244465Y0048578D01*
X0242946Y0047059D01*
X0242524Y0046040D01*
X0242102Y0047059D01*
X0240582Y0048578D01*
X0238598Y0049400D01*
X0236449Y0049400D01*
X0234465Y0048578D01*
X0232946Y0047059D01*
X0232524Y0046040D01*
X0232102Y0047059D01*
X0230582Y0048578D01*
X0228598Y0049400D01*
X0226449Y0049400D01*
X0224465Y0048578D01*
X0222946Y0047059D01*
X0222124Y0045074D01*
X0222124Y0042926D01*
X0222946Y0040941D01*
X0224465Y0039422D01*
X0226449Y0038600D01*
X0228598Y0038600D01*
X0230582Y0039422D01*
X0232102Y0040941D01*
X0232524Y0041960D01*
X0232946Y0040941D01*
X0234465Y0039422D01*
X0236449Y0038600D01*
X0238598Y0038600D01*
X0240582Y0039422D01*
X0242102Y0040941D01*
X0242524Y0041960D01*
X0242946Y0040941D01*
X0244465Y0039422D01*
X0246449Y0038600D01*
X0248598Y0038600D01*
X0250582Y0039422D01*
X0252102Y0040941D01*
X0252524Y0041960D01*
X0252946Y0040941D01*
X0254465Y0039422D01*
X0256449Y0038600D01*
X0258598Y0038600D01*
X0260582Y0039422D01*
X0262102Y0040941D01*
X0262524Y0041960D01*
X0262946Y0040941D01*
X0264465Y0039422D01*
X0266449Y0038600D01*
X0268598Y0038600D01*
X0270582Y0039422D01*
X0272102Y0040941D01*
X0272524Y0041960D01*
X0272946Y0040941D01*
X0274465Y0039422D01*
X0276449Y0038600D01*
X0278598Y0038600D01*
X0280582Y0039422D01*
X0282102Y0040941D01*
X0282924Y0042926D01*
X0282924Y0045074D01*
X0282102Y0047059D01*
X0280582Y0048578D01*
X0278598Y0049400D01*
X0276449Y0049400D01*
X0274465Y0048578D01*
X0272946Y0047059D01*
X0272524Y0046040D01*
X0272102Y0047059D01*
X0270582Y0048578D01*
X0268598Y0049400D01*
X0269653Y0048963D02*
X0275394Y0048963D01*
X0273851Y0047964D02*
X0271196Y0047964D01*
X0272140Y0046966D02*
X0272907Y0046966D01*
X0272932Y0040975D02*
X0272115Y0040975D01*
X0271137Y0039976D02*
X0273911Y0039976D01*
X0275538Y0038978D02*
X0269510Y0038978D01*
X0265538Y0038978D02*
X0259510Y0038978D01*
X0261137Y0039976D02*
X0263911Y0039976D01*
X0262932Y0040975D02*
X0262115Y0040975D01*
X0262140Y0046966D02*
X0262907Y0046966D01*
X0263851Y0047964D02*
X0261196Y0047964D01*
X0259653Y0048963D02*
X0265394Y0048963D01*
X0255394Y0048963D02*
X0249653Y0048963D01*
X0251196Y0047964D02*
X0253851Y0047964D01*
X0252907Y0046966D02*
X0252140Y0046966D01*
X0252115Y0040975D02*
X0252932Y0040975D01*
X0253911Y0039976D02*
X0251137Y0039976D01*
X0249510Y0038978D02*
X0255538Y0038978D01*
X0245538Y0038978D02*
X0239510Y0038978D01*
X0241137Y0039976D02*
X0243911Y0039976D01*
X0242932Y0040975D02*
X0242115Y0040975D01*
X0242140Y0046966D02*
X0242907Y0046966D01*
X0243851Y0047964D02*
X0241196Y0047964D01*
X0239653Y0048963D02*
X0245394Y0048963D01*
X0235394Y0048963D02*
X0229653Y0048963D01*
X0231196Y0047964D02*
X0233851Y0047964D01*
X0232907Y0046966D02*
X0232140Y0046966D01*
X0232115Y0040975D02*
X0232932Y0040975D01*
X0233911Y0039976D02*
X0231137Y0039976D01*
X0229510Y0038978D02*
X0235538Y0038978D01*
X0225538Y0038978D02*
X0209510Y0038978D01*
X0211137Y0039976D02*
X0223911Y0039976D01*
X0222932Y0040975D02*
X0212115Y0040975D01*
X0212529Y0041973D02*
X0222518Y0041973D01*
X0222124Y0042972D02*
X0212924Y0042972D01*
X0212924Y0043970D02*
X0222124Y0043970D01*
X0222124Y0044969D02*
X0212924Y0044969D01*
X0212554Y0045967D02*
X0222494Y0045967D01*
X0222907Y0046966D02*
X0212140Y0046966D01*
X0211196Y0047964D02*
X0223851Y0047964D01*
X0225394Y0048963D02*
X0210024Y0048963D01*
X0210024Y0049961D02*
X0360424Y0049961D01*
X0360424Y0048963D02*
X0279653Y0048963D01*
X0281196Y0047964D02*
X0360424Y0047964D01*
X0360424Y0046966D02*
X0282140Y0046966D01*
X0282554Y0045967D02*
X0360424Y0045967D01*
X0360424Y0044969D02*
X0282924Y0044969D01*
X0282924Y0043970D02*
X0360424Y0043970D01*
X0360424Y0042972D02*
X0282924Y0042972D01*
X0282529Y0041973D02*
X0360424Y0041973D01*
X0360424Y0040975D02*
X0282115Y0040975D01*
X0281137Y0039976D02*
X0360424Y0039976D01*
X0360424Y0038978D02*
X0279510Y0038978D01*
X0239649Y0060945D02*
X0235398Y0060945D01*
X0236397Y0061943D02*
X0238651Y0061943D01*
X0238528Y0067934D02*
X0236519Y0067934D01*
X0235520Y0068933D02*
X0239527Y0068933D01*
X0210024Y0059946D02*
X0360424Y0059946D01*
X0360424Y0058948D02*
X0210024Y0058948D01*
X0210024Y0057949D02*
X0360424Y0057949D01*
X0360424Y0056951D02*
X0210024Y0056951D01*
X0210024Y0055952D02*
X0360424Y0055952D01*
X0360424Y0054954D02*
X0210024Y0054954D01*
X0210024Y0053955D02*
X0360424Y0053955D01*
X0360424Y0052957D02*
X0210024Y0052957D01*
X0210024Y0051958D02*
X0360424Y0051958D01*
X0360424Y0050960D02*
X0210024Y0050960D01*
X0165659Y0067934D02*
X0161388Y0067934D01*
X0161299Y0067846D02*
X0162678Y0069224D01*
X0163424Y0071025D01*
X0163424Y0072975D01*
X0162678Y0074776D01*
X0161299Y0076154D01*
X0159498Y0076900D01*
X0157549Y0076900D01*
X0155748Y0076154D01*
X0154370Y0074776D01*
X0153624Y0072975D01*
X0153624Y0071025D01*
X0154370Y0069224D01*
X0155748Y0067846D01*
X0157549Y0067100D01*
X0159498Y0067100D01*
X0161299Y0067846D01*
X0162386Y0068933D02*
X0164661Y0068933D01*
X0164077Y0069932D02*
X0162971Y0069932D01*
X0163384Y0070930D02*
X0163663Y0070930D01*
X0163624Y0071929D02*
X0163424Y0071929D01*
X0163424Y0072927D02*
X0163624Y0072927D01*
X0164018Y0073926D02*
X0163030Y0073926D01*
X0162529Y0074924D02*
X0164518Y0074924D01*
X0165517Y0075923D02*
X0161531Y0075923D01*
X0155517Y0075923D02*
X0151531Y0075923D01*
X0152529Y0074924D02*
X0154518Y0074924D01*
X0154018Y0073926D02*
X0153030Y0073926D01*
X0153424Y0072927D02*
X0153624Y0072927D01*
X0153624Y0071929D02*
X0153424Y0071929D01*
X0153384Y0070930D02*
X0153663Y0070930D01*
X0154077Y0069932D02*
X0152971Y0069932D01*
X0152386Y0068933D02*
X0154661Y0068933D01*
X0155659Y0067934D02*
X0151388Y0067934D01*
X0074624Y0037979D02*
X0360424Y0037979D01*
X0360424Y0036981D02*
X0074624Y0036981D01*
X0074624Y0035982D02*
X0360424Y0035982D01*
X0360424Y0034984D02*
X0074624Y0034984D01*
X0074624Y0033985D02*
X0360424Y0033985D01*
X0360424Y0032987D02*
X0074624Y0032987D01*
X0074624Y0031988D02*
X0360424Y0031988D01*
X0360424Y0030990D02*
X0074624Y0030990D01*
X0074624Y0029991D02*
X0360424Y0029991D01*
X0360424Y0028993D02*
X0074624Y0028993D01*
X0074624Y0027994D02*
X0360424Y0027994D01*
X0360424Y0110870D02*
X0294772Y0110870D01*
X0296039Y0111869D02*
X0360424Y0111869D01*
X0360424Y0112868D02*
X0296712Y0112868D01*
X0297097Y0113866D02*
X0360424Y0113866D01*
X0348607Y0115863D02*
X0297146Y0115863D01*
X0296850Y0116862D02*
X0347525Y0116862D01*
X0346772Y0117860D02*
X0296255Y0117860D01*
X0295209Y0118859D02*
X0346359Y0118859D01*
X0293024Y0118859D02*
X0292024Y0118859D01*
X0292024Y0117860D02*
X0293024Y0117860D01*
X0293024Y0116862D02*
X0292024Y0116862D01*
X0292024Y0115863D02*
X0293024Y0115863D01*
X0293024Y0112868D02*
X0292024Y0112868D01*
X0292024Y0111869D02*
X0293024Y0111869D01*
X0293024Y0110870D02*
X0292024Y0110870D01*
X0287902Y0115863D02*
X0287424Y0115863D01*
X0287056Y0116862D02*
X0288197Y0116862D01*
X0288792Y0117860D02*
X0286593Y0117860D01*
X0285595Y0118859D02*
X0289838Y0118859D01*
X0299857Y0159798D02*
X0306786Y0159798D01*
X0307784Y0160796D02*
X0300855Y0160796D01*
X0301854Y0161795D02*
X0308783Y0161795D01*
X0309781Y0162793D02*
X0302852Y0162793D01*
X0303851Y0163792D02*
X0310780Y0163792D01*
X0311778Y0164790D02*
X0304849Y0164790D01*
X0305848Y0165789D02*
X0312777Y0165789D01*
X0313775Y0166787D02*
X0306846Y0166787D01*
X0307845Y0167786D02*
X0314774Y0167786D01*
X0315772Y0168784D02*
X0308843Y0168784D01*
X0309842Y0169783D02*
X0316771Y0169783D01*
X0317769Y0170781D02*
X0310840Y0170781D01*
X0311839Y0171780D02*
X0318768Y0171780D01*
X0319766Y0172778D02*
X0312837Y0172778D01*
X0313836Y0173777D02*
X0320765Y0173777D01*
X0321763Y0174775D02*
X0314834Y0174775D01*
X0315833Y0175774D02*
X0322762Y0175774D01*
X0323760Y0176772D02*
X0316831Y0176772D01*
X0317830Y0177771D02*
X0324759Y0177771D01*
X0325757Y0178769D02*
X0318828Y0178769D01*
X0319827Y0179768D02*
X0326756Y0179768D01*
X0327754Y0180766D02*
X0320825Y0180766D01*
X0321824Y0181765D02*
X0346824Y0181765D01*
X0347650Y0182763D02*
X0322822Y0182763D01*
X0323821Y0183762D02*
X0348909Y0183762D01*
X0348127Y0184760D02*
X0324819Y0184760D01*
X0325818Y0185759D02*
X0347128Y0185759D01*
X0347113Y0175774D02*
X0329833Y0175774D01*
X0328834Y0174775D02*
X0348112Y0174775D01*
X0350023Y0173777D02*
X0327836Y0173777D01*
X0318793Y0202734D02*
X0347620Y0202734D01*
X0348837Y0203732D02*
X0319791Y0203732D01*
X0320790Y0204731D02*
X0348156Y0204731D01*
X0347158Y0205729D02*
X0321788Y0205729D01*
D13*
X0321524Y0209000D02*
X0262524Y0150000D01*
X0268524Y0144000D02*
X0323524Y0199000D01*
X0351524Y0199000D01*
X0351524Y0189000D02*
X0325524Y0189000D01*
X0274524Y0138000D01*
X0282524Y0132000D02*
X0329524Y0179000D01*
X0351524Y0179000D01*
X0351524Y0209000D02*
X0321524Y0209000D01*
X0266524Y0225000D02*
X0266524Y0166000D01*
X0247524Y0147000D01*
X0244524Y0147000D01*
X0234524Y0147000D02*
X0257524Y0170000D01*
X0260524Y0170000D01*
X0260524Y0221000D01*
X0247524Y0234000D01*
X0257524Y0234000D02*
X0266524Y0225000D01*
X0254524Y0216000D02*
X0254524Y0188000D01*
X0236524Y0170000D01*
X0188524Y0170000D01*
X0174524Y0156000D01*
X0174524Y0147000D01*
X0184524Y0147000D02*
X0194524Y0147000D01*
X0194524Y0136000D01*
X0206524Y0136000D01*
X0206524Y0098000D01*
X0177524Y0098000D01*
X0177524Y0054000D01*
X0177524Y0044000D01*
X0177524Y0054000D02*
X0148524Y0054000D01*
X0148524Y0062000D01*
X0148524Y0072000D01*
X0148524Y0062000D02*
X0118524Y0062000D01*
X0118524Y0072000D01*
X0108524Y0072000D01*
X0098524Y0122000D02*
X0098524Y0132000D01*
X0109524Y0132000D01*
X0174524Y0197000D01*
X0146524Y0184000D02*
X0112524Y0184000D01*
X0112524Y0200000D01*
X0081524Y0154000D02*
X0081524Y0139000D01*
X0098524Y0122000D01*
X0196524Y0080000D02*
X0207524Y0069000D01*
X0207524Y0044000D01*
X0232524Y0065000D02*
X0232524Y0072000D01*
X0206524Y0098000D01*
X0242524Y0074000D02*
X0272524Y0074000D01*
X0272524Y0065000D01*
X0242524Y0065000D02*
X0242524Y0074000D01*
X0242524Y0065000D02*
X0232524Y0065000D01*
X0224524Y0136000D02*
X0206524Y0136000D01*
X0224524Y0136000D02*
X0224524Y0147000D01*
X0254524Y0216000D02*
X0237524Y0233000D01*
X0237524Y0234000D01*
D14*
X0146524Y0184000D03*
X0262524Y0150000D03*
X0268524Y0144000D03*
X0274524Y0138000D03*
X0282524Y0132000D03*
X0196524Y0080000D03*
M02*
