%
M48
M72
T01C0.01378
T02C0.04000
T03C0.15000
%
T01
X196524Y80000
X274524Y138000
X268524Y144000
X262524Y150000
X282524Y132000
X146524Y184000
T02
X98524Y72000
X108524Y72000
X118524Y72000
X128524Y72000
X138524Y72000
X148524Y72000
X158524Y72000
X168524Y72000
X167524Y44000
X177524Y44000
X187524Y44000
X197524Y44000
X207524Y44000
X227524Y44000
X237524Y44000
X247524Y44000
X257524Y44000
X267524Y44000
X277524Y44000
X282524Y65000
X272524Y65000
X262524Y65000
X252524Y65000
X242524Y65000
X232524Y65000
X222524Y65000
X157524Y44000
X147524Y44000
X137524Y44000
X222524Y115000
X232524Y115000
X242524Y115000
X252524Y115000
X262524Y115000
X272524Y115000
X282524Y115000
X292524Y115000
X244524Y147000
X234524Y147000
X224524Y147000
X214524Y147000
X204524Y147000
X194524Y147000
X184524Y147000
X174524Y147000
X168524Y122000
X158524Y122000
X148524Y122000
X138524Y122000
X128524Y122000
X118524Y122000
X108524Y122000
X98524Y122000
X91524Y154000
X81524Y154000
X102524Y200000
X112524Y200000
X122524Y200000
X142524Y218000
X152524Y218000
X162524Y218000
X172524Y218000
X182524Y218000
X192524Y218000
X202524Y218000
X212524Y218000
X222524Y218000
X227524Y234000
X237524Y234000
X247524Y234000
X257524Y234000
X267524Y234000
X277524Y234000
X244524Y197000
X234524Y197000
X224524Y197000
X214524Y197000
X204524Y197000
X194524Y197000
X184524Y197000
X174524Y197000
X172524Y234000
X182524Y234000
X192524Y234000
X207524Y234000
X217524Y234000
X162524Y234000
X152524Y234000
X142524Y234000
X132524Y234000
X122524Y234000
X112524Y234000
X102524Y234000
X351524Y209000
X351524Y199000
X351524Y189000
X351524Y179000
X351524Y150500
X351524Y140500
X351524Y130500
X351524Y120500
X351524Y96500
X351524Y86500
X351524Y76500
X351524Y66500
X292524Y65000
T03
X86524Y188000
M30
