%
M48
M72
T01C0.01378
T02C0.04000
%
T01
X134000Y118000
X128000Y124000
X122000Y130000
X114000Y136000
X212000Y60000
T02
X45000Y59000
X45000Y69000
X45000Y79000
X45000Y89000
X45000Y117500
X45000Y127500
X45000Y137500
X45000Y147500
X45000Y171500
X45000Y181500
X45000Y191500
X45000Y201500
X104000Y203000
X114000Y203000
X124000Y203000
X134000Y203000
X144000Y203000
X154000Y203000
X164000Y203000
X174000Y203000
X169000Y224000
X159000Y224000
X149000Y224000
X139000Y224000
X129000Y224000
X119000Y224000
X189000Y224000
X199000Y224000
X209000Y224000
X219000Y224000
X229000Y224000
X239000Y224000
X249000Y224000
X259000Y224000
X301000Y224000
X311000Y224000
X298000Y196000
X288000Y196000
X278000Y196000
X268000Y196000
X258000Y196000
X248000Y196000
X238000Y196000
X228000Y196000
X174000Y153000
X164000Y153000
X154000Y153000
X144000Y153000
X134000Y153000
X124000Y153000
X114000Y153000
X104000Y153000
X152000Y121000
X162000Y121000
X172000Y121000
X182000Y121000
X192000Y121000
X202000Y121000
X212000Y121000
X222000Y121000
X228000Y146000
X238000Y146000
X248000Y146000
X258000Y146000
X268000Y146000
X278000Y146000
X288000Y146000
X298000Y146000
X222000Y71000
X212000Y71000
X202000Y71000
X192000Y71000
X182000Y71000
X172000Y71000
X162000Y71000
X152000Y71000
X174000Y50000
X184000Y50000
X194000Y50000
X204000Y50000
X214000Y50000
X224000Y50000
X234000Y50000
X244000Y50000
X254000Y50000
X254000Y34000
X264000Y34000
X274000Y34000
X284000Y34000
X294000Y34000
X244000Y34000
X234000Y34000
X224000Y34000
X214000Y34000
X204000Y34000
X189000Y34000
X179000Y34000
X169000Y34000
X159000Y34000
X149000Y34000
X139000Y34000
X129000Y34000
X119000Y34000
M30
