<svg width="700" height="700" viewbox = "0 0 700 700"  xmlns="http://www.w3.org/2000/svg">
<!--<json>{
  "glyph": "0336,0333,0331,0337,0211,0227,0227,0227,0227,0227,0227,0226,0330,0226,0330,0226,0330,0226,",
  "robotglyph": "0400,0401,0407,0500,0501,0400,0401,0407,0500,0501,0400,0401,0407,0500,0501,0400,0401,0407,0500,0501,0400,0401,0407,0500,0501,0400,0401,0407,0500,0501,",
  "shapes": [
    "0220:0362,0203,0335,0336,0203,0336,0336,0335,0337,0337,0203,0334,0336,0336,0203,0334,0337,0337,0203,0335,0203,0336,0203,0336,0203,0335,0337,0337,0203,0334,0336,0336,0203,0334,0337,0337,0203,0335,0203,0203,0203,0203,0203,0336,0203,0335,0337,0203,0334,0336,0336,0203,0334,0337,0337,0203,0335,0203,0336,0203,0336,0203,0335,0337,0337,0203,0334,0336,0336,0203,0334,0337,0337,0203,0335,0203,0335,0337,0203,0335,0203,0203,0203,0203,0203,0203,0354,0335,",
    "0221:0336,0336,0333,0333,0342,0333,0333,0337,0342,0336,0332,0336,0342,0332,0332,0332,0332,0342,0332,0332,0336,0333,0333,0342,0333,0333,0333,0333,0342,0333,0333,0333,0333,0342,0333,0333,0333,0333,0342,0333,0333,0337,0337,0337,0337,",
    "0222:0221,0221,0221,0221,0221,0221,0332,0332,0332,0332,0332,0332,",
    "0223:0336,0336,0336,0362,0203,0203,0335,0203,0203,0203,0203,0334,0203,0334,0203,0203,0203,0203,0335,0203,0203,0335,0203,0203,0203,0203,0203,0203,0203,0203,0203,0350,0310,0335,0337,0203,0334,0336,0203,0203,0335,0335,0203,0203,0203,0335,0335,0203,0203,0334,0337,0203,0335,0336,0313,0304,0203,0203,0203,0203,0203,0203,0203,0203,0203,0354,0335,0337,0337,0337,0333,0336,0333,0337,",
    "0224:0223,0223,0223,0223,0332,0332,0332,0332,0332,0332,",
    "0225:0362,0203,0335,0336,0203,0336,0336,0335,0337,0337,0203,0334,0336,0336,0203,0334,0337,0337,0203,0335,0203,0203,0203,0203,0203,0203,0203,0203,0203,0336,0203,0335,0337,0203,0334,0336,0336,0203,0334,0337,0337,0203,0335,0203,0335,0337,0203,0335,0203,0203,0203,0203,0203,0203,0354,0335,",
    "0226:0333,0362,0203,0335,0336,0203,0335,0203,0334,0336,0336,0203,0334,0337,0337,0203,0335,0203,0203,0203,0203,0203,0336,0203,0335,0337,0203,0334,0336,0336,0203,0334,0337,0337,0203,0335,0203,0335,0203,0203,0335,0203,0203,0203,0203,0203,0203,0203,0203,0354,0330,0330,0335,0337,",
    "0227:0224,0330,0336,0331,0336,0336,0330,0337,0337,0337,",
    "0230:0305,0362,0203,0335,0335,0203,0335,0335,0203,0335,0335,0203,0335,0335,0203,0354,0311,0335,0335,0336,0336,0330,0350,0335,0305,0350,",
    "0231:0305,0350,0334,0331,0337,0337,",
    "0232:0336,0332,0330,0337,0335,0322,0230,0323,0230,0324,0230,0325,0230,0326,0230,0327,0230,0231,0231,0231,0231,0231,0231,",
    "0233:0306,0350,0335,0312,0337,0201,0335,0335,0335,0335,0201,0335,0335,0335,0335,0201,0335,0335,0335,0336,0330,0335,0335,0335,0337,0201,0335,0335,0335,0335,0201,0335,0335,0335,0335,0201,0336,0336,0331,0335,0335,",
    "0234:0331,0334,0337,",
    "0235:0322,0233,0323,0233,0324,0233,0325,0233,0326,0233,0327,0233,0234,0234,0234,0234,0234,0234,",
    "0236:0304,0313,0334,0331,0337,0306,0322,0362,0203,0335,0335,0203,0335,0335,0203,0363,0335,0335,0312,0323,0350,0335,0312,0336,0362,0203,0334,0334,0203,0334,0334,0334,0334,0334,0337,0203,0363,0335,0336,0331,0335,0324,0336,0362,0203,0335,0335,0335,0335,0203,0335,0335,0335,0335,0203,0363,0334,0334,0331,0325,0336,0334,0362,0203,0334,0334,0203,0334,0334,0334,0334,0334,0337,0203,0363,0334,0334,0334,0334,0334,0336,0330,0334,0334,0334,0326,0336,0362,0203,0334,0334,0334,0334,0203,0334,0334,0334,0334,0203,0363,0335,0335,0331,0336,0327,0362,0335,0203,0335,0335,0203,0335,0335,0335,0335,0335,0337,0203,0363,0334,0336,0331,0320,0342,0334,0334,0334,0334,0342,0330,0335,0337,0331,0342,0335,0335,0342,0335,0337,0342,0334,0334,0334,0334,0342,0330,0335,0337,0331,0342,0335,0335,0342,0337,0335,0342,0334,0334,0334,0334,0342,0335,0335,0335,0335,0330,0335,0335,0335,0335,0335,0337,0362,0203,0335,0335,0335,0335,0203,0335,0335,0335,0335,0203,0354,0304,0313,0335,0336,0333,",
    "0237:01304,01305,01306,",
    "0240:",
    "0241:01350,01351,01352,01353,",
    "0242:01310,01311,01312,01313,01314,01316,",
    "0243:0530,",
    "0244:0531,",
    "0245:0532,",
    "0246:0533,",
    "0247:",
    "01220:0333,0200,0336,0330,0332,0336,0332,0336,0332,0220,0332,0337,0337,0331,0337,0333,",
    "01221:0333,0200,0336,0330,0332,0336,0331,0332,0330,0221,0331,0333,0331,0333,0337,0337,",
    "01222:0333,0200,0336,0330,0332,0336,0332,0332,0222,0337,0331,0337,0333,",
    "01223:0333,0200,0336,0330,0332,0336,0332,0223,0331,0333,0331,0336,0333,0337,0337,0337,",
    "01224:0333,0200,0336,0330,0332,0336,0336,0332,0332,0332,0224,0332,0337,0337,0331,0337,0333,",
    "01225:0333,0200,0336,0330,0332,0336,0332,0336,0332,0225,0332,0337,0337,0331,0337,0333,",
    "01226:0333,0200,0336,0330,0332,0336,0332,0332,0336,0333,0226,0332,0337,0337,0331,0337,0333,",
    "01227:0333,0200,0336,0330,0332,0336,0331,0332,0336,0227,0227,0227,0331,0331,0333,0333,0331,0333,0333,0331,0333,0333,0336,0330,0336,0331,0336,0331,0337,0337,0337,0337,0337,0337,",
    "01230:0333,0200,0336,0330,0332,0334,0336,0331,0337,0230,0230,0230,0231,0231,0231,0304,0313,0336,0335,0333,0337,0331,0337,",
    "01231:0333,0200,0336,0330,0332,0334,0336,0331,0337,0230,0231,0313,0304,0335,0336,0332,0336,0330,0334,0337,0240,0335,0336,0331,0337,0337,0333,0331,0337,",
    "01232:0333,0200,0336,0330,0332,0232,0313,0304,0334,0336,0333,0331,0331,0331,0333,0333,0337,0337,0320,",
    "01233:0333,0200,0336,0330,0332,0336,0332,0233,0234,0313,0304,0332,0337,0331,0337,0333,",
    "01234:0333,0200,0336,0330,0332,0336,0332,0233,0234,0313,0304,0336,0330,0334,0331,0337,0240,0335,0336,0332,0331,0337,0332,0337,0331,0337,0333,",
    "01235:0333,0200,0336,0330,0332,0336,0331,0333,0337,0332,0336,0330,0235,0313,0304,0320,0332,0337,0331,0337,0333,",
    "01236:0333,0200,0336,0330,0332,0336,0331,0337,0210,0236,0211,0336,0331,0337,0333,0337,",
    "01237:0333,0200,0336,0330,0332,0336,0332,0336,0332,0337,0237,0336,0333,0337,0337,0331,0337,",
    "01240:0333,0200,0336,0330,0332,0336,0331,0337,0240,0336,0331,0337,0333,0337,",
    "01241:0333,0200,0336,0330,0332,0336,0332,0332,0241,0331,0331,0337,0337,",
    "01242:0333,0200,0336,0332,0332,0336,0330,0330,0336,0333,0242,0333,0337,0337,0331,0337,",
    "01243:01530,",
    "01244:01531,",
    "01245:01532,",
    "01246:01533,",
    "01247:0333,0200,0336,0330,0332,0337,0247,0336,0333,0331,0337,"
  ],
  "x0rel": 0.1,
  "y0rel": 0.9,
  "unitrel": 0.1,
  "theta0": -1.570796,
  "width": 700,
  "height": 700,
  "scale": 1,
  "backgroundimage": "",
  "style": {
    "color0": "black",
    "fill0": "black",
    "line0": 1,
    "color1": "black",
    "fill1": "black",
    "line1": 3,
    "color2": "red",
    "fill2": "red",
    "line2": 1,
    "color3": "#FF7900",
    "fill3": "#FF7900",
    "line3": 5,
    "color4": "yellow",
    "fill4": "yellow",
    "line4": 5,
    "color5": "green",
    "fill5": "green",
    "line5": 5,
    "color6": "blue",
    "fill6": "blue",
    "line6": 5,
    "color7": "purple",
    "fill7": "purple",
    "line7": 5
  },
  "controlbuttons": [
    196,
    198,
    200,
    203,
    128,
    216,
    217,
    218,
    219,
    220,
    221,
    222,
    223,
    27,
    8,
    225,
    192,
    16,
    17,
    144,
    145,
    146,
    147,
    148,
    149,
    150,
    151,
    152,
    153,
    154,
    155,
    156,
    157,
    158,
    159,
    160,
    161,
    162,
    136,
    137
  ],
  "robotactions": "0400,0401,0402,0403,0404,0405,0406,0407,0500,0501,0510,0511,0512,0513,0514,0515"
}</json>-->	<path d = "M105 665 L105 655 L105 645 L115 645 L125 645 L135 645 L145 645 L145 635 L135 635 L125 635 L115 635 L105 635 L105 625 L105 615 L115 615 L125 615 L135 615 L145 615 L155 615 L165 615 L175 615 L185 615 L195 615 L205 625 L215 625 L225 625 L225 635 L225 645 L225 655 L215 655 L205 655 L195 665 L185 665 L175 665 L165 665 L155 665 L145 665 L135 665 L125 665 L115 665 L105 665 Z" stroke = "#000000" stroke-width = "1" fill = "none" />	<path d = "M225 665 L225 655 L225 645 L235 645 L245 645 L255 645 L265 645 L265 635 L255 635 L245 635 L235 635 L225 635 L225 625 L225 615 L235 615 L245 615 L255 615 L265 615 L275 615 L285 615 L295 615 L305 615 L315 615 L325 625 L335 625 L345 625 L345 635 L345 645 L345 655 L335 655 L325 655 L315 665 L305 665 L295 665 L285 665 L275 665 L265 665 L255 665 L245 665 L235 665 L225 665 Z" stroke = "#000000" stroke-width = "1" fill = "none" />	<path d = "M345 665 L345 655 L345 645 L355 645 L365 645 L375 645 L385 645 L385 635 L375 635 L365 635 L355 635 L345 635 L345 625 L345 615 L355 615 L365 615 L375 615 L385 615 L395 615 L405 615 L415 615 L425 615 L435 615 L445 625 L455 625 L465 625 L465 635 L465 645 L465 655 L455 655 L445 655 L435 665 L425 665 L415 665 L405 665 L395 665 L385 665 L375 665 L365 665 L355 665 L345 665 Z" stroke = "#000000" stroke-width = "1" fill = "none" />	<path d = "M465 665 L465 655 L465 645 L475 645 L485 645 L495 645 L505 645 L505 635 L495 635 L485 635 L475 635 L465 635 L465 625 L465 615 L475 615 L485 615 L495 615 L505 615 L515 615 L525 615 L535 615 L545 615 L555 615 L566 625 L576 625 L586 625 L586 635 L586 645 L586 655 L576 655 L566 655 L555 665 L545 665 L535 665 L525 665 L515 665 L505 665 L495 665 L485 665 L475 665 L465 665 Z" stroke = "#000000" stroke-width = "1" fill = "none" />	<path d = "M105 615 L105 605 L105 595 L115 595 L125 595 L135 595 L145 595 L145 585 L135 585 L125 585 L115 585 L105 585 L105 575 L105 565 L115 565 L125 565 L135 565 L145 565 L155 565 L165 565 L175 565 L185 565 L195 565 L205 575 L215 575 L225 575 L225 585 L225 595 L225 605 L215 605 L205 605 L195 615 L185 615 L175 615 L165 615 L155 615 L145 615 L135 615 L125 615 L115 615 L105 615 Z" stroke = "#000000" stroke-width = "1" fill = "none" />	<path d = "M225 615 L225 605 L225 595 L235 595 L245 595 L255 595 L265 595 L265 585 L255 585 L245 585 L235 585 L225 585 L225 575 L225 565 L235 565 L245 565 L255 565 L265 565 L275 565 L285 565 L295 565 L305 565 L315 565 L325 575 L335 575 L345 575 L345 585 L345 595 L345 605 L335 605 L325 605 L315 615 L305 615 L295 615 L285 615 L275 615 L265 615 L255 615 L245 615 L235 615 L225 615 Z" stroke = "#000000" stroke-width = "1" fill = "none" />	<path d = "M345 615 L345 605 L345 595 L355 595 L365 595 L375 595 L385 595 L385 585 L375 585 L365 585 L355 585 L345 585 L345 575 L345 565 L355 565 L365 565 L375 565 L385 565 L395 565 L405 565 L415 565 L425 565 L435 565 L445 575 L455 575 L465 575 L465 585 L465 595 L465 605 L455 605 L445 605 L435 615 L425 615 L415 615 L405 615 L395 615 L385 615 L375 615 L365 615 L355 615 L345 615 Z" stroke = "#000000" stroke-width = "1" fill = "none" />	<path d = "M465 615 L465 605 L465 595 L475 595 L485 595 L495 595 L505 595 L505 585 L495 585 L485 585 L475 585 L465 585 L465 575 L465 565 L475 565 L485 565 L495 565 L505 565 L515 565 L525 565 L535 565 L545 565 L555 565 L566 575 L576 575 L586 575 L586 585 L586 595 L586 605 L576 605 L566 605 L555 615 L545 615 L535 615 L525 615 L515 615 L505 615 L495 615 L485 615 L475 615 L465 615 Z" stroke = "#000000" stroke-width = "1" fill = "none" />	<path d = "M105 565 L105 555 L105 545 L115 545 L125 545 L135 545 L145 545 L145 535 L135 535 L125 535 L115 535 L105 535 L105 525 L105 515 L115 515 L125 515 L135 515 L145 515 L155 515 L165 515 L175 515 L185 515 L195 515 L205 525 L215 525 L225 525 L225 535 L225 545 L225 555 L215 555 L205 555 L195 565 L185 565 L175 565 L165 565 L155 565 L145 565 L135 565 L125 565 L115 565 L105 565 Z" stroke = "#000000" stroke-width = "1" fill = "none" />	<path d = "M225 565 L225 555 L225 545 L235 545 L245 545 L255 545 L265 545 L265 535 L255 535 L245 535 L235 535 L225 535 L225 525 L225 515 L235 515 L245 515 L255 515 L265 515 L275 515 L285 515 L295 515 L305 515 L315 515 L325 525 L335 525 L345 525 L345 535 L345 545 L345 555 L335 555 L325 555 L315 565 L305 565 L295 565 L285 565 L275 565 L265 565 L255 565 L245 565 L235 565 L225 565 Z" stroke = "#000000" stroke-width = "1" fill = "none" />	<path d = "M345 565 L345 555 L345 545 L355 545 L365 545 L375 545 L385 545 L385 535 L375 535 L365 535 L355 535 L345 535 L345 525 L345 515 L355 515 L365 515 L375 515 L385 515 L395 515 L405 515 L415 515 L425 515 L435 515 L445 525 L455 525 L465 525 L465 535 L465 545 L465 555 L455 555 L445 555 L435 565 L425 565 L415 565 L405 565 L395 565 L385 565 L375 565 L365 565 L355 565 L345 565 Z" stroke = "#000000" stroke-width = "1" fill = "none" />	<path d = "M465 565 L465 555 L465 545 L475 545 L485 545 L495 545 L505 545 L505 535 L495 535 L485 535 L475 535 L465 535 L465 525 L465 515 L475 515 L485 515 L495 515 L505 515 L515 515 L525 515 L535 515 L545 515 L555 515 L566 525 L576 525 L586 525 L586 535 L586 545 L586 555 L576 555 L566 555 L555 565 L545 565 L535 565 L525 565 L515 565 L505 565 L495 565 L485 565 L475 565 L465 565 Z" stroke = "#000000" stroke-width = "1" fill = "none" />	<path d = "M105 515 L105 505 L105 495 L115 495 L125 495 L135 495 L145 495 L145 485 L135 485 L125 485 L115 485 L105 485 L105 475 L105 465 L115 465 L125 465 L135 465 L145 465 L155 465 L165 465 L175 465 L185 465 L195 465 L205 475 L215 475 L225 475 L225 485 L225 495 L225 505 L215 505 L205 505 L195 515 L185 515 L175 515 L165 515 L155 515 L145 515 L135 515 L125 515 L115 515 L105 515 Z" stroke = "#000000" stroke-width = "1" fill = "none" />	<path d = "M225 515 L225 505 L225 495 L235 495 L245 495 L255 495 L265 495 L265 485 L255 485 L245 485 L235 485 L225 485 L225 475 L225 465 L235 465 L245 465 L255 465 L265 465 L275 465 L285 465 L295 465 L305 465 L315 465 L325 475 L335 475 L345 475 L345 485 L345 495 L345 505 L335 505 L325 505 L315 515 L305 515 L295 515 L285 515 L275 515 L265 515 L255 515 L245 515 L235 515 L225 515 Z" stroke = "#000000" stroke-width = "1" fill = "none" />	<path d = "M345 515 L345 505 L345 495 L355 495 L365 495 L375 495 L385 495 L385 485 L375 485 L365 485 L355 485 L345 485 L345 475 L345 465 L355 465 L365 465 L375 465 L385 465 L395 465 L405 465 L415 465 L425 465 L435 465 L445 475 L455 475 L465 475 L465 485 L465 495 L465 505 L455 505 L445 505 L435 515 L425 515 L415 515 L405 515 L395 515 L385 515 L375 515 L365 515 L355 515 L345 515 Z" stroke = "#000000" stroke-width = "1" fill = "none" />	<path d = "M465 515 L465 505 L465 495 L475 495 L485 495 L495 495 L505 495 L505 485 L495 485 L485 485 L475 485 L465 485 L465 475 L465 465 L475 465 L485 465 L495 465 L505 465 L515 465 L525 465 L535 465 L545 465 L555 465 L566 475 L576 475 L586 475 L586 485 L586 495 L586 505 L576 505 L566 505 L555 515 L545 515 L535 515 L525 515 L515 515 L505 515 L495 515 L485 515 L475 515 L465 515 Z" stroke = "#000000" stroke-width = "1" fill = "none" />	<path d = "M105 465 L105 455 L105 445 L115 445 L125 445 L135 445 L145 445 L145 435 L135 435 L125 435 L115 435 L105 435 L105 425 L105 415 L115 415 L125 415 L135 415 L145 415 L155 415 L165 415 L175 415 L185 415 L195 415 L205 425 L215 425 L225 425 L225 435 L225 445 L225 455 L215 455 L205 455 L195 465 L185 465 L175 465 L165 465 L155 465 L145 465 L135 465 L125 465 L115 465 L105 465 Z" stroke = "#000000" stroke-width = "1" fill = "none" />	<path d = "M225 465 L225 455 L225 445 L235 445 L245 445 L255 445 L265 445 L265 435 L255 435 L245 435 L235 435 L225 435 L225 425 L225 415 L235 415 L245 415 L255 415 L265 415 L275 415 L285 415 L295 415 L305 415 L315 415 L325 425 L335 425 L345 425 L345 435 L345 445 L345 455 L335 455 L325 455 L315 465 L305 465 L295 465 L285 465 L275 465 L265 465 L255 465 L245 465 L235 465 L225 465 Z" stroke = "#000000" stroke-width = "1" fill = "none" />	<path d = "M345 465 L345 455 L345 445 L355 445 L365 445 L375 445 L385 445 L385 435 L375 435 L365 435 L355 435 L345 435 L345 425 L345 415 L355 415 L365 415 L375 415 L385 415 L395 415 L405 415 L415 415 L425 415 L435 415 L445 425 L455 425 L465 425 L465 435 L465 445 L465 455 L455 455 L445 455 L435 465 L425 465 L415 465 L405 465 L395 465 L385 465 L375 465 L365 465 L355 465 L345 465 Z" stroke = "#000000" stroke-width = "1" fill = "none" />	<path d = "M465 465 L465 455 L465 445 L475 445 L485 445 L495 445 L505 445 L505 435 L495 435 L485 435 L475 435 L465 435 L465 425 L465 415 L475 415 L485 415 L495 415 L505 415 L515 415 L525 415 L535 415 L545 415 L555 415 L566 425 L576 425 L586 425 L586 435 L586 445 L586 455 L576 455 L566 455 L555 465 L545 465 L535 465 L525 465 L515 465 L505 465 L495 465 L485 465 L475 465 L465 465 Z" stroke = "#000000" stroke-width = "1" fill = "none" />	<path d = "M105 415 L105 405 L105 395 L115 395 L125 395 L135 395 L145 395 L145 385 L135 385 L125 385 L115 385 L105 385 L105 375 L105 365 L115 365 L125 365 L135 365 L145 365 L155 365 L165 365 L175 365 L185 365 L195 365 L205 375 L215 375 L225 375 L225 385 L225 395 L225 405 L215 405 L205 405 L195 415 L185 415 L175 415 L165 415 L155 415 L145 415 L135 415 L125 415 L115 415 L105 415 Z" stroke = "#000000" stroke-width = "1" fill = "none" />	<path d = "M225 415 L225 405 L225 395 L235 395 L245 395 L255 395 L265 395 L265 385 L255 385 L245 385 L235 385 L225 385 L225 375 L225 365 L235 365 L245 365 L255 365 L265 365 L275 365 L285 365 L295 365 L305 365 L315 365 L325 375 L335 375 L345 375 L345 385 L345 395 L345 405 L335 405 L325 405 L315 415 L305 415 L295 415 L285 415 L275 415 L265 415 L255 415 L245 415 L235 415 L225 415 Z" stroke = "#000000" stroke-width = "1" fill = "none" />	<path d = "M345 415 L345 405 L345 395 L355 395 L365 395 L375 395 L385 395 L385 385 L375 385 L365 385 L355 385 L345 385 L345 375 L345 365 L355 365 L365 365 L375 365 L385 365 L395 365 L405 365 L415 365 L425 365 L435 365 L445 375 L455 375 L465 375 L465 385 L465 395 L465 405 L455 405 L445 405 L435 415 L425 415 L415 415 L405 415 L395 415 L385 415 L375 415 L365 415 L355 415 L345 415 Z" stroke = "#000000" stroke-width = "1" fill = "none" />	<path d = "M465 415 L465 405 L465 395 L475 395 L485 395 L495 395 L505 395 L505 385 L495 385 L485 385 L475 385 L465 385 L465 375 L465 365 L475 365 L485 365 L495 365 L505 365 L515 365 L525 365 L535 365 L545 365 L555 365 L566 375 L576 375 L586 375 L586 385 L586 395 L586 405 L576 405 L566 405 L555 415 L545 415 L535 415 L525 415 L515 415 L505 415 L495 415 L485 415 L475 415 L465 415 Z" stroke = "#000000" stroke-width = "1" fill = "none" />	<path d = "M185 365 L185 285 L225 285 L225 325 L235 325 L235 285 L275 285 L315 285 L355 285 L395 285 L435 285 L455 285 L455 325 L465 325 L465 285 L505 285 L505 325 L505 365 L465 365 L425 365 L385 365 L345 365 L305 365 L265 365 L225 365 L185 365 Z" stroke = "#000000" stroke-width = "1" fill = "none" />	<path d = "M185 285 L185 204 L225 204 L225 245 L235 245 L235 204 L275 204 L315 204 L355 204 L395 204 L435 204 L455 204 L455 245 L465 245 L465 204 L505 204 L505 245 L505 285 L465 285 L425 285 L385 285 L345 285 L305 285 L265 285 L225 285 L185 285 Z" stroke = "#000000" stroke-width = "1" fill = "none" />	<path d = "M185 204 L185 124 L225 124 L225 164 L235 164 L235 124 L275 124 L315 124 L355 124 L395 124 L435 124 L455 124 L455 164 L465 164 L465 124 L505 124 L505 164 L505 204 L465 204 L425 204 L385 204 L345 204 L305 204 L265 204 L225 204 L185 204 Z" stroke = "#000000" stroke-width = "1" fill = "none" />	<path d = "M185 124 L185 44 L225 44 L225 84 L235 84 L235 44 L275 44 L315 44 L355 44 L395 44 L435 44 L455 44 L455 84 L465 84 L465 44 L505 44 L505 84 L505 124 L465 124 L425 124 L385 124 L345 124 L305 124 L265 124 L225 124 L185 124 Z" stroke = "#000000" stroke-width = "1" fill = "none" /></svg>