<svg width="700" height="700" viewbox = "0 0 700 700"  xmlns="http://www.w3.org/2000/svg">
<!--<json>{
  "glyph": "0211,0211,0220,0330,0220,0330,0225,0330,0225,0330,0225,0330,0225,",
  "robotglyph": "0400,0401,0407,0500,0501,0400,0401,0407,0500,0501,0400,0401,0407,0500,0501,0400,0401,0407,0500,0501,0400,0401,0407,0500,0501,0400,0401,0407,0500,0501,",
  "shapes": [
    "0220:0362,0203,0335,0336,0203,0336,0336,0335,0337,0337,0203,0334,0336,0336,0203,0334,0337,0337,0203,0335,0203,0336,0203,0336,0203,0335,0337,0337,0203,0334,0336,0336,0203,0334,0337,0337,0203,0335,0203,0203,0203,0203,0203,0336,0203,0335,0337,0203,0334,0336,0336,0203,0334,0337,0337,0203,0335,0203,0336,0203,0336,0203,0335,0337,0337,0203,0334,0336,0336,0203,0334,0337,0337,0203,0335,0203,0335,0337,0203,0335,0203,0203,0203,0203,0203,0203,0354,0335,",
    "0221:0336,0336,0333,0333,0342,0333,0333,0337,0342,0336,0332,0336,0342,0332,0332,0332,0332,0342,0332,0332,0336,0333,0333,0342,0333,0333,0333,0333,0342,0333,0333,0333,0333,0342,0333,0333,0333,0333,0342,0333,0333,0337,0337,0337,0337,",
    "0222:0221,0221,0221,0221,0221,0221,0332,0332,0332,0332,0332,0332,",
    "0223:0336,0336,0336,0362,0203,0203,0335,0203,0203,0203,0203,0334,0203,0334,0203,0203,0203,0203,0335,0203,0203,0335,0203,0203,0203,0203,0203,0203,0203,0203,0203,0350,0310,0335,0337,0203,0334,0336,0203,0203,0335,0335,0203,0203,0203,0335,0335,0203,0203,0334,0337,0203,0335,0336,0313,0304,0203,0203,0203,0203,0203,0203,0203,0203,0203,0354,0335,0337,0337,0337,0333,0336,0333,0337,",
    "0224:0223,0223,0223,0223,0332,0332,0332,0332,0332,0332,",
    "0225:0362,0203,0335,0336,0203,0336,0336,0335,0337,0337,0203,0334,0336,0336,0203,0334,0337,0337,0203,0335,0203,0203,0203,0203,0203,0203,0203,0203,0203,0336,0203,0335,0337,0203,0334,0336,0336,0203,0334,0337,0337,0203,0335,0203,0335,0337,0203,0335,0203,0203,0203,0203,0203,0203,0354,0335,",
    "0226:0333,0362,0203,0335,0336,0203,0335,0203,0334,0336,0336,0203,0334,0337,0337,0203,0335,0203,0203,0203,0203,0203,0336,0203,0335,0337,0203,0334,0336,0336,0203,0334,0337,0337,0203,0335,0203,0335,0203,0203,0335,0203,0203,0203,0203,0203,0203,0203,0203,0354,0330,0330,0335,0337,",
    "0227:0305,0311,0350,0324,0362,0203,0335,0335,0335,0335,0337,0203,0335,0335,0335,0335,0336,0203,0363,0322,0335,0335,0335,0336,0335,0362,0203,0335,0335,0335,0335,0336,0203,0335,0335,0203,0363,0331,0335,0335,0335,0335,0362,0203,0335,0335,0335,0335,0336,0203,0335,0335,0203,0363,0331,0335,0335,0335,0335,0362,0203,0335,0335,0335,0335,0336,0203,0335,0335,0203,0363,0331,0337,0331,0337,0337,0337,0320,0362,0203,0335,0335,0203,0335,0335,0335,0335,0337,0203,0354,0336,0336,0336,0336,0331,0335,0335,0336,0342,0335,0337,0201,0335,0335,0335,0335,0201,0334,0334,0334,0334,0337,0201,0335,0335,0335,0335,0201,0334,0334,0334,0334,0337,0201,0335,0335,0335,0337,0313,0304,",
    "0230:0305,0362,0203,0335,0335,0203,0335,0335,0203,0335,0335,0203,0335,0335,0203,0354,0311,0335,0335,0336,0336,0330,0350,0335,0305,0350,",
    "0231:0305,0350,0334,0331,0337,0337,",
    "0232:0336,0332,0330,0337,0335,0322,0230,0323,0230,0324,0230,0325,0230,0326,0230,0327,0230,0231,0231,0231,0231,0231,0231,",
    "0233:0306,0350,0335,0312,0337,0201,0335,0335,0335,0335,0201,0335,0335,0335,0335,0201,0335,0335,0335,0336,0330,0335,0335,0335,0337,0201,0335,0335,0335,0335,0201,0335,0335,0335,0335,0201,0336,0336,0331,0335,0335,",
    "0234:0331,0334,0337,",
    "0235:0322,0233,0323,0233,0324,0233,0325,0233,0326,0233,0327,0233,0234,0234,0234,0234,0234,0234,",
    "0236:0304,0313,0334,0331,0337,0306,0322,0362,0203,0335,0335,0203,0335,0335,0203,0363,0335,0335,0312,0323,0350,0335,0312,0336,0362,0203,0334,0334,0203,0334,0334,0334,0334,0334,0337,0203,0363,0335,0336,0331,0335,0324,0336,0362,0203,0335,0335,0335,0335,0203,0335,0335,0335,0335,0203,0363,0334,0334,0331,0325,0336,0334,0362,0203,0334,0334,0203,0334,0334,0334,0334,0334,0337,0203,0363,0334,0334,0334,0334,0334,0336,0330,0334,0334,0334,0326,0336,0362,0203,0334,0334,0334,0334,0203,0334,0334,0334,0334,0203,0363,0335,0335,0331,0336,0327,0362,0335,0203,0335,0335,0203,0335,0335,0335,0335,0335,0337,0203,0363,0334,0336,0331,0320,0342,0334,0334,0334,0334,0342,0330,0335,0337,0331,0342,0335,0335,0342,0335,0337,0342,0334,0334,0334,0334,0342,0330,0335,0337,0331,0342,0335,0335,0342,0337,0335,0342,0334,0334,0334,0334,0342,0335,0335,0335,0335,0330,0335,0335,0335,0335,0335,0337,0362,0203,0335,0335,0335,0335,0203,0335,0335,0335,0335,0203,0354,0304,0313,0335,0336,0333,",
    "0237:01304,01305,01306,",
    "0240:",
    "0241:01350,01351,01352,01353,",
    "0242:01310,01311,01312,01313,01314,01316,",
    "0243:0530,",
    "0244:0531,",
    "0245:0532,",
    "0246:0533,",
    "0247:",
    "01220:0333,0200,0336,0330,0332,0336,0332,0336,0332,0220,0332,0337,0337,0331,0337,0333,",
    "01221:0333,0200,0336,0330,0332,0336,0331,0332,0330,0221,0331,0333,0331,0333,0337,0337,",
    "01222:0333,0200,0336,0330,0332,0336,0332,0332,0222,0337,0331,0337,0333,",
    "01223:0333,0200,0336,0330,0332,0336,0332,0223,0331,0333,0331,0336,0333,0337,0337,0337,",
    "01224:0333,0200,0336,0330,0332,0336,0336,0332,0332,0332,0224,0332,0337,0337,0331,0337,0333,",
    "01225:0333,0200,0336,0330,0332,0336,0332,0336,0332,0225,0332,0337,0337,0331,0337,0333,",
    "01226:0333,0200,0336,0330,0332,0336,0332,0332,0336,0333,0226,0332,0337,0337,0331,0337,0333,",
    "01227:0333,0200,0336,0330,0332,0336,0332,0337,0227,0333,0336,0333,0337,0331,0337,",
    "01230:0333,0200,0336,0330,0332,0334,0336,0331,0337,0230,0230,0230,0231,0231,0231,0304,0313,0336,0335,0333,0337,0331,0337,",
    "01231:0333,0200,0336,0330,0332,0334,0336,0331,0337,0230,0231,0313,0304,0335,0336,0332,0336,0330,0334,0337,0240,0335,0336,0331,0337,0337,0333,0331,0337,",
    "01232:0333,0200,0336,0330,0332,0232,0313,0304,0334,0336,0333,0331,0331,0331,0333,0333,0337,0337,0320,",
    "01233:0333,0200,0336,0330,0332,0336,0332,0233,0234,0313,0304,0332,0337,0331,0337,0333,",
    "01234:0333,0200,0336,0330,0332,0336,0332,0233,0234,0313,0304,0336,0330,0334,0331,0337,0240,0335,0336,0332,0331,0337,0332,0337,0331,0337,0333,",
    "01235:0333,0200,0336,0330,0332,0336,0331,0333,0337,0332,0336,0330,0235,0313,0304,0320,0332,0337,0331,0337,0333,",
    "01236:0333,0200,0336,0330,0332,0336,0331,0337,0210,0236,0211,0336,0331,0337,0333,0337,",
    "01237:0333,0200,0336,0330,0332,0336,0332,0336,0332,0337,0237,0336,0333,0337,0337,0331,0337,",
    "01240:0333,0200,0336,0330,0332,0336,0331,0337,0240,0336,0331,0337,0333,0337,",
    "01241:0333,0200,0336,0330,0332,0336,0332,0332,0241,0331,0331,0337,0337,",
    "01242:0333,0200,0336,0332,0332,0336,0330,0330,0336,0333,0242,0333,0337,0337,0331,0337,",
    "01243:01530,",
    "01244:01531,",
    "01245:01532,",
    "01246:01533,",
    "01247:0333,0200,0336,0330,0332,0337,0247,0336,0333,0331,0337,"
  ],
  "x0rel": 0.1,
  "y0rel": 0.9,
  "unitrel": 0.1,
  "theta0": -1.570796,
  "width": 700,
  "height": 700,
  "scale": 1,
  "backgroundimage": "",
  "style": {
    "color0": "black",
    "fill0": "black",
    "line0": 1,
    "color1": "black",
    "fill1": "black",
    "line1": 3,
    "color2": "red",
    "fill2": "red",
    "line2": 1,
    "color3": "#FF7900",
    "fill3": "#FF7900",
    "line3": 5,
    "color4": "yellow",
    "fill4": "yellow",
    "line4": 5,
    "color5": "green",
    "fill5": "green",
    "line5": 5,
    "color6": "blue",
    "fill6": "blue",
    "line6": 5,
    "color7": "purple",
    "fill7": "purple",
    "line7": 5
  },
  "controlbuttons": [
    196,
    198,
    200,
    203,
    128,
    216,
    217,
    218,
    219,
    220,
    221,
    222,
    223,
    27,
    8,
    225,
    192,
    16,
    17,
    144,
    145,
    146,
    147,
    148,
    149,
    150,
    151,
    152,
    153,
    154,
    155,
    156,
    157,
    158,
    159,
    160,
    161,
    162,
    136,
    137
  ],
  "robotactions": "0400,0401,0402,0403,0404,0405,0406,0407,0500,0501,0510,0511,0512,0513,0514,0515"
}</json>-->	<path d = "M70 630 L70 538 L116 538 L116 584 L127 584 L127 538 L173 538 L196 538 L207 538 L207 584 L219 584 L219 538 L265 538 L311 538 L356 538 L402 538 L448 538 L471 538 L471 584 L482 584 L482 538 L528 538 L551 538 L563 538 L563 584 L574 584 L574 538 L620 538 L620 630 L528 630 L437 630 L345 630 L253 630 L162 630 L70 630 Z" stroke = "#000000" stroke-width = "1" fill = "none" />	<path d = "M70 538 L70 447 L116 447 L116 493 L127 493 L127 447 L173 447 L196 447 L207 447 L207 493 L219 493 L219 447 L265 447 L311 447 L356 447 L402 447 L448 447 L471 447 L471 493 L482 493 L482 447 L528 447 L551 447 L563 447 L563 493 L574 493 L574 447 L620 447 L620 538 L528 538 L437 538 L345 538 L253 538 L162 538 L70 538 Z" stroke = "#000000" stroke-width = "1" fill = "none" />	<path d = "M70 447 L70 355 L116 355 L116 401 L127 401 L127 355 L173 355 L219 355 L265 355 L311 355 L356 355 L402 355 L448 355 L494 355 L540 355 L563 355 L563 401 L574 401 L574 355 L620 355 L620 447 L528 447 L437 447 L345 447 L253 447 L162 447 L70 447 Z" stroke = "#000000" stroke-width = "1" fill = "none" />	<path d = "M70 355 L70 263 L116 263 L116 309 L127 309 L127 263 L173 263 L219 263 L265 263 L311 263 L356 263 L402 263 L448 263 L494 263 L540 263 L563 263 L563 309 L574 309 L574 263 L620 263 L620 355 L528 355 L437 355 L345 355 L253 355 L162 355 L70 355 Z" stroke = "#000000" stroke-width = "1" fill = "none" />	<path d = "M70 263 L70 172 L116 172 L116 218 L127 218 L127 172 L173 172 L219 172 L265 172 L311 172 L356 172 L402 172 L448 172 L494 172 L540 172 L563 172 L563 218 L574 218 L574 172 L620 172 L620 263 L528 263 L437 263 L345 263 L253 263 L162 263 L70 263 Z" stroke = "#000000" stroke-width = "1" fill = "none" />	<path d = "M70 172 L70 80 L116 80 L116 126 L127 126 L127 80 L173 80 L219 80 L265 80 L311 80 L356 80 L402 80 L448 80 L494 80 L540 80 L563 80 L563 126 L574 126 L574 80 L620 80 L620 172 L528 172 L437 172 L345 172 L253 172 L162 172 L70 172 Z" stroke = "#000000" stroke-width = "1" fill = "none" /></svg>